<?xml version="1.0" standalone="no"?>
<!DOCTYPE svg PUBLIC "-//W3C//DTD SVG 1.1//EN" "http://www.w3.org/Graphics/SVG/1.1/DTD/svg11.dtd" >
<svg>
<metadata>
Created by FontForge 20090914 at Thu Mar  7 10:14:38 2019
 By www-data
Copyright (c) Mark Simonson, 2005. All rights reserved.
</metadata>
<defs>
<font id="ProximaNova-Light" horiz-adv-x="0" >
  <font-face 
    font-family="ProximaNova-Light"
    font-weight="400"
    font-stretch="normal"
    units-per-em="1000"
    panose-1="2 0 5 6 3 0 0 2 0 4"
    ascent="800"
    descent="-200"
    x-height="483"
    cap-height="667"
    bbox="-50 -199 848 752"
    underline-thickness="39"
    underline-position="-126"
    unicode-range="U+0020-U+FB04"
  />
<missing-glyph horiz-adv-x="517" 
d="M83 752h351v-842h-351v842zM114 722v-782h288v782h-288z" />
    <glyph glyph-name="f_f" unicode="ff" horiz-adv-x="530" 
d="M98 437l-80 0.000976562v46h80v44c0 47.333 11.667 84.166 35 110.499s55.333 39.5 96 39.5c26 0 47.667 -5 65 -15l-16 -41c-12.667 7.33301 -27.334 11 -44.001 11c-27.333 0 -48.166 -9 -62.499 -27s-21.5 -44 -21.5 -78v-44h98v-46h-98v-437h-52v437zM363 437.001
l-80 0.000976562v46h80v44c0 47.333 11.667 84.166 35 110.499s55.333 39.5 96 39.5c26 0 47.667 -5 65 -15l-16 -41c-12.667 7.33301 -27.334 11 -44.001 11c-27.333 0 -48.166 -9 -62.499 -27s-21.5 -44 -21.5 -78v-44h98v-46h-98v-437h-52v437z" />
    <glyph glyph-name="fi" unicode="fi" horiz-adv-x="479" 
d="M98 437l-80 0.000976562v46h80v44c0 47.333 11.667 84.166 35 110.499s55.333 39.5 96 39.5c26 0 47.667 -5 65 -15l-16 -41c-12.667 7.33301 -27.334 11 -44.001 11c-27.333 0 -48.166 -9 -62.499 -27s-21.5 -44 -21.5 -78v-44h98v-46h-98v-437h-52v437zM344 577.001
c-8 8 -12 17.333 -12 28s4 20 12 28s17.333 12 28 12c11.333 0 20.833 -3.83301 28.5 -11.5s11.5 -17.167 11.5 -28.5c0 -10.667 -3.83301 -20 -11.5 -28s-17.167 -12 -28.5 -12c-10.667 0 -20 4 -28 12zM346 483.001h52v-483h-52v483z" />
    <glyph glyph-name="fl" unicode="fl" horiz-adv-x="479" 
d="M98 437l-80 0.000976562v46h80v44c0 47.333 11.667 84.166 35 110.499s55.333 39.5 96 39.5c26 0 47.667 -5 65 -15l-16 -41c-12.667 7.33301 -27.334 11 -44.001 11c-27.333 0 -48.166 -9 -62.499 -27s-21.5 -44 -21.5 -78v-44h98v-46h-98v-437h-52v437zM346 667.001h52
v-667h-52v667z" />
    <glyph glyph-name="f_f_i" unicode="ffi" horiz-adv-x="744" 
d="M98 437l-80 0.000976562v46h80v44c0 47.333 11.667 84.166 35 110.499s55.333 39.5 96 39.5c26 0 47.667 -5 65 -15l-16 -41c-12.667 7.33301 -27.334 11 -44.001 11c-27.333 0 -48.166 -9 -62.499 -27s-21.5 -44 -21.5 -78v-44h98v-46h-98v-437h-52v437zM363 437.001
l-80 0.000976562v46h80v44c0 47.333 11.667 84.166 35 110.499s55.333 39.5 96 39.5c26 0 47.667 -5 65 -15l-16 -41c-12.667 7.33301 -27.334 11 -44.001 11c-27.333 0 -48.166 -9 -62.499 -27s-21.5 -44 -21.5 -78v-44h98v-46h-98v-437h-52v437zM609 577.002
c-8 8 -12 17.333 -12 28s4 20 12 28s17.333 12 28 12c11.333 0 20.833 -3.83301 28.5 -11.5s11.5 -17.167 11.5 -28.5c0 -10.667 -3.83301 -20 -11.5 -28s-17.167 -12 -28.5 -12c-10.667 0 -20 4 -28 12zM611 483.002h52v-483h-52v483z" />
    <glyph glyph-name="f_f_l" unicode="ffl" horiz-adv-x="744" 
d="M98 437l-80 0.000976562v46h80v44c0 47.333 11.667 84.166 35 110.499s55.333 39.5 96 39.5c26 0 47.667 -5 65 -15l-16 -41c-12.667 7.33301 -27.334 11 -44.001 11c-27.333 0 -48.166 -9 -62.499 -27s-21.5 -44 -21.5 -78v-44h98v-46h-98v-437h-52v437zM363 437.001
l-80 0.000976562v46h80v44c0 47.333 11.667 84.166 35 110.499s55.333 39.5 96 39.5c26 0 47.667 -5 65 -15l-16 -41c-12.667 7.33301 -27.334 11 -44.001 11c-27.333 0 -48.166 -9 -62.499 -27s-21.5 -44 -21.5 -78v-44h98v-46h-98v-437h-52v437zM611 667.002h52v-667h-52
v667z" />
    <glyph glyph-name="f_b" unicode="fb" 
 />
    <glyph glyph-name="f_h" unicode="fh" 
 />
    <glyph glyph-name="f_j" unicode="fj" 
 />
    <glyph glyph-name="f_k" unicode="fk" 
 />
    <glyph glyph-name="f_f_j" unicode="ffj" 
 />
    <glyph glyph-name=".notdef" horiz-adv-x="517" 
d="M83 752h351v-842h-351v842zM114 722v-782h288v782h-288z" />
    <glyph glyph-name="space" unicode=" " horiz-adv-x="259" 
 />
    <glyph glyph-name="quotesingle" unicode="'" horiz-adv-x="187" 
d="M67 546c-6 58 -9.00098 89.667 -9.00098 95c0 10 3.33301 18.5 10 25.5s15.334 10.5 26.001 10.5c10 0 18.5 -3.5 25.5 -10.5s10.5 -15.5 10.5 -25.5c0 -5.33301 -3 -37 -9 -95s-10 -97.667 -12 -119h-30c-2 21.333 -6 61 -12 119z" />
    <glyph glyph-name="parenleft" unicode="(" horiz-adv-x="227" 
d="M80 11c-22.667 74.667 -34 152 -34 232s11.333 157.333 34 232s55.667 144.667 99 210l31 -22c-35.333 -72.667 -61.833 -140.667 -79.5 -204s-26.5 -135.333 -26.5 -216s8.83301 -152.667 26.5 -216s44.167 -131 79.5 -203l-31 -23
c-43.333 65.333 -76.333 135.333 -99 210z" />
    <glyph glyph-name="parenright" unicode=")" horiz-adv-x="227" 
d="M96.5 460c-17.667 63.333 -44.167 131 -79.5 203l31 22c43.333 -66 76.5 -136.333 99.5 -211s34.5 -151.667 34.5 -231s-11.5 -156.333 -34.5 -231s-56.167 -145 -99.5 -211l-31 23c35.333 71.333 61.833 138.833 79.5 202.5s26.5 135.834 26.5 216.501
c0 81.333 -8.83301 153.666 -26.5 216.999z" />
    <glyph glyph-name="asterisk" unicode="*" horiz-adv-x="335" 
d="M154 516l-98 -64l-19 33l104 53l-104 53l19 33l98 -64l-5 117h37l-6 -117l99 64l18 -33l-103 -53l103 -53l-18 -33l-99 64l6 -117h-37z" />
    <glyph glyph-name="plus" unicode="+" horiz-adv-x="496" 
d="M271 99h-45v217h-197v42h197v211h45v-211h196v-42h-196v-217z" />
    <glyph glyph-name="comma" unicode="," horiz-adv-x="219" 
d="M58 -98c16 10.667 29.334 24.833 40.001 42.5s16.667 34.167 18 49.5l-10 -1c-12 0 -21.833 4 -29.5 12s-11.5 18 -11.5 30c0 11.333 4.16699 21.333 12.5 30s18.5 13 30.5 13c14 0 26 -5.66699 36 -17s15 -27 15 -47c0 -26.667 -6.83301 -52.5 -20.5 -77.5
s-30.834 -44.833 -51.501 -59.5z" />
    <glyph glyph-name="hyphen" unicode="-" horiz-adv-x="300" 
d="M30 266h240v-48h-240v48z" />
    <glyph glyph-name="period" unicode="." horiz-adv-x="219" 
d="M78 65c8.66699 8.66699 19 13 31 13s22.5 -4.33301 31.5 -13s13.5 -18.667 13.5 -30c0 -12 -4.5 -22.5 -13.5 -31.5s-19.5 -13.5 -31.5 -13.5s-22.333 4.5 -31 13.5s-13 19.5 -13 31.5c0 11.333 4.33301 21.333 13 30z" />
    <glyph glyph-name="zero" unicode="0" horiz-adv-x="608" 
d="M83.5 497.5c17 52.333 44 95.335 81 129.002s83.833 50.5 140.5 50.5c56 0 102.5 -16.833 139.5 -50.5s64 -76.667 81 -129s25.5 -107.166 25.5 -164.499c0 -56.667 -8.5 -111.334 -25.5 -164.001s-44 -96 -81 -130s-83.5 -51 -139.5 -51c-56.667 0 -103.5 17 -140.5 51
s-64 77.167 -81 129.5s-25.5 107.166 -25.5 164.499s8.5 112.166 25.5 164.499zM445.5 539.002c-29.667 57.333 -76.5 86.001 -140.5 86.001c-64.667 0 -112 -28.667 -142 -86s-45 -126 -45 -206s15 -148.833 45 -206.5s77.333 -86.5 142 -86.5
c43.333 0 78.833 14.167 106.5 42.5s47.667 64.666 60 108.999s18.5 91.5 18.5 141.5c0 80 -14.833 148.667 -44.5 206z" />
    <glyph glyph-name="one" unicode="1" horiz-adv-x="308" 
d="M168 589l-107 -114l-35 37l147 155h52v-667h-57v589z" />
    <glyph glyph-name="three" unicode="3" horiz-adv-x="544" 
d="M71 133c19.333 -28 45.1689 -50.499 77.502 -67.499s68.833 -25.5 109.5 -25.5c51.333 0 92.166 12.667 122.499 38s45.5 60 45.5 104c0 45.333 -16.5 79.166 -49.5 101.499s-76.167 33.5 -129.5 33.5c-34.667 0 -55.334 -0.333008 -62.001 -1v54
c6.66699 -0.666992 27.334 -1 62.001 -1c48 0 88.167 10.667 120.5 32s48.5 53 48.5 95c0 40 -15.333 71.5 -46 94.5s-68.667 34.5 -114 34.5c-36.667 0 -69.334 -7 -98.001 -21s-55.667 -35.333 -81 -64l-36 36c25.333 30.667 56.5 55.167 93.5 73.5s78.5 27.5 124.5 27.5
c39.333 0 75.333 -7 108 -21s58.667 -34.167 78 -60.5s29 -57.833 29 -94.5c0 -46 -14.833 -82 -44.5 -108s-62.5 -42 -98.5 -48c22 -2 44.833 -9.5 68.5 -22.5s43.667 -31.667 60 -56s24.5 -53.5 24.5 -87.5c0 -36.667 -9 -69.5 -27 -98.5s-44 -51.667 -78 -68
s-74 -24.5 -120 -24.5c-52 0 -97.667 10.5 -137 31.5s-69.333 47.5 -90 79.5z" />
    <glyph glyph-name="four" unicode="4" horiz-adv-x="541" 
d="M351 182h-316v51l296 434h77v-433h98v-52h-98v-182h-57v182zM94 234h257v376z" />
    <glyph glyph-name="five" unicode="5" horiz-adv-x="582" 
d="M112 135c22 -31.333 48.166 -55.001 78.499 -71.001s66.5 -24 108.5 -24c31.333 0 59.833 7 85.5 21s45.667 33.333 60 58s21.5 52 21.5 82c0 50 -15.5 89.667 -46.5 119s-70.833 44 -119.5 44c-60.667 0 -114.667 -21.667 -162 -65l-43 18v350h385v-52h-328v-261
c18 18 41 32.833 69 44.5s58 17.5 90 17.5c38 0 73.333 -8.33301 106 -25s58.667 -41 78 -73s29 -70.333 29 -115c0 -43.333 -10 -81.166 -30 -113.499s-47.167 -57.333 -81.5 -75s-72.166 -26.5 -113.499 -26.5c-53.333 0 -98 9.33301 -134 28s-66.333 45.667 -91 81z" />
    <glyph glyph-name="six" unicode="6" horiz-adv-x="584" 
d="M84.5 502c17.667 52 45.668 94.168 84.001 126.501s86.5 48.5 144.5 48.5c41.333 0 76.166 -7.33301 104.499 -22s53.5 -35.667 75.5 -63l-34 -42c-17.333 24 -37.5 42.5 -60.5 55.5s-51.5 19.5 -85.5 19.5c-45.333 0 -82.833 -14 -112.5 -42
s-51.167 -64.167 -64.5 -108.5s-20 -91.833 -20 -142.5c0 -14 0.333008 -24.333 1 -31c16.667 27.333 43 52.666 79 75.999s74.667 35 116 35c63.333 0 115 -18.167 155 -54.5s60 -88.5 60 -156.5c0 -37.333 -9 -72.166 -27 -104.499s-44 -58.5 -78 -78.5
s-73.667 -30 -119 -30c-84 0 -145.833 32.667 -185.5 98s-59.5 147.666 -59.5 246.999c0 60.667 8.83301 117 26.5 169zM423.001 320.001c-30.667 27.333 -71.002 41.001 -121.002 41.001c-36 0 -70.5 -10.5 -103.5 -31.5s-59.167 -48.5 -78.5 -82.5
c4.66699 -54.667 21.834 -102.834 51.501 -144.501s72.834 -62.5 129.501 -62.5c36 0 66.667 8 92 24s44.333 36.333 57 61s19 49.667 19 75c0 52.667 -15.333 92.667 -46 120z" />
    <glyph glyph-name="eight" unicode="8" horiz-adv-x="571" 
d="M107 278.5c32 31 71.333 52.835 118 65.502c-44 12 -80.833 31.5 -110.5 58.5s-44.5 61.167 -44.5 102.5c0 37.333 10.333 69 31 95s47.334 45.333 80.001 58s67.667 19 105 19c36.667 0 71.5 -6.33301 104.5 -19s59.833 -32 80.5 -58s31 -57.667 31 -95
c0 -41.333 -14.833 -75.5 -44.5 -102.5s-66.5 -46.5 -110.5 -58.5c46.667 -12.667 85.834 -34.334 117.501 -65.001s47.5 -68 47.5 -112c0 -35.333 -9.83301 -66.5 -29.5 -93.5s-46.667 -48 -81 -63s-72.833 -22.5 -115.5 -22.5s-81.334 7.33301 -116.001 22
s-61.834 35.667 -81.501 63s-29.5 58.666 -29.5 93.999c0 43.333 16 80.5 48 111.5zM399 591.002c-30 22.667 -67.667 34 -113 34s-83 -11.333 -113 -34s-45 -53.334 -45 -92.001c0 -40 17.167 -70 51.5 -90s69.833 -33.667 106.5 -41c36.667 7.33301 72.167 21 106.5 41
s51.5 50 51.5 90c0 38.667 -15 69.334 -45 92.001zM424 249.002c-20.667 21.333 -44.334 37.668 -71.001 49.001s-49 18 -67 20c-18.667 -2 -41.167 -8.5 -67.5 -19.5s-49.833 -27.333 -70.5 -49s-31 -47.834 -31 -78.501c0 -26 7.83301 -49 23.5 -69
s36.334 -35.333 62.001 -46s53.5 -16 83.5 -16c29.333 0 57 5.33301 83 16s46.833 26 62.5 46s23.5 43 23.5 69c0 30.667 -10.333 56.667 -31 78z" />
    <glyph glyph-name="A" unicode="A" horiz-adv-x="647" 
d="M501 164h-355l-67 -164h-64l273 667h71l273 -667h-64zM164 216h319l-160 395z" />
    <glyph glyph-name="C" unicode="C" horiz-adv-x="672" 
d="M224 31.5c-51.333 29 -91.833 69.833 -121.5 122.5s-44.5 112.334 -44.5 179.001s14.833 126.334 44.5 179.001s70.167 93.5 121.5 122.5s108 43.5 170 43.5c100 0 181.667 -39.333 245 -118l-48 -31c-21.333 29.333 -49.5 52.833 -84.5 70.5s-72.5 26.5 -112.5 26.5
c-51.333 0 -98 -12.333 -140 -37s-75.167 -59.334 -99.5 -104.001s-36.5 -95.334 -36.5 -152.001c0 -56 12.167 -106.333 36.5 -151s57.5 -79.5 99.5 -104.5s88.667 -37.5 140 -37.5c40 0 77.5 8.83301 112.5 26.5s63.167 41.167 84.5 70.5l48 -30
c-64 -79.333 -145.667 -119 -245 -119c-62 0 -118.667 14.5 -170 43.5z" />
    <glyph glyph-name="I" unicode="I" horiz-adv-x="223" 
d="M83 667h57v-667h-57v667z" />
    <glyph glyph-name="P" unicode="P" horiz-adv-x="571" 
d="M83 667l250.002 0.00195312c41.333 0 77.166 -8.83301 107.499 -26.5s53.5 -41.334 69.5 -71.001s24 -62.167 24 -97.5s-8 -67.833 -24 -97.5s-39.333 -53.334 -70 -71.001s-66.334 -26.5 -107.001 -26.5h-193v-277h-57v667zM433.502 575.002
c-27 26.667 -62.5 40 -106.5 40h-187v-286h187c44 0 79.5 13.333 106.5 40s40.5 61 40.5 103s-13.5 76.333 -40.5 103z" />
    <glyph glyph-name="T" unicode="T" horiz-adv-x="564" 
d="M253 615h-218v52h494v-52h-218v-615h-58v615z" />
    <glyph glyph-name="U" unicode="U" horiz-adv-x="686" 
d="M83 667h58v-410c0 -68 17.5 -121.167 52.5 -159.5s84.833 -57.5 149.5 -57.5c65.333 0 115.333 19 150 57s52 91.333 52 160v410h58v-411c0 -84 -22.167 -149.667 -66.5 -197s-108.833 -71 -193.5 -71c-84 0 -148.333 23.833 -193 71.5s-67 113.167 -67 196.5v411z" />
    <glyph glyph-name="W" unicode="W" horiz-adv-x="867" 
d="M434 573l-160 -573h-64l-191 667h64l161 -587l164 587h52l163 -587l161 587h64l-190 -667h-64z" />
    <glyph glyph-name="bracketleft" unicode="[" horiz-adv-x="228" 
d="M37 678h174v-43h-130v-782h130v-43h-174v868z" />
    <glyph glyph-name="backslash" unicode="\" horiz-adv-x="282" 
d="M45 687l237 -707h-45l-237 707h45z" />
    <glyph glyph-name="bracketright" unicode="]" horiz-adv-x="228" 
d="M17 -147h130v782h-130v43h174v-868h-174v43z" />
    <glyph glyph-name="asciicircum" unicode="^" horiz-adv-x="428" 
d="M214 626l-147 -293h-48l174 334h42l174 -334h-48z" />
    <glyph glyph-name="underscore" unicode="_" horiz-adv-x="564" 
d="M-3 -40h570v-43h-570v43z" />
    <glyph glyph-name="grave" unicode="`" horiz-adv-x="216" 
d="M0 700h62l154 -144h-44z" />
    <glyph glyph-name="a" unicode="a" horiz-adv-x="521" 
d="M388 57c-42 -46 -96.667 -68.9971 -164 -68.9971c-28.667 0 -56 6.33301 -82 19s-47 31.167 -63 55.5s-24 53.166 -24 86.499s8 62.166 24 86.499s37 42.666 63 54.999s53.333 18.5 82 18.5c68 0 122.667 -23 164 -69v98c0 34.667 -12.333 61.834 -37 81.501
s-55.667 29.5 -93 29.5c-30 0 -57.167 -5.66699 -81.5 -17s-47.5 -29.333 -69.5 -54l-29 36c25.333 27.333 52.833 47.666 82.5 60.999s64.167 20 103.5 20c52 0 94.333 -13 127 -39s49 -64.667 49 -116v-340h-52v57zM388 201.003c-16.667 22 -37.833 38.6689 -63.5 50.002
s-53.167 17 -82.5 17c-39.333 0 -71.166 -11.333 -95.499 -34s-36.5 -51.334 -36.5 -86.001s12.167 -63.167 36.5 -85.5s56.166 -33.5 95.499 -33.5c30 0 57.667 5.66699 83 17s46.333 27.666 63 48.999v106z" />
    <glyph glyph-name="b" unicode="b" horiz-adv-x="571" 
d="M81 667h52.002v-262c20 28 44.667 50 74 66s60.666 24 93.999 24c42.667 0 80.334 -10.5 113.001 -31.5s58 -50.667 76 -89s27 -82.833 27 -133.5s-9 -95.167 -27 -133.5s-43.333 -67.833 -76 -88.5s-70.334 -31 -113.001 -31c-34.667 0 -66.834 8.33301 -96.501 25
s-53.5 38 -71.5 64v-77h-52v667zM199.002 60c29.333 -16.667 60.334 -25.001 93.001 -25.001c52.667 0 94 19.333 124 58s45 88 45 148c0 60.667 -15 110.334 -45 149.001s-71.333 58 -124 58c-32 0 -62.833 -8.66699 -92.5 -26s-51.834 -38 -66.501 -62v-239
c14.667 -24 36.667 -44.333 66 -61z" />
    <glyph glyph-name="c" unicode="c" horiz-adv-x="494" 
d="M82.5 370c19.667 38.667 47.334 69.167 83.001 91.5s76.5 33.5 122.5 33.5c39.333 0 72.333 -7 99 -21s50.667 -34.333 72 -61l-36 -32c-32.667 44.667 -76.667 67 -132 67c-36.667 0 -68.834 -9 -96.501 -27s-48.834 -42.667 -63.501 -74s-22 -66.333 -22 -105
s7.33301 -73.834 22 -105.501s35.834 -56.5 63.501 -74.5s59.834 -27 96.501 -27c54.667 0 98.667 22.667 132 68l36 -32c-21.333 -27.333 -45.333 -48 -72 -62s-59.667 -21 -99 -21c-46 0 -86.833 11.167 -122.5 33.5s-63.334 53 -83.001 92s-29.5 81.833 -29.5 128.5
s9.83301 89.334 29.5 128.001z" />
    <glyph glyph-name="d" unicode="d" horiz-adv-x="571" 
d="M437 77c-18 -26 -41.8311 -47.333 -71.498 -64s-61.834 -25 -96.501 -25c-42.667 0 -80.334 10.333 -113.001 31s-58 50.167 -76 88.5s-27 82.833 -27 133.5s9 95.167 27 133.5s43.5 68 76.5 89s70.5 31.5 112.5 31.5c34 0 65.5 -8 94.5 -24s53.5 -38 73.5 -66v262h53
v-667h-53v77zM437.002 360c-14.667 24.667 -36.667 45.5 -66 62.5s-60.333 25.5 -93 25.5c-52 0 -93.167 -19.5 -123.5 -58.5s-45.5 -88.5 -45.5 -148.5s15.167 -109.333 45.5 -148s71.5 -58 123.5 -58c32.667 0 63.667 8.33301 93 25s51.333 37 66 61v239z" />
    <glyph glyph-name="e" unicode="e" horiz-adv-x="567" 
d="M83.5 369c20.333 38.667 48.1699 69.333 83.5029 92s75 34 119 34c47.333 0 88.166 -11.5 122.499 -34.5s60.5 -53.833 78.5 -92.5s27 -81.667 27 -129v-14h-404c2 -35.333 10.833 -67.666 26.5 -96.999s37.5 -52.5 65.5 -69.5s60.333 -25.5 97 -25.5
c30.667 0 59.5 5.66699 86.5 17s50.833 28 71.5 50l27 -34c-50 -52 -113 -78 -189 -78c-46.667 0 -88.334 10.833 -125.001 32.5s-65.334 51.667 -86.001 90s-31 82.166 -31 131.499c0 46 10.167 88.333 30.5 127zM192.004 422.499
c-26 -18.333 -45.833 -41.498 -59.5 -69.498s-21.167 -57 -22.5 -87h351c-0.666992 29.333 -7.5 58.166 -20.5 86.499s-32.667 51.666 -59 69.999s-58.5 27.5 -96.5 27.5c-36 0 -67 -9.16699 -93 -27.5z" />
    <glyph glyph-name="f" unicode="f" horiz-adv-x="265" 
d="M98 437l-80 0.000976562v46h80v44c0 47.333 11.667 84.166 35 110.499s55.333 39.5 96 39.5c26 0 47.667 -5 65 -15l-16 -41c-12.667 7.33301 -27.334 11 -44.001 11c-27.333 0 -48.166 -9 -62.499 -27s-21.5 -44 -21.5 -78v-44h98v-46h-98v-437h-52v437z" />
    <glyph glyph-name="g" unicode="g" horiz-adv-x="570" 
d="M112 -83c20.667 -24.667 43.333 -42.168 68 -52.501s55.334 -15.5 92.001 -15.5c48 0 87.5 12.833 118.5 38.5s46.5 64.5 46.5 116.5v76c-18 -26 -41.833 -47.5 -71.5 -64.5s-61.834 -25.5 -96.501 -25.5c-42.667 0 -80.334 10.333 -113.001 31s-58 50 -76 88
s-27 82.333 -27 133c0 50 9 94.167 27 132.5s43.333 68 76 89s70.334 31.5 113.001 31.5c34 0 65.5 -8 94.5 -24s53.5 -38 73.5 -66v78h53v-478c0 -69.333 -20.167 -120.166 -60.5 -152.499s-92.833 -48.5 -157.5 -48.5c-42 0 -77.333 5.16699 -106 15.5
s-56.667 29.5 -84 57.5zM436.999 359.999c-14.667 24.667 -36.667 45.5 -66 62.5s-60.333 25.5 -93 25.5c-52 0 -93.167 -19.333 -123.5 -58s-45.5 -88 -45.5 -148s15.167 -109.167 45.5 -147.5s71.5 -57.5 123.5 -57.5c32.667 0 63.667 8.5 93 25.5s51.333 37.833 66 62.5
v235z" />
    <glyph glyph-name="h" unicode="h" horiz-adv-x="540" 
d="M407 329c0 44 -10 74.833 -30 92.5s-49 26.5 -87 26.5c-30 0 -59.667 -8 -89 -24s-52 -35.667 -68 -59v-365h-52v667h52v-257c19.333 22.667 45 42.5 77 59.5s64.333 25.5 97 25.5c50 0 87.833 -12.5 113.5 -37.5s38.5 -64.167 38.5 -117.5v-340h-52v329z" />
    <glyph glyph-name="i" unicode="i" horiz-adv-x="214" 
d="M79 577c-8 8 -12 17.333 -12 28s4 20 12 28s17.333 12 28 12c11.333 0 20.833 -3.83301 28.5 -11.5s11.5 -17.167 11.5 -28.5c0 -10.667 -3.83301 -20 -11.5 -28s-17.167 -12 -28.5 -12c-10.667 0 -20 4 -28 12zM81 483h52v-483h-52v483z" />
    <glyph glyph-name="j" unicode="j" horiz-adv-x="214" 
d="M79 577c-8 8 -12 17.333 -12 28s4 20 12 28s17.333 12 28 12c11.333 0 20.833 -3.83301 28.5 -11.5s11.5 -17.167 11.5 -28.5c0 -10.667 -3.83301 -20 -11.5 -28s-17.167 -12 -28.5 -12c-10.667 0 -20 4 -28 12zM133 -62c0 -44 -11.168 -77.333 -33.501 -100
s-53.833 -34 -94.5 -34c-19.333 0 -37.666 2.66699 -54.999 8l10 45c14 -4.66699 27.667 -7 41 -7c24.667 0 44.167 7.16699 58.5 21.5s21.5 36.5 21.5 66.5v545h52v-545z" />
    <glyph glyph-name="k" unicode="k" horiz-adv-x="505" 
d="M223 230l-90 -85v-145h-52v667h52v-460l285 276h69l-225 -218l224 -265h-70z" />
    <glyph glyph-name="l" unicode="l" horiz-adv-x="214" 
d="M81 667h52v-667h-52v667z" />
    <glyph glyph-name="m" unicode="m" horiz-adv-x="789" 
d="M656 338c0 73.333 -32.332 110 -96.999 110c-25.333 0 -51.166 -8 -77.499 -24s-46.5 -35.333 -60.5 -58v-366h-53v338c0 73.333 -32.333 110 -97 110c-24.667 0 -50 -8.16699 -76 -24.5s-46.667 -35.833 -62 -58.5v-365h-52v483h52v-73c12 19.333 33.167 38.333 63.5 57
s61.166 28 92.499 28c35.333 0 63.666 -8.66699 84.999 -26s35.333 -39 42 -65c14.667 24 37 45.167 67 63.5s61 27.5 93 27.5c88 0 132 -49 132 -147v-348h-52v338z" />
    <glyph glyph-name="n" unicode="n" horiz-adv-x="540" 
d="M407 327c0 44 -10 75.167 -30 93.5s-49 27.5 -87 27.5c-30 0 -59.667 -8 -89 -24s-52 -35.667 -68 -59v-365h-52v483h52v-73c19.333 22.667 45 42.5 77 59.5s64.333 25.5 97 25.5c101.333 0 152 -52.333 152 -157v-338h-52v327z" />
    <glyph glyph-name="o" unicode="o" horiz-adv-x="571" 
d="M163.5 21.5c-35 22.333 -62.167 52.833 -81.5 91.5s-29 81.667 -29 129s9.66699 90.166 29 128.499s46.5 68.666 81.5 90.999s75.5 33.5 121.5 33.5c46.667 0 87.667 -11.167 123 -33.5s62.5 -52.666 81.5 -90.999s28.5 -81.166 28.5 -128.499s-9.5 -90.333 -28.5 -129
s-46.167 -69.167 -81.5 -91.5s-76.333 -33.5 -123 -33.5c-46 0 -86.5 11.167 -121.5 33.5zM380 63.5c26.667 19 47 44.333 61 76s21 65.834 21 102.501s-7 70.667 -21 102s-34.333 56.5 -61 75.5s-58.334 28.5 -95.001 28.5c-36 0 -67.333 -9.5 -94 -28.5
s-47 -44.167 -61 -75.5s-21 -65.333 -21 -102s7 -70.834 21 -102.501s34.333 -57 61 -76s58 -28.5 94 -28.5c36.667 0 68.334 9.5 95.001 28.5z" />
    <glyph glyph-name="p" unicode="p" horiz-adv-x="570" 
d="M81 -184l-0.00195312 667h52v-76c18 26 41.833 47.167 71.5 63.5s61.834 24.5 96.501 24.5c42.667 0 80.334 -10.333 113.001 -31s58 -50.167 76 -88.5s27 -82.833 27 -133.5s-9 -95.167 -27 -133.5s-43.333 -68 -76 -89s-70.334 -31.5 -113.001 -31.5
c-33.333 0 -64.666 8 -93.999 24s-54 38 -74 66v-262h-52zM415.998 390c-30 38.667 -71.334 57.999 -124.001 57.999c-32.667 0 -63.667 -8.33301 -93 -25s-51.333 -37 -66 -61v-239c14.667 -24 36.834 -44.667 66.501 -62s60.5 -26 92.5 -26c52.667 0 94 19.333 124 58
s45 88.334 45 149.001c0 60 -15 109.333 -45 148z" />
    <glyph glyph-name="q" unicode="q" horiz-adv-x="570" 
d="M437 -184l-0.000976562 262c-20 -28 -44.5 -50 -73.5 -66s-60.5 -24 -94.5 -24c-42.667 0 -80.334 10.5 -113.001 31.5s-58 50.667 -76 89s-27 82.833 -27 133.5s9 95.167 27 133.5s43.333 67.833 76 88.5s70.334 31 113.001 31c34.667 0 66.834 -8.16699 96.501 -24.5
s53.5 -37.5 71.5 -63.5v76h53v-667h-53zM436.999 362c-14.667 24 -36.668 44.333 -66.001 61s-60.333 25 -93 25c-52 0 -93.167 -19.333 -123.5 -58s-45.5 -88 -45.5 -148s15.167 -109.5 45.5 -148.5s71.5 -58.5 123.5 -58.5c32 0 62.833 8.66699 92.5 26
s51.834 38 66.501 62v239z" />
    <glyph glyph-name="r" unicode="r" horiz-adv-x="317" 
d="M81 483l52 -0.000976562v-83c22 28.667 46.667 51.334 74 68.001s57 25 89 25v-57c-6 1.33301 -14.667 2 -26 2c-24 0 -50 -9 -78 -27s-47.667 -37.667 -59 -59v-352h-52v483z" />
    <glyph glyph-name="s" unicode="s" horiz-adv-x="459" 
d="M70 103c16.667 -20.667 38.665 -37.666 65.998 -50.999s57.333 -20 90 -20c40 0 71.5 8.83301 94.5 26.5s34.5 40.834 34.5 69.501c0 19.333 -6 35.166 -18 47.499s-27 21.833 -45 28.5s-42 14 -72 22c-37.333 9.33301 -67 18.166 -89 26.499s-41 21.166 -57 38.499
s-24 40.666 -24 69.999c0 38 15.5 69.833 46.5 95.5s72.833 38.5 125.5 38.5c72.667 0 130.334 -23.667 173.001 -71l-29 -37c-14.667 19.333 -34.5 34.833 -59.5 46.5s-53.167 17.5 -84.5 17.5c-36.667 0 -66 -8.16699 -88 -24.5s-33 -37.166 -33 -62.499
c0 -17.333 5.66699 -31.333 17 -42s25.333 -19 42 -25s40 -12.667 70 -20c38 -9.33301 68.5 -18.666 91.5 -27.999s42.833 -23.5 59.5 -42.5s25 -44.5 25 -76.5c0 -41.333 -15.667 -75.333 -47 -102s-76 -40 -134 -40c-39.333 0 -74.166 6.16699 -104.499 18.5
s-57.5 31.5 -81.5 57.5z" />
    <glyph glyph-name="t" unicode="t" horiz-adv-x="275" 
d="M115 15.5c-16 18.333 -23.999 44.167 -23.999 77.5v344h-80v46h80v132h53v-132h98v-46h-98v-336c0 -20 4.16699 -36 12.5 -48s20.833 -18 37.5 -18c10.667 0 20.834 2.16699 30.501 6.5s17.5 9.83301 23.5 16.5l20 -40c-10.667 -10 -22.334 -17.5 -35.001 -22.5
s-28.334 -7.5 -47.001 -7.5c-31.333 0 -55 9.16699 -71 27.5z" />
    <glyph glyph-name="u" unicode="u" horiz-adv-x="540" 
d="M407 71c-22 -24 -48.332 -43.832 -78.999 -59.499s-62.334 -23.5 -95.001 -23.5c-50.667 0 -88.667 12.5 -114 37.5s-38 64.167 -38 117.5v340h52v-328c0 -44.667 10 -75.834 30 -93.501s49 -26.5 87 -26.5c30 0 59.5 7.66699 88.5 23s51.833 34.333 68.5 57v368h52v-483
h-52v71z" />
    <glyph glyph-name="v" unicode="v" horiz-adv-x="481" 
d="M7 483h58l176 -422l174 422h59l-204 -483h-59z" />
    <glyph glyph-name="w" unicode="w" horiz-adv-x="719" 
d="M360 413l-136 -413h-50l-157 483h56l128 -410l136 410h45l136 -410l128 410h56l-157 -483h-50z" />
    <glyph glyph-name="x" unicode="x" horiz-adv-x="479" 
d="M240 213l-161 -213h-62l191 248l-180 235h62l150 -199l149 199h62l-180 -235l191 -248h-62z" />
    <glyph glyph-name="y" unicode="y" horiz-adv-x="481" 
d="M78 -147c8 -1.33301 15.333 -2 22 -2c16.667 0 30.667 4.33301 42 13s21.666 24 30.999 46l38 86l-204 487h58l176 -422l174 422h59l-250 -589c-25.333 -60 -66.666 -90 -123.999 -90c-18.667 0 -35.667 2.33301 -51 7l9 48c5.33301 -2.66699 12 -4.66699 20 -6z" />
    <glyph glyph-name="z" unicode="z" horiz-adv-x="469" 
d="M56 43l286 394h-286v46h353v-42l-289 -395h293v-46h-357v43z" />
    <glyph glyph-name="quoteright" unicode="&#x2019;" horiz-adv-x="219" 
d="M144 660c10 -11.333 15.001 -27.001 15.001 -47.001c0 -26.667 -6.83301 -52.5 -20.5 -77.5s-30.834 -44.5 -51.501 -58.5l-29 24c16 10.667 29.333 24.834 40 42.501s16.667 34.5 18 50.5c-0.666992 -0.666992 -2 -1.16699 -4 -1.5s-4 -0.5 -6 -0.5
c-12 0 -21.833 4 -29.5 12s-11.5 18 -11.5 30c0 11.333 4.16699 21.333 12.5 30s18.5 13 30.5 13c14 0 26 -5.66699 36 -17z" />
    <glyph glyph-name="quotesinglbase" unicode="&#x201a;" horiz-adv-x="219" 
d="M58 -98c16 10.667 29.334 24.833 40.001 42.5s16.667 34.167 18 49.5l-10 -1c-12 0 -21.833 4 -29.5 12s-11.5 18 -11.5 30c0 11.333 4.16699 21.333 12.5 30s18.5 13 30.5 13c14 0 26 -5.66699 36 -17s15 -27 15 -47c0 -26.667 -6.83301 -52.5 -20.5 -77.5
s-30.834 -44.833 -51.501 -59.5z" />
    <glyph glyph-name="quotereversed" unicode="&#x201b;" horiz-adv-x="219" 
d="M141.5 664c8.33301 -8.66699 12.501 -18.666 12.501 -29.999c0 -12 -3.83301 -22 -11.5 -30s-17.5 -12 -29.5 -12c-6 0 -9.66699 0.666992 -11 2c1.33301 -16 7.5 -32.833 18.5 -50.5s24.5 -31.834 40.5 -42.501l-29 -24c-20.667 14 -37.834 33.5 -51.501 58.5
s-20.5 50.833 -20.5 77.5c0 20 5 35.667 15 47s22 17 36 17c12 0 22.167 -4.33301 30.5 -13z" />
    <glyph glyph-name="quotedblleft" unicode="&#x201c;" horiz-adv-x="360" 
d="M161 653c-16 -11.333 -29.667 -25.6699 -41 -43.0029s-17.333 -34 -18 -50c1.33301 1.33301 5 2 11 2c11.333 0 20.833 -4.16699 28.5 -12.5s11.5 -18.166 11.5 -29.499c0 -12 -4.16699 -22.167 -12.5 -30.5s-18.5 -12.5 -30.5 -12.5c-14 0 -25.833 5.66699 -35.5 17
s-14.5 27 -14.5 47c0 26.667 6.66699 52.334 20 77.001s30.333 44.334 51 59.001zM303 652.996c-16 -11.333 -29.667 -25.6699 -41 -43.0029s-17.333 -34 -18 -50c1.33301 1.33301 5 2 11 2c11.333 0 20.833 -4.16699 28.5 -12.5s11.5 -18.166 11.5 -29.499
c0 -12 -4.16699 -22.167 -12.5 -30.5s-18.5 -12.5 -30.5 -12.5c-14 0 -25.833 5.66699 -35.5 17s-14.5 27 -14.5 47c0 26.667 6.66699 52.334 20 77.001s30.333 44.334 51 59.001z" />
    <glyph glyph-name="quotedblright" unicode="&#x201d;" horiz-adv-x="360" 
d="M144 660c10 -11.333 15.001 -27.001 15.001 -47.001c0 -26.667 -6.83301 -52.5 -20.5 -77.5s-30.834 -44.5 -51.501 -58.5l-29 24c16 10.667 29.333 24.834 40 42.501s16.667 34.5 18 50.5c-0.666992 -0.666992 -2 -1.16699 -4 -1.5s-4 -0.5 -6 -0.5
c-12 0 -21.833 4 -29.5 12s-11.5 18 -11.5 30c0 11.333 4.16699 21.333 12.5 30s18.5 13 30.5 13c14 0 26 -5.66699 36 -17zM285.501 659.999c9.66699 -11.333 14.5 -26.999 14.5 -46.999c0 -27.333 -6.66699 -53.333 -20 -78s-30.333 -44 -51 -58l-30 24
c16 11.333 29.667 25.666 41 42.999s17.333 34 18 50c-1.33301 -1.33301 -5 -2 -11 -2c-11.333 0 -20.833 4 -28.5 12s-11.5 18 -11.5 30s4.16699 22.167 12.5 30.5s18.5 12.5 30.5 12.5c14 0 25.833 -5.66699 35.5 -17z" />
    <glyph glyph-name=".null" 
 />
    <glyph glyph-name="nonmarkingreturn" 
 />
    <glyph glyph-name="NULL" 
 />
    <glyph glyph-name="uni00A0" 
 />
    <glyph glyph-name="uni2009" 
 />
    <glyph glyph-name="uni200A" 
 />
    <glyph glyph-name="uni2001" 
 />
    <glyph glyph-name="uni2003" 
 />
    <glyph glyph-name="uni2000" 
 />
    <glyph glyph-name="uni2002" 
 />
    <glyph glyph-name="uni2005" 
 />
    <glyph glyph-name="uni2006" 
 />
    <glyph glyph-name="uni2004" 
 />
    <glyph glyph-name="uni2007" 
 />
    <glyph glyph-name="uni2008" 
 />
    <glyph glyph-name="zero.pzero" 
 />
    <glyph glyph-name="two" 
 />
    <glyph glyph-name="seven" 
 />
    <glyph glyph-name="nine" 
 />
    <glyph glyph-name="zero.tnum" 
 />
    <glyph glyph-name="zero.tzero" 
 />
    <glyph glyph-name="one.tnum" 
 />
    <glyph glyph-name="one.tnum_alt" 
 />
    <glyph glyph-name="two.tnum" 
 />
    <glyph glyph-name="three.tnum" 
 />
    <glyph glyph-name="four.tnum" 
 />
    <glyph glyph-name="five.tnum" 
 />
    <glyph glyph-name="six.tnum" 
 />
    <glyph glyph-name="seven.tnum" 
 />
    <glyph glyph-name="eight.tnum" 
 />
    <glyph glyph-name="nine.tnum" 
 />
    <glyph glyph-name="zero.tonum" 
 />
    <glyph glyph-name="zero.tonumzero" 
 />
    <glyph glyph-name="one.tonum" 
 />
    <glyph glyph-name="two.tonum" 
 />
    <glyph glyph-name="three.tonum" 
 />
    <glyph glyph-name="four.tonum" 
 />
    <glyph glyph-name="five.tonum" 
 />
    <glyph glyph-name="six.tonum" 
 />
    <glyph glyph-name="seven.tonum" 
 />
    <glyph glyph-name="eight.tonum" 
 />
    <glyph glyph-name="nine.tonum" 
 />
    <glyph glyph-name="zero.onum" 
 />
    <glyph glyph-name="zero.onumzero" 
 />
    <glyph glyph-name="one.onum" 
 />
    <glyph glyph-name="two.onum" 
 />
    <glyph glyph-name="three.onum" 
 />
    <glyph glyph-name="four.onum" 
 />
    <glyph glyph-name="five.onum" 
 />
    <glyph glyph-name="six.onum" 
 />
    <glyph glyph-name="seven.onum" 
 />
    <glyph glyph-name="eight.onum" 
 />
    <glyph glyph-name="nine.onum" 
 />
    <glyph glyph-name="B" 
 />
    <glyph glyph-name="D" 
 />
    <glyph glyph-name="E" 
 />
    <glyph glyph-name="F" 
 />
    <glyph glyph-name="G" 
 />
    <glyph glyph-name="G.alt1" 
 />
    <glyph glyph-name="H" 
 />
    <glyph glyph-name="J" 
 />
    <glyph glyph-name="K" 
 />
    <glyph glyph-name="L" 
 />
    <glyph glyph-name="M" 
 />
    <glyph glyph-name="N" 
 />
    <glyph glyph-name="O" 
 />
    <glyph glyph-name="Q" 
 />
    <glyph glyph-name="R" 
 />
    <glyph glyph-name="S" 
 />
    <glyph glyph-name="V" 
 />
    <glyph glyph-name="X" 
 />
    <glyph glyph-name="Y" 
 />
    <glyph glyph-name="Z" 
 />
    <glyph glyph-name="a.alt1" 
 />
    <glyph glyph-name="f.alt1" horiz-adv-x="265" 
d="M98 437l-80 0.000976562v46h80v44c0 47.333 11.667 84.166 35 110.499s55.333 39.5 96 39.5c26 0 47.667 -5 65 -15l-16 -41c-12.667 7.33301 -27.334 11 -44.001 11c-27.333 0 -48.166 -9 -62.499 -27s-21.5 -44 -21.5 -78v-44h98v-46h-98v-437h-52v437z" />
    <glyph glyph-name="l.alt1" 
 />
    <glyph glyph-name="y.alt1" 
 />
    <glyph glyph-name="A.smcp" 
 />
    <glyph glyph-name="B.smcp" 
 />
    <glyph glyph-name="C.smcp" 
 />
    <glyph glyph-name="D.smcp" 
 />
    <glyph glyph-name="E.smcp" 
 />
    <glyph glyph-name="F.smcp" 
 />
    <glyph glyph-name="G.smcp" 
 />
    <glyph glyph-name="G.smcp.alt1" 
 />
    <glyph glyph-name="H.smcp" 
 />
    <glyph glyph-name="I.smcp" 
 />
    <glyph glyph-name="J.smcp" 
 />
    <glyph glyph-name="K.smcp" 
 />
    <glyph glyph-name="L.smcp" 
 />
    <glyph glyph-name="M.smcp" 
 />
    <glyph glyph-name="N.smcp" 
 />
    <glyph glyph-name="O.smcp" 
 />
    <glyph glyph-name="P.smcp" 
 />
    <glyph glyph-name="Q.smcp" 
 />
    <glyph glyph-name="R.smcp" 
 />
    <glyph glyph-name="S.smcp" 
 />
    <glyph glyph-name="T.smcp" 
 />
    <glyph glyph-name="U.smcp" 
 />
    <glyph glyph-name="V.smcp" 
 />
    <glyph glyph-name="W.smcp" 
 />
    <glyph glyph-name="X.smcp" 
 />
    <glyph glyph-name="Y.smcp" 
 />
    <glyph glyph-name="Z.smcp" 
 />
    <glyph glyph-name="Aacute" 
 />
    <glyph glyph-name="Abreve" 
 />
    <glyph glyph-name="Acircumflex" 
 />
    <glyph glyph-name="Adieresis" 
 />
    <glyph glyph-name="Agrave" 
 />
    <glyph glyph-name="Amacron" 
 />
    <glyph glyph-name="Aogonek" 
 />
    <glyph glyph-name="Aring" 
 />
    <glyph glyph-name="Aringacute" 
 />
    <glyph glyph-name="Atilde" 
 />
    <glyph glyph-name="uni1EA0" 
 />
    <glyph glyph-name="uni1EA2" 
 />
    <glyph glyph-name="uni1EA4" 
 />
    <glyph glyph-name="uni1EAC" 
 />
    <glyph glyph-name="uni1EA6" 
 />
    <glyph glyph-name="uni1EA8" 
 />
    <glyph glyph-name="uni1EAE" 
 />
    <glyph glyph-name="uni1EAA" 
 />
    <glyph glyph-name="uni1EB0" 
 />
    <glyph glyph-name="uni1EB2" 
 />
    <glyph glyph-name="uni1EB4" 
 />
    <glyph glyph-name="uni1EB6" 
 />
    <glyph glyph-name="AE" 
 />
    <glyph glyph-name="AEacute" 
 />
    <glyph glyph-name="uni1E02" 
 />
    <glyph glyph-name="Cacute" 
 />
    <glyph glyph-name="Ccedilla" 
 />
    <glyph glyph-name="Ccircumflex" 
 />
    <glyph glyph-name="Cdotaccent" 
 />
    <glyph glyph-name="Ccaron" 
 />
    <glyph glyph-name="Dcaron" 
 />
    <glyph glyph-name="Dcroat" 
 />
    <glyph glyph-name="uni1E0A" 
 />
    <glyph glyph-name="Eacute" 
 />
    <glyph glyph-name="Ebreve" 
 />
    <glyph glyph-name="Ecircumflex" 
 />
    <glyph glyph-name="Edieresis" 
 />
    <glyph glyph-name="Edotaccent" 
 />
    <glyph glyph-name="Egrave" 
 />
    <glyph glyph-name="Emacron" 
 />
    <glyph glyph-name="Eogonek" 
 />
    <glyph glyph-name="Ecaron" 
 />
    <glyph glyph-name="uni1EB8" 
 />
    <glyph glyph-name="uni1EBA" 
 />
    <glyph glyph-name="uni1EBC" 
 />
    <glyph glyph-name="uni1EBE" 
 />
    <glyph glyph-name="uni1EC0" 
 />
    <glyph glyph-name="uni1EC2" 
 />
    <glyph glyph-name="uni1EC4" 
 />
    <glyph glyph-name="uni1EC6" 
 />
    <glyph glyph-name="uni1E1E" 
 />
    <glyph glyph-name="Gcircumflex" 
 />
    <glyph glyph-name="Gbreve" 
 />
    <glyph glyph-name="Gdotaccent" 
 />
    <glyph glyph-name="uni0122" 
 />
    <glyph glyph-name="Gcaron" 
 />
    <glyph glyph-name="Gcircumflex.alt1" 
 />
    <glyph glyph-name="Gbreve.alt1" 
 />
    <glyph glyph-name="Gdotaccent.alt1" 
 />
    <glyph glyph-name="Gcommaaccent.alt1" 
 />
    <glyph glyph-name="Gcaron.alt1" 
 />
    <glyph glyph-name="Hbar" 
 />
    <glyph glyph-name="Hcircumflex" 
 />
    <glyph glyph-name="uni1E22" 
 />
    <glyph glyph-name="Iacute" 
 />
    <glyph glyph-name="Ibreve" 
 />
    <glyph glyph-name="Icircumflex" 
 />
    <glyph glyph-name="Idieresis" 
 />
    <glyph glyph-name="Idotaccent" 
 />
    <glyph glyph-name="Igrave" 
 />
    <glyph glyph-name="Imacron" 
 />
    <glyph glyph-name="Iogonek" 
 />
    <glyph glyph-name="Itilde" 
 />
    <glyph glyph-name="uni1EC8" 
 />
    <glyph glyph-name="uni1ECA" 
 />
    <glyph glyph-name="IJ" 
 />
    <glyph glyph-name="Iacute_J.loclNLD" 
 />
    <glyph glyph-name="Jcircumflex" 
 />
    <glyph glyph-name="uni0136" 
 />
    <glyph glyph-name="Lacute" 
 />
    <glyph glyph-name="Lcaron" 
 />
    <glyph glyph-name="uni013B" 
 />
    <glyph glyph-name="Ldot" 
 />
    <glyph glyph-name="Lslash" 
 />
    <glyph glyph-name="Nacute" 
 />
    <glyph glyph-name="Ncaron" 
 />
    <glyph glyph-name="uni0145" 
 />
    <glyph glyph-name="Ntilde" 
 />
    <glyph glyph-name="uni019D" 
 />
    <glyph glyph-name="Eng" 
 />
    <glyph glyph-name="Oacute" 
 />
    <glyph glyph-name="Obreve" 
 />
    <glyph glyph-name="Ocircumflex" 
 />
    <glyph glyph-name="Odieresis" 
 />
    <glyph glyph-name="Ograve" 
 />
    <glyph glyph-name="Ohungarumlaut" 
 />
    <glyph glyph-name="Omacron" 
 />
    <glyph glyph-name="Oslash" 
 />
    <glyph glyph-name="Oslashacute" 
 />
    <glyph glyph-name="Otilde" 
 />
    <glyph glyph-name="uni01EA" 
 />
    <glyph glyph-name="uni1ECC" 
 />
    <glyph glyph-name="uni1ECE" 
 />
    <glyph glyph-name="uni1ED0" 
 />
    <glyph glyph-name="uni1ED2" 
 />
    <glyph glyph-name="uni1ED4" 
 />
    <glyph glyph-name="uni1ED6" 
 />
    <glyph glyph-name="uni1ED8" 
 />
    <glyph glyph-name="Ohorn" 
 />
    <glyph glyph-name="uni1EDA" 
 />
    <glyph glyph-name="uni1EDC" 
 />
    <glyph glyph-name="uni1EDE" 
 />
    <glyph glyph-name="uni1EE0" 
 />
    <glyph glyph-name="uni1EE2" 
 />
    <glyph glyph-name="OE" 
 />
    <glyph glyph-name="uni1E56" 
 />
    <glyph glyph-name="Racute" 
 />
    <glyph glyph-name="Rcaron" 
 />
    <glyph glyph-name="uni0156" 
 />
    <glyph glyph-name="Sacute" 
 />
    <glyph glyph-name="Scaron" 
 />
    <glyph glyph-name="Scircumflex" 
 />
    <glyph glyph-name="uni015E" 
 />
    <glyph glyph-name="uni0218" 
 />
    <glyph glyph-name="uni1E60" 
 />
    <glyph glyph-name="uni1E9E" 
 />
    <glyph glyph-name="Tbar" 
 />
    <glyph glyph-name="Tcaron" 
 />
    <glyph glyph-name="uni0162" 
 />
    <glyph glyph-name="uni021A" 
 />
    <glyph glyph-name="uni1E6A" 
 />
    <glyph glyph-name="Uacute" 
 />
    <glyph glyph-name="Ubreve" 
 />
    <glyph glyph-name="Ucircumflex" 
 />
    <glyph glyph-name="Udieresis" 
 />
    <glyph glyph-name="Ugrave" 
 />
    <glyph glyph-name="Uhungarumlaut" 
 />
    <glyph glyph-name="Umacron" 
 />
    <glyph glyph-name="Uogonek" 
 />
    <glyph glyph-name="Uring" 
 />
    <glyph glyph-name="Utilde" 
 />
    <glyph glyph-name="uni1EE4" 
 />
    <glyph glyph-name="Uhorn" 
 />
    <glyph glyph-name="uni1EE6" 
 />
    <glyph glyph-name="uni1EE8" 
 />
    <glyph glyph-name="uni1EEA" 
 />
    <glyph glyph-name="uni1EEC" 
 />
    <glyph glyph-name="uni1EEE" 
 />
    <glyph glyph-name="uni1EF0" 
 />
    <glyph glyph-name="Wacute" 
 />
    <glyph glyph-name="Wcircumflex" 
 />
    <glyph glyph-name="Wdieresis" 
 />
    <glyph glyph-name="Wgrave" 
 />
    <glyph glyph-name="Yacute" 
 />
    <glyph glyph-name="Ycircumflex" 
 />
    <glyph glyph-name="Ydieresis" 
 />
    <glyph glyph-name="Ygrave" 
 />
    <glyph glyph-name="uni0232" 
 />
    <glyph glyph-name="uni1EF4" 
 />
    <glyph glyph-name="uni1EF6" 
 />
    <glyph glyph-name="uni1EF8" 
 />
    <glyph glyph-name="Zacute" 
 />
    <glyph glyph-name="Zcaron" 
 />
    <glyph glyph-name="Zdotaccent" 
 />
    <glyph glyph-name="Eth" 
 />
    <glyph glyph-name="Thorn" 
 />
    <glyph glyph-name="aacute" 
 />
    <glyph glyph-name="abreve" 
 />
    <glyph glyph-name="acircumflex" 
 />
    <glyph glyph-name="adieresis" 
 />
    <glyph glyph-name="agrave" 
 />
    <glyph glyph-name="amacron" 
 />
    <glyph glyph-name="aogonek" 
 />
    <glyph glyph-name="aring" 
 />
    <glyph glyph-name="aringacute" 
 />
    <glyph glyph-name="atilde" 
 />
    <glyph glyph-name="uni1EA1" 
 />
    <glyph glyph-name="uni1EA3" 
 />
    <glyph glyph-name="uni1EA5" 
 />
    <glyph glyph-name="uni1EAD" 
 />
    <glyph glyph-name="uni1EA7" 
 />
    <glyph glyph-name="uni1EA9" 
 />
    <glyph glyph-name="uni1EAF" 
 />
    <glyph glyph-name="uni1EAB" 
 />
    <glyph glyph-name="uni1EB1" 
 />
    <glyph glyph-name="uni1EB3" 
 />
    <glyph glyph-name="uni1EB5" 
 />
    <glyph glyph-name="uni1EB7" 
 />
    <glyph glyph-name="ae" 
 />
    <glyph glyph-name="aeacute" 
 />
    <glyph glyph-name="aacute.alt1" 
 />
    <glyph glyph-name="abreve.alt1" 
 />
    <glyph glyph-name="acircumflex.alt1" 
 />
    <glyph glyph-name="adieresis.alt1" 
 />
    <glyph glyph-name="agrave.alt1" 
 />
    <glyph glyph-name="amacron.alt1" 
 />
    <glyph glyph-name="aogonek.alt1" 
 />
    <glyph glyph-name="aring.alt1" 
 />
    <glyph glyph-name="aringacute.alt1" 
 />
    <glyph glyph-name="atilde.alt1" 
 />
    <glyph glyph-name="uni1EA1.alt1" 
 />
    <glyph glyph-name="uni1EA3.alt1" 
 />
    <glyph glyph-name="uni1EA5.alt1" 
 />
    <glyph glyph-name="uni1EAD.alt1" 
 />
    <glyph glyph-name="uni1EA7.alt1" 
 />
    <glyph glyph-name="uni1EA9.alt1" 
 />
    <glyph glyph-name="uni1EAF.alt1" 
 />
    <glyph glyph-name="uni1EAB.alt1" 
 />
    <glyph glyph-name="uni1EB1.alt1" 
 />
    <glyph glyph-name="uni1EB3.alt1" 
 />
    <glyph glyph-name="uni1EB5.alt1" 
 />
    <glyph glyph-name="uni1EB7.alt1" 
 />
    <glyph glyph-name="ae.alt1" 
 />
    <glyph glyph-name="aeacute.alt1" 
 />
    <glyph glyph-name="uni1E03" 
 />
    <glyph glyph-name="cacute" 
 />
    <glyph glyph-name="ccedilla" 
 />
    <glyph glyph-name="ccircumflex" 
 />
    <glyph glyph-name="cdotaccent" 
 />
    <glyph glyph-name="ccaron" 
 />
    <glyph glyph-name="dcaron" 
 />
    <glyph glyph-name="dcroat" 
 />
    <glyph glyph-name="uni1E0B" 
 />
    <glyph glyph-name="eacute" 
 />
    <glyph glyph-name="ebreve" 
 />
    <glyph glyph-name="ecircumflex" 
 />
    <glyph glyph-name="edieresis" 
 />
    <glyph glyph-name="edotaccent" 
 />
    <glyph glyph-name="egrave" 
 />
    <glyph glyph-name="emacron" 
 />
    <glyph glyph-name="eogonek" 
 />
    <glyph glyph-name="ecaron" 
 />
    <glyph glyph-name="uni1EB9" 
 />
    <glyph glyph-name="uni1EBB" 
 />
    <glyph glyph-name="uni1EBD" 
 />
    <glyph glyph-name="uni1EBF" 
 />
    <glyph glyph-name="uni1EC1" 
 />
    <glyph glyph-name="uni1EC3" 
 />
    <glyph glyph-name="uni1EC5" 
 />
    <glyph glyph-name="uni1EC7" 
 />
    <glyph glyph-name="fl.alt1" 
 />
    <glyph glyph-name="f_f_l.alt1" 
 />
    <glyph glyph-name="uni1E1F" 
 />
    <glyph glyph-name="gcircumflex" 
 />
    <glyph glyph-name="gbreve" 
 />
    <glyph glyph-name="gdotaccent" 
 />
    <glyph glyph-name="uni0123" 
 />
    <glyph glyph-name="gcaron" 
 />
    <glyph glyph-name="hbar" 
 />
    <glyph glyph-name="hcircumflex" 
 />
    <glyph glyph-name="uni1E23" 
 />
    <glyph glyph-name="dotlessi" 
 />
    <glyph glyph-name="iacute" 
 />
    <glyph glyph-name="ibreve" 
 />
    <glyph glyph-name="icircumflex" 
 />
    <glyph glyph-name="idieresis" 
 />
    <glyph glyph-name="igrave" 
 />
    <glyph glyph-name="imacron" 
 />
    <glyph glyph-name="iogonek" 
 />
    <glyph glyph-name="itilde" 
 />
    <glyph glyph-name="uni1EC9" 
 />
    <glyph glyph-name="uni1ECB" 
 />
    <glyph glyph-name="i.dotaccent" 
 />
    <glyph glyph-name="ij" 
 />
    <glyph glyph-name="iacute_j.loclNLD" 
 />
    <glyph glyph-name="uni0237" 
 />
    <glyph glyph-name="jcircumflex" 
 />
    <glyph glyph-name="uni0137" 
 />
    <glyph glyph-name="kgreenlandic" 
 />
    <glyph glyph-name="lacute" 
 />
    <glyph glyph-name="uni013C" 
 />
    <glyph glyph-name="lcaron" 
 />
    <glyph glyph-name="ldot" 
 />
    <glyph glyph-name="lslash" 
 />
    <glyph glyph-name="lacute.alt1" 
 />
    <glyph glyph-name="lcommaaccent.alt1" 
 />
    <glyph glyph-name="lcaron.alt1" 
 />
    <glyph glyph-name="ldot.alt1" 
 />
    <glyph glyph-name="lslash.alt1" 
 />
    <glyph glyph-name="nacute" 
 />
    <glyph glyph-name="napostrophe" 
 />
    <glyph glyph-name="ncaron" 
 />
    <glyph glyph-name="uni0146" 
 />
    <glyph glyph-name="ntilde" 
 />
    <glyph glyph-name="uni0272" 
 />
    <glyph glyph-name="eng" 
 />
    <glyph glyph-name="oacute" 
 />
    <glyph glyph-name="obreve" 
 />
    <glyph glyph-name="ocircumflex" 
 />
    <glyph glyph-name="odieresis" 
 />
    <glyph glyph-name="ograve" 
 />
    <glyph glyph-name="ohungarumlaut" 
 />
    <glyph glyph-name="omacron" 
 />
    <glyph glyph-name="oslash" 
 />
    <glyph glyph-name="oslashacute" 
 />
    <glyph glyph-name="otilde" 
 />
    <glyph glyph-name="uni01EB" 
 />
    <glyph glyph-name="uni1ECD" 
 />
    <glyph glyph-name="uni1ECF" 
 />
    <glyph glyph-name="uni1ED1" 
 />
    <glyph glyph-name="uni1ED3" 
 />
    <glyph glyph-name="uni1ED5" 
 />
    <glyph glyph-name="uni1ED7" 
 />
    <glyph glyph-name="uni1ED9" 
 />
    <glyph glyph-name="ohorn" 
 />
    <glyph glyph-name="uni1EDB" 
 />
    <glyph glyph-name="uni1EDD" 
 />
    <glyph glyph-name="uni1EDF" 
 />
    <glyph glyph-name="uni1EE1" 
 />
    <glyph glyph-name="uni1EE3" 
 />
    <glyph glyph-name="oe" 
 />
    <glyph glyph-name="uni1E57" 
 />
    <glyph glyph-name="racute" 
 />
    <glyph glyph-name="rcaron" 
 />
    <glyph glyph-name="uni0157" 
 />
    <glyph glyph-name="sacute" 
 />
    <glyph glyph-name="scaron" 
 />
    <glyph glyph-name="scircumflex" 
 />
    <glyph glyph-name="uni015F" 
 />
    <glyph glyph-name="uni0219" 
 />
    <glyph glyph-name="uni1E61" 
 />
    <glyph glyph-name="germandbls" 
 />
    <glyph glyph-name="longs" 
 />
    <glyph glyph-name="tbar" 
 />
    <glyph glyph-name="tcaron" 
 />
    <glyph glyph-name="uni0163" 
 />
    <glyph glyph-name="uni021B" 
 />
    <glyph glyph-name="uni1E6B" 
 />
    <glyph glyph-name="uacute" 
 />
    <glyph glyph-name="ubreve" 
 />
    <glyph glyph-name="ucircumflex" 
 />
    <glyph glyph-name="udieresis" 
 />
    <glyph glyph-name="ugrave" 
 />
    <glyph glyph-name="uhungarumlaut" 
 />
    <glyph glyph-name="umacron" 
 />
    <glyph glyph-name="uogonek" 
 />
    <glyph glyph-name="uring" 
 />
    <glyph glyph-name="utilde" 
 />
    <glyph glyph-name="uni1EE5" 
 />
    <glyph glyph-name="uhorn" 
 />
    <glyph glyph-name="uni1EE7" 
 />
    <glyph glyph-name="uni1EE9" 
 />
    <glyph glyph-name="uni1EEB" 
 />
    <glyph glyph-name="uni1EED" 
 />
    <glyph glyph-name="uni1EEF" 
 />
    <glyph glyph-name="uni1EF1" 
 />
    <glyph glyph-name="wacute" 
 />
    <glyph glyph-name="wcircumflex" 
 />
    <glyph glyph-name="wdieresis" 
 />
    <glyph glyph-name="wgrave" 
 />
    <glyph glyph-name="yacute" 
 />
    <glyph glyph-name="ycircumflex" 
 />
    <glyph glyph-name="ydieresis" 
 />
    <glyph glyph-name="ygrave" 
 />
    <glyph glyph-name="uni0233" 
 />
    <glyph glyph-name="uni1EF5" 
 />
    <glyph glyph-name="uni1EF7" 
 />
    <glyph glyph-name="uni1EF9" 
 />
    <glyph glyph-name="yacute.alt1" 
 />
    <glyph glyph-name="ycircumflex.alt1" 
 />
    <glyph glyph-name="ydieresis.alt1" 
 />
    <glyph glyph-name="ygrave.alt1" 
 />
    <glyph glyph-name="uni0233.alt1" 
 />
    <glyph glyph-name="uni1EF5.alt1" 
 />
    <glyph glyph-name="uni1EF7.alt1" 
 />
    <glyph glyph-name="uni1EF9.alt1" 
 />
    <glyph glyph-name="zacute" 
 />
    <glyph glyph-name="zcaron" 
 />
    <glyph glyph-name="zdotaccent" 
 />
    <glyph glyph-name="eth" 
 />
    <glyph glyph-name="thorn" 
 />
    <glyph glyph-name="Aacute.smcp" 
 />
    <glyph glyph-name="Abreve.smcp" 
 />
    <glyph glyph-name="Acircumflex.smcp" 
 />
    <glyph glyph-name="Adieresis.smcp" 
 />
    <glyph glyph-name="Agrave.smcp" 
 />
    <glyph glyph-name="Amacron.smcp" 
 />
    <glyph glyph-name="Aogonek.smcp" 
 />
    <glyph glyph-name="Aring.smcp" 
 />
    <glyph glyph-name="Aringacute.smcp" 
 />
    <glyph glyph-name="Atilde.smcp" 
 />
    <glyph glyph-name="uni1EA0.smcp" 
 />
    <glyph glyph-name="uni1EA2.smcp" 
 />
    <glyph glyph-name="uni1EA4.smcp" 
 />
    <glyph glyph-name="uni1EAC.smcp" 
 />
    <glyph glyph-name="uni1EA6.smcp" 
 />
    <glyph glyph-name="uni1EA8.smcp" 
 />
    <glyph glyph-name="uni1EAE.smcp" 
 />
    <glyph glyph-name="uni1EAA.smcp" 
 />
    <glyph glyph-name="uni1EB0.smcp" 
 />
    <glyph glyph-name="uni1EB2.smcp" 
 />
    <glyph glyph-name="uni1EB4.smcp" 
 />
    <glyph glyph-name="uni1EB6.smcp" 
 />
    <glyph glyph-name="AE.smcp" 
 />
    <glyph glyph-name="AEacute.smcp" 
 />
    <glyph glyph-name="uni1E02.smcp" 
 />
    <glyph glyph-name="Cacute.smcp" 
 />
    <glyph glyph-name="Ccaron.smcp" 
 />
    <glyph glyph-name="Ccedilla.smcp" 
 />
    <glyph glyph-name="Ccircumflex.smcp" 
 />
    <glyph glyph-name="Cdotaccent.smcp" 
 />
    <glyph glyph-name="Dcaron.smcp" 
 />
    <glyph glyph-name="Dcroat.smcp" 
 />
    <glyph glyph-name="uni1E0A.smcp" 
 />
    <glyph glyph-name="Eacute.smcp" 
 />
    <glyph glyph-name="Ebreve.smcp" 
 />
    <glyph glyph-name="Ecaron.smcp" 
 />
    <glyph glyph-name="Ecircumflex.smcp" 
 />
    <glyph glyph-name="Edieresis.smcp" 
 />
    <glyph glyph-name="Edotaccent.smcp" 
 />
    <glyph glyph-name="Egrave.smcp" 
 />
    <glyph glyph-name="Emacron.smcp" 
 />
    <glyph glyph-name="Eogonek.smcp" 
 />
    <glyph glyph-name="uni1EB8.smcp" 
 />
    <glyph glyph-name="uni1EBA.smcp" 
 />
    <glyph glyph-name="uni1EBC.smcp" 
 />
    <glyph glyph-name="uni1EBE.smcp" 
 />
    <glyph glyph-name="uni1EC0.smcp" 
 />
    <glyph glyph-name="uni1EC2.smcp" 
 />
    <glyph glyph-name="uni1EC4.smcp" 
 />
    <glyph glyph-name="uni1EC6.smcp" 
 />
    <glyph glyph-name="uni1E1E.smcp" 
 />
    <glyph glyph-name="fi.smcp" 
 />
    <glyph glyph-name="fl.smcp" 
 />
    <glyph glyph-name="Gcircumflex.smcp" 
 />
    <glyph glyph-name="Gbreve.smcp" 
 />
    <glyph glyph-name="Gdotaccent.smcp" 
 />
    <glyph glyph-name="Gcommaaccent.smcp" 
 />
    <glyph glyph-name="Gcaron.smcp" 
 />
    <glyph glyph-name="Gcircumflex.smcp.alt1" 
 />
    <glyph glyph-name="Gbreve.smcp.alt1" 
 />
    <glyph glyph-name="Gdotaccent.smcp.alt1" 
 />
    <glyph glyph-name="Gcommaaccent.smcp.alt1" 
 />
    <glyph glyph-name="Gcaron.smcp.alt1" 
 />
    <glyph glyph-name="Hbar.smcp" 
 />
    <glyph glyph-name="Hcircumflex.smcp" 
 />
    <glyph glyph-name="uni1E22.smcp" 
 />
    <glyph glyph-name="Iacute.smcp" 
 />
    <glyph glyph-name="Ibreve.smcp" 
 />
    <glyph glyph-name="Igrave.smcp" 
 />
    <glyph glyph-name="Icircumflex.smcp" 
 />
    <glyph glyph-name="Idieresis.smcp" 
 />
    <glyph glyph-name="Idotaccent.smcp" 
 />
    <glyph glyph-name="Imacron.smcp" 
 />
    <glyph glyph-name="Iogonek.smcp" 
 />
    <glyph glyph-name="Itilde.smcp" 
 />
    <glyph glyph-name="uni1EC8.smcp" 
 />
    <glyph glyph-name="uni1ECA.smcp" 
 />
    <glyph glyph-name="IJ.smcp" 
 />
    <glyph glyph-name="Iacute_J.smcp.loclNLD" 
 />
    <glyph glyph-name="Jcircumflex.smcp" 
 />
    <glyph glyph-name="Kcommaaccent.smcp" 
 />
    <glyph glyph-name="Lacute.smcp" 
 />
    <glyph glyph-name="Lcaron.smcp" 
 />
    <glyph glyph-name="Lcommaaccent.smcp" 
 />
    <glyph glyph-name="Ldot.smcp" 
 />
    <glyph glyph-name="Lslash.smcp" 
 />
    <glyph glyph-name="Nacute.smcp" 
 />
    <glyph glyph-name="Ncaron.smcp" 
 />
    <glyph glyph-name="Ncommaaccent.smcp" 
 />
    <glyph glyph-name="Ntilde.smcp" 
 />
    <glyph glyph-name="uni019D.smcp" 
 />
    <glyph glyph-name="Eng.smcp" 
 />
    <glyph glyph-name="Oacute.smcp" 
 />
    <glyph glyph-name="Obreve.smcp" 
 />
    <glyph glyph-name="Ocircumflex.smcp" 
 />
    <glyph glyph-name="Odieresis.smcp" 
 />
    <glyph glyph-name="Ograve.smcp" 
 />
    <glyph glyph-name="Ohungarumlaut.smcp" 
 />
    <glyph glyph-name="Oslash.smcp" 
 />
    <glyph glyph-name="Oslashacute.smcp" 
 />
    <glyph glyph-name="Omacron.smcp" 
 />
    <glyph glyph-name="Otilde.smcp" 
 />
    <glyph glyph-name="uni01EA.smcp" 
 />
    <glyph glyph-name="uni1ECC.smcp" 
 />
    <glyph glyph-name="uni1ECE.smcp" 
 />
    <glyph glyph-name="uni1ED0.smcp" 
 />
    <glyph glyph-name="uni1ED2.smcp" 
 />
    <glyph glyph-name="uni1ED4.smcp" 
 />
    <glyph glyph-name="uni1ED6.smcp" 
 />
    <glyph glyph-name="uni1ED8.smcp" 
 />
    <glyph glyph-name="Ohorn.smcp" 
 />
    <glyph glyph-name="uni1EDA.smcp" 
 />
    <glyph glyph-name="uni1EDC.smcp" 
 />
    <glyph glyph-name="uni1EDE.smcp" 
 />
    <glyph glyph-name="uni1EE0.smcp" 
 />
    <glyph glyph-name="uni1EE2.smcp" 
 />
    <glyph glyph-name="OE.smcp" 
 />
    <glyph glyph-name="uni1E56.smcp" 
 />
    <glyph glyph-name="Racute.smcp" 
 />
    <glyph glyph-name="Rcaron.smcp" 
 />
    <glyph glyph-name="Rcommaaccent.smcp" 
 />
    <glyph glyph-name="Sacute.smcp" 
 />
    <glyph glyph-name="Scaron.smcp" 
 />
    <glyph glyph-name="Scircumflex.smcp" 
 />
    <glyph glyph-name="Scedilla.smcp" 
 />
    <glyph glyph-name="Scommaaccent.smcp" 
 />
    <glyph glyph-name="uni1E60.smcp" 
 />
    <glyph glyph-name="uni1E9E.smcp" 
 />
    <glyph glyph-name="germandbls.smcp" 
 />
    <glyph glyph-name="Tbar.smcp" 
 />
    <glyph glyph-name="Tcaron.smcp" 
 />
    <glyph glyph-name="uni0162.smcp" 
 />
    <glyph glyph-name="uni021A.smcp" 
 />
    <glyph glyph-name="uni1E6A.smcp" 
 />
    <glyph glyph-name="Uacute.smcp" 
 />
    <glyph glyph-name="Ubreve.smcp" 
 />
    <glyph glyph-name="Ucircumflex.smcp" 
 />
    <glyph glyph-name="Udieresis.smcp" 
 />
    <glyph glyph-name="Ugrave.smcp" 
 />
    <glyph glyph-name="Uhungarumlaut.smcp" 
 />
    <glyph glyph-name="Umacron.smcp" 
 />
    <glyph glyph-name="Uogonek.smcp" 
 />
    <glyph glyph-name="Uring.smcp" 
 />
    <glyph glyph-name="Utilde.smcp" 
 />
    <glyph glyph-name="uni1EE4.smcp" 
 />
    <glyph glyph-name="Uhorn.smcp" 
 />
    <glyph glyph-name="uni1EE6.smcp" 
 />
    <glyph glyph-name="uni1EE8.smcp" 
 />
    <glyph glyph-name="uni1EEA.smcp" 
 />
    <glyph glyph-name="uni1EEC.smcp" 
 />
    <glyph glyph-name="uni1EEE.smcp" 
 />
    <glyph glyph-name="uni1EF0.smcp" 
 />
    <glyph glyph-name="Wacute.smcp" 
 />
    <glyph glyph-name="Wcircumflex.smcp" 
 />
    <glyph glyph-name="Wdieresis.smcp" 
 />
    <glyph glyph-name="Wgrave.smcp" 
 />
    <glyph glyph-name="Yacute.smcp" 
 />
    <glyph glyph-name="Ycircumflex.smcp" 
 />
    <glyph glyph-name="Ydieresis.smcp" 
 />
    <glyph glyph-name="Ygrave.smcp" 
 />
    <glyph glyph-name="uni0232.smcp" 
 />
    <glyph glyph-name="uni1EF4.smcp" 
 />
    <glyph glyph-name="uni1EF6.smcp" 
 />
    <glyph glyph-name="uni1EF8.smcp" 
 />
    <glyph glyph-name="Zacute.smcp" 
 />
    <glyph glyph-name="Zcaron.smcp" 
 />
    <glyph glyph-name="Zdotaccent.smcp" 
 />
    <glyph glyph-name="Eth.smcp" 
 />
    <glyph glyph-name="Thorn.smcp" 
 />
    <glyph glyph-name="acute" 
 />
    <glyph glyph-name="acutecomb" 
 />
    <glyph glyph-name="acutecomb.short" 
 />
    <glyph glyph-name="gravecomb" 
 />
    <glyph glyph-name="gravecomb.short" 
 />
    <glyph glyph-name="uni02CB" 
 />
    <glyph glyph-name="circumflex" 
 />
    <glyph glyph-name="uni0302" 
 />
    <glyph glyph-name="uni0302.short" 
 />
    <glyph glyph-name="caron" 
 />
    <glyph glyph-name="uni030C" 
 />
    <glyph glyph-name="hungarumlaut" 
 />
    <glyph glyph-name="uni030B" 
 />
    <glyph glyph-name="uni030F" 
 />
    <glyph glyph-name="dieresis" 
 />
    <glyph glyph-name="uni0308" 
 />
    <glyph glyph-name="dotaccent" 
 />
    <glyph glyph-name="uni0307" 
 />
    <glyph glyph-name="dotbelowcomb" 
 />
    <glyph glyph-name="ring" 
 />
    <glyph glyph-name="uni030A" 
 />
    <glyph glyph-name="tilde" 
 />
    <glyph glyph-name="tildecomb" 
 />
    <glyph glyph-name="tildecomb.short" 
 />
    <glyph glyph-name="macron" 
 />
    <glyph glyph-name="uni0304" 
 />
    <glyph glyph-name="uni0331" 
 />
    <glyph glyph-name="uni203E" 
 />
    <glyph glyph-name="uni02C9" 
 />
    <glyph glyph-name="breve" 
 />
    <glyph glyph-name="uni0306" 
 />
    <glyph glyph-name="uni0306.short" 
 />
    <glyph glyph-name="uni032E" 
 />
    <glyph glyph-name="uni0311" 
 />
    <glyph glyph-name="cedilla" 
 />
    <glyph glyph-name="uni0327" 
 />
    <glyph glyph-name="ogonek" 
 />
    <glyph glyph-name="uni0328" 
 />
    <glyph glyph-name="uniF6C3" 
 />
    <glyph glyph-name="uni0326" 
 />
    <glyph glyph-name="uni0309" 
 />
    <glyph glyph-name="hookabovecomb.short" 
 />
    <glyph glyph-name="uni02BB" 
 />
    <glyph glyph-name="Alpha" 
 />
    <glyph glyph-name="Beta" 
 />
    <glyph glyph-name="Gamma" 
 />
    <glyph glyph-name="uni0394" 
 />
    <glyph glyph-name="uni2206" 
 />
    <glyph glyph-name="Epsilon" 
 />
    <glyph glyph-name="Zeta" 
 />
    <glyph glyph-name="Eta" 
 />
    <glyph glyph-name="Theta" 
 />
    <glyph glyph-name="Iota" 
 />
    <glyph glyph-name="Kappa" 
 />
    <glyph glyph-name="Lambda" 
 />
    <glyph glyph-name="Mu" 
 />
    <glyph glyph-name="Nu" 
 />
    <glyph glyph-name="Xi" 
 />
    <glyph glyph-name="Omicron" 
 />
    <glyph glyph-name="Pi" 
 />
    <glyph glyph-name="Rho" 
 />
    <glyph glyph-name="Sigma" 
 />
    <glyph glyph-name="Tau" 
 />
    <glyph glyph-name="Upsilon" 
 />
    <glyph glyph-name="Phi" 
 />
    <glyph glyph-name="Chi" 
 />
    <glyph glyph-name="Psi" 
 />
    <glyph glyph-name="uni03A9" 
 />
    <glyph glyph-name="uni2126" 
 />
    <glyph glyph-name="alpha" 
 />
    <glyph glyph-name="beta" 
 />
    <glyph glyph-name="gamma" 
 />
    <glyph glyph-name="delta" 
 />
    <glyph glyph-name="epsilon" 
 />
    <glyph glyph-name="zeta" 
 />
    <glyph glyph-name="eta" 
 />
    <glyph glyph-name="theta" 
 />
    <glyph glyph-name="iota" 
 />
    <glyph glyph-name="kappa" 
 />
    <glyph glyph-name="lambda" 
 />
    <glyph glyph-name="uni03BC" 
 />
    <glyph glyph-name="uni00B5" 
 />
    <glyph glyph-name="nu" 
 />
    <glyph glyph-name="xi" 
 />
    <glyph glyph-name="omicron" 
 />
    <glyph glyph-name="pi" 
 />
    <glyph glyph-name="rho" 
 />
    <glyph glyph-name="uni03C2" 
 />
    <glyph glyph-name="sigma" 
 />
    <glyph glyph-name="tau" 
 />
    <glyph glyph-name="upsilon" 
 />
    <glyph glyph-name="phi" 
 />
    <glyph glyph-name="chi" 
 />
    <glyph glyph-name="psi" 
 />
    <glyph glyph-name="omega" 
 />
    <glyph glyph-name="Alphatonos" 
 />
    <glyph glyph-name="Epsilontonos" 
 />
    <glyph glyph-name="Etatonos" 
 />
    <glyph glyph-name="Iotatonos" 
 />
    <glyph glyph-name="Omicrontonos" 
 />
    <glyph glyph-name="Upsilontonos" 
 />
    <glyph glyph-name="Omegatonos" 
 />
    <glyph glyph-name="Iotadieresis" 
 />
    <glyph glyph-name="Upsilondieresis" 
 />
    <glyph glyph-name="alphatonos" 
 />
    <glyph glyph-name="epsilontonos" 
 />
    <glyph glyph-name="etatonos" 
 />
    <glyph glyph-name="iotatonos" 
 />
    <glyph glyph-name="iotadieresis" 
 />
    <glyph glyph-name="iotadieresistonos" 
 />
    <glyph glyph-name="upsilontonos" 
 />
    <glyph glyph-name="upsilondieresis" 
 />
    <glyph glyph-name="upsilondieresistonos" 
 />
    <glyph glyph-name="omicrontonos" 
 />
    <glyph glyph-name="omegatonos" 
 />
    <glyph glyph-name="uni03D7" 
 />
    <glyph glyph-name="tonos" 
 />
    <glyph glyph-name="tonos.cap" 
 />
    <glyph glyph-name="dieresistonos" 
 />
    <glyph glyph-name="uni0374" 
 />
    <glyph glyph-name="uni0375" 
 />
    <glyph glyph-name="uni0387" 
 />
    <glyph glyph-name="uni0410" 
 />
    <glyph glyph-name="uni0411" 
 />
    <glyph glyph-name="uni0412" 
 />
    <glyph glyph-name="uni0413" 
 />
    <glyph glyph-name="uni0414" 
 />
    <glyph glyph-name="uni0415" 
 />
    <glyph glyph-name="uni0401" 
 />
    <glyph glyph-name="uni0416" 
 />
    <glyph glyph-name="uni0417" 
 />
    <glyph glyph-name="uni0418" 
 />
    <glyph glyph-name="uni0419" 
 />
    <glyph glyph-name="uni041A" 
 />
    <glyph glyph-name="uni041B" 
 />
    <glyph glyph-name="uni041C" 
 />
    <glyph glyph-name="uni041D" 
 />
    <glyph glyph-name="uni041E" 
 />
    <glyph glyph-name="uni041F" 
 />
    <glyph glyph-name="uni0420" 
 />
    <glyph glyph-name="uni0421" 
 />
    <glyph glyph-name="uni0422" 
 />
    <glyph glyph-name="uni0423" 
 />
    <glyph glyph-name="uni0424" 
 />
    <glyph glyph-name="uni0425" 
 />
    <glyph glyph-name="uni0426" 
 />
    <glyph glyph-name="uni0427" 
 />
    <glyph glyph-name="uni0428" 
 />
    <glyph glyph-name="uni0429" 
 />
    <glyph glyph-name="uni042A" 
 />
    <glyph glyph-name="uni042B" 
 />
    <glyph glyph-name="uni042C" 
 />
    <glyph glyph-name="uni042D" 
 />
    <glyph glyph-name="uni042E" 
 />
    <glyph glyph-name="uni042F" 
 />
    <glyph glyph-name="uni0402" 
 />
    <glyph glyph-name="uni0403" 
 />
    <glyph glyph-name="uni0404" 
 />
    <glyph glyph-name="uni0405" 
 />
    <glyph glyph-name="uni0406" 
 />
    <glyph glyph-name="uni0407" 
 />
    <glyph glyph-name="uni0408" 
 />
    <glyph glyph-name="uni0409" 
 />
    <glyph glyph-name="uni040A" 
 />
    <glyph glyph-name="uni040B" 
 />
    <glyph glyph-name="uni040C" 
 />
    <glyph glyph-name="uni040E" 
 />
    <glyph glyph-name="uni040F" 
 />
    <glyph glyph-name="uni0414.BUL" 
 />
    <glyph glyph-name="uni0416.BUL" 
 />
    <glyph glyph-name="uni0418.BUL" 
 />
    <glyph glyph-name="uni041A.BUL" 
 />
    <glyph glyph-name="uni041B.BUL" 
 />
    <glyph glyph-name="uni0424.BUL" 
 />
    <glyph glyph-name="uni0430" 
 />
    <glyph glyph-name="uni0430.alt1" 
 />
    <glyph glyph-name="uni0431" 
 />
    <glyph glyph-name="uni0432" 
 />
    <glyph glyph-name="uni0433" 
 />
    <glyph glyph-name="uni0434" 
 />
    <glyph glyph-name="uni0435" 
 />
    <glyph glyph-name="uni0451" 
 />
    <glyph glyph-name="uni0436" 
 />
    <glyph glyph-name="uni0437" 
 />
    <glyph glyph-name="uni0438" 
 />
    <glyph glyph-name="uni0439" 
 />
    <glyph glyph-name="uni043A" 
 />
    <glyph glyph-name="uni043B" 
 />
    <glyph glyph-name="uni043C" 
 />
    <glyph glyph-name="uni043D" 
 />
    <glyph glyph-name="uni043E" 
 />
    <glyph glyph-name="uni043F" 
 />
    <glyph glyph-name="uni0440" 
 />
    <glyph glyph-name="uni0441" 
 />
    <glyph glyph-name="uni0442" 
 />
    <glyph glyph-name="uni0443" 
 />
    <glyph glyph-name="uni0444" 
 />
    <glyph glyph-name="uni0445" 
 />
    <glyph glyph-name="uni0446" 
 />
    <glyph glyph-name="uni0447" 
 />
    <glyph glyph-name="uni0448" 
 />
    <glyph glyph-name="uni0449" 
 />
    <glyph glyph-name="uni044A" 
 />
    <glyph glyph-name="uni044B" 
 />
    <glyph glyph-name="uni044C" 
 />
    <glyph glyph-name="uni044D" 
 />
    <glyph glyph-name="uni044E" 
 />
    <glyph glyph-name="uni044F" 
 />
    <glyph glyph-name="uni0452" 
 />
    <glyph glyph-name="uni0453" 
 />
    <glyph glyph-name="uni0454" 
 />
    <glyph glyph-name="uni0455" 
 />
    <glyph glyph-name="uni0456" 
 />
    <glyph glyph-name="uni0457" 
 />
    <glyph glyph-name="uni0458" 
 />
    <glyph glyph-name="uni0459" 
 />
    <glyph glyph-name="uni045A" 
 />
    <glyph glyph-name="uni045B" 
 />
    <glyph glyph-name="uni045C" 
 />
    <glyph glyph-name="uni045E" 
 />
    <glyph glyph-name="uni045F" 
 />
    <glyph glyph-name="uni0432.BUL" 
 />
    <glyph glyph-name="uni0433.BUL" 
 />
    <glyph glyph-name="uni0434.BUL" 
 />
    <glyph glyph-name="uni0436.BUL" 
 />
    <glyph glyph-name="uni0437.BUL" 
 />
    <glyph glyph-name="uni0438.BUL" 
 />
    <glyph glyph-name="uni0439.BUL" 
 />
    <glyph glyph-name="uni043A.BUL" 
 />
    <glyph glyph-name="uni043B.BUL" 
 />
    <glyph glyph-name="uni043D.BUL" 
 />
    <glyph glyph-name="uni043F.BUL" 
 />
    <glyph glyph-name="uni0442.BUL" 
 />
    <glyph glyph-name="uni0447.BUL" 
 />
    <glyph glyph-name="uni0446.BUL" 
 />
    <glyph glyph-name="uni0448.BUL" 
 />
    <glyph glyph-name="uni0449.BUL" 
 />
    <glyph glyph-name="uni044C.BUL" 
 />
    <glyph glyph-name="uni044A.BUL" 
 />
    <glyph glyph-name="uni044E.BUL" 
 />
    <glyph glyph-name="uni0431.SRB" 
 />
    <glyph glyph-name="uni0433.SRB" 
 />
    <glyph glyph-name="uni0434.SRB" 
 />
    <glyph glyph-name="uni043F.SRB" 
 />
    <glyph glyph-name="uni0442.SRB" 
 />
    <glyph glyph-name="uni0474" 
 />
    <glyph glyph-name="uni0475" 
 />
    <glyph glyph-name="uni048A" 
 />
    <glyph glyph-name="uni048B" 
 />
    <glyph glyph-name="uni048C" 
 />
    <glyph glyph-name="uni048D" 
 />
    <glyph glyph-name="uni048E" 
 />
    <glyph glyph-name="uni048F" 
 />
    <glyph glyph-name="uni0490" 
 />
    <glyph glyph-name="uni0491" 
 />
    <glyph glyph-name="uni0492" 
 />
    <glyph glyph-name="uni0493" 
 />
    <glyph glyph-name="uni0494" 
 />
    <glyph glyph-name="uni0495" 
 />
    <glyph glyph-name="uni0496" 
 />
    <glyph glyph-name="uni0497" 
 />
    <glyph glyph-name="uni0498" 
 />
    <glyph glyph-name="uni0499" 
 />
    <glyph glyph-name="uni049A" 
 />
    <glyph glyph-name="uni049B" 
 />
    <glyph glyph-name="uni049C" 
 />
    <glyph glyph-name="uni049D" 
 />
    <glyph glyph-name="uni049E" 
 />
    <glyph glyph-name="uni049F" 
 />
    <glyph glyph-name="uni04A0" 
 />
    <glyph glyph-name="uni04A1" 
 />
    <glyph glyph-name="uni04A2" 
 />
    <glyph glyph-name="uni04A3" 
 />
    <glyph glyph-name="uni04A4" 
 />
    <glyph glyph-name="uni04A5" 
 />
    <glyph glyph-name="uni04A6" 
 />
    <glyph glyph-name="uni04A7" 
 />
    <glyph glyph-name="uni04A8" 
 />
    <glyph glyph-name="uni04A9" 
 />
    <glyph glyph-name="uni04AA" 
 />
    <glyph glyph-name="uni04AB" 
 />
    <glyph glyph-name="uni04AC" 
 />
    <glyph glyph-name="uni04AD" 
 />
    <glyph glyph-name="uni04AE" 
 />
    <glyph glyph-name="uni04AF" 
 />
    <glyph glyph-name="uni04B0" 
 />
    <glyph glyph-name="uni04B1" 
 />
    <glyph glyph-name="uni04B2" 
 />
    <glyph glyph-name="uni04B3" 
 />
    <glyph glyph-name="uni04B4" 
 />
    <glyph glyph-name="uni04B5" 
 />
    <glyph glyph-name="uni04B6" 
 />
    <glyph glyph-name="uni04B7" 
 />
    <glyph glyph-name="uni04B8" 
 />
    <glyph glyph-name="uni04B9" 
 />
    <glyph glyph-name="uni04BA" 
 />
    <glyph glyph-name="uni04BB" 
 />
    <glyph glyph-name="uni04BC" 
 />
    <glyph glyph-name="uni04BD" 
 />
    <glyph glyph-name="uni04BE" 
 />
    <glyph glyph-name="uni04BF" 
 />
    <glyph glyph-name="uni04C0" 
 />
    <glyph glyph-name="uni04C3" 
 />
    <glyph glyph-name="uni04C4" 
 />
    <glyph glyph-name="uni04C5" 
 />
    <glyph glyph-name="uni04C6" 
 />
    <glyph glyph-name="uni04C7" 
 />
    <glyph glyph-name="uni04C8" 
 />
    <glyph glyph-name="uni04C9" 
 />
    <glyph glyph-name="uni04CA" 
 />
    <glyph glyph-name="uni04CB" 
 />
    <glyph glyph-name="uni04CC" 
 />
    <glyph glyph-name="uni04CD" 
 />
    <glyph glyph-name="uni04CE" 
 />
    <glyph glyph-name="uni04CF" 
 />
    <glyph glyph-name="uni04D0" 
 />
    <glyph glyph-name="uni04D1" 
 />
    <glyph glyph-name="uni04D1.alt" 
 />
    <glyph glyph-name="uni04D2" 
 />
    <glyph glyph-name="uni04D3" 
 />
    <glyph glyph-name="uni04D3.alt" 
 />
    <glyph glyph-name="uni04D4" 
 />
    <glyph glyph-name="uni04D5" 
 />
    <glyph glyph-name="uni04D5.alt" 
 />
    <glyph glyph-name="uni04D6" 
 />
    <glyph glyph-name="uni04D7" 
 />
    <glyph glyph-name="uni04D8" 
 />
    <glyph glyph-name="uni04D9" 
 />
    <glyph glyph-name="uni04DA" 
 />
    <glyph glyph-name="uni04DB" 
 />
    <glyph glyph-name="uni04DC" 
 />
    <glyph glyph-name="uni04DD" 
 />
    <glyph glyph-name="uni04DE" 
 />
    <glyph glyph-name="uni04DF" 
 />
    <glyph glyph-name="uni04E0" 
 />
    <glyph glyph-name="uni04E1" 
 />
    <glyph glyph-name="uni04E2" 
 />
    <glyph glyph-name="uni04E3" 
 />
    <glyph glyph-name="uni04E4" 
 />
    <glyph glyph-name="uni04E5" 
 />
    <glyph glyph-name="uni04E6" 
 />
    <glyph glyph-name="uni04E7" 
 />
    <glyph glyph-name="uni04E8" 
 />
    <glyph glyph-name="uni04E9" 
 />
    <glyph glyph-name="uni04EA" 
 />
    <glyph glyph-name="uni04EB" 
 />
    <glyph glyph-name="uni04EC" 
 />
    <glyph glyph-name="uni04ED" 
 />
    <glyph glyph-name="uni04EE" 
 />
    <glyph glyph-name="uni04EF" 
 />
    <glyph glyph-name="uni04F0" 
 />
    <glyph glyph-name="uni04F1" 
 />
    <glyph glyph-name="uni04F2" 
 />
    <glyph glyph-name="uni04F3" 
 />
    <glyph glyph-name="uni04F4" 
 />
    <glyph glyph-name="uni04F5" 
 />
    <glyph glyph-name="uni04F6" 
 />
    <glyph glyph-name="uni04F7" 
 />
    <glyph glyph-name="uni04F8" 
 />
    <glyph glyph-name="uni04F9" 
 />
    <glyph glyph-name="uni04FC" 
 />
    <glyph glyph-name="uni04FD" 
 />
    <glyph glyph-name="uni0510" 
 />
    <glyph glyph-name="uni0511" 
 />
    <glyph glyph-name="uni0512" 
 />
    <glyph glyph-name="uni0513" 
 />
    <glyph glyph-name="uni051C" 
 />
    <glyph glyph-name="uni051D" 
 />
    <glyph glyph-name="uni0524" 
 />
    <glyph glyph-name="uni0525" 
 />
    <glyph glyph-name="uni0526" 
 />
    <glyph glyph-name="uni0527" 
 />
    <glyph glyph-name="uni052E" 
 />
    <glyph glyph-name="uni052F" 
 />
    <glyph glyph-name="uniF49E" 
 />
    <glyph glyph-name="uniF49F" 
 />
    <glyph glyph-name="uniF4C6" 
 />
    <glyph glyph-name="uniF4C7" 
 />
    <glyph glyph-name="uniF4CC" 
 />
    <glyph glyph-name="uniF4CD" 
 />
    <glyph glyph-name="uniF4D6" 
 />
    <glyph glyph-name="uniF4D7" 
 />
    <glyph glyph-name="uniF50E" 
 />
    <glyph glyph-name="uniF50F" 
 />
    <glyph glyph-name="uniF50F.alt" 
 />
    <glyph glyph-name="uniF510" 
 />
    <glyph glyph-name="uniF511" 
 />
    <glyph glyph-name="uniF512" 
 />
    <glyph glyph-name="uniF513" 
 />
    <glyph glyph-name="uniF514" 
 />
    <glyph glyph-name="uniF515" 
 />
    <glyph glyph-name="uniF516" 
 />
    <glyph glyph-name="uniF517" 
 />
    <glyph glyph-name="uniF518" 
 />
    <glyph glyph-name="uniF519" 
 />
    <glyph glyph-name="uniF51A" 
 />
    <glyph glyph-name="uniF51B" 
 />
    <glyph glyph-name="uniF51C" 
 />
    <glyph glyph-name="uniF51D" 
 />
    <glyph glyph-name="uniF51E" 
 />
    <glyph glyph-name="uniF51F" 
 />
    <glyph glyph-name="uniF520" 
 />
    <glyph glyph-name="uniF521" 
 />
    <glyph glyph-name="uniF522" 
 />
    <glyph glyph-name="uniF523" 
 />
    <glyph glyph-name="uniF524" 
 />
    <glyph glyph-name="uniF525" 
 />
    <glyph glyph-name="uniF526" 
 />
    <glyph glyph-name="uniF527" 
 />
    <glyph glyph-name="uniF528" 
 />
    <glyph glyph-name="uniF529" 
 />
    <glyph glyph-name="uniF52A" 
 />
    <glyph glyph-name="uniF52B" 
 />
    <glyph glyph-name="uniF52C" 
 />
    <glyph glyph-name="uniF52D" 
 />
    <glyph glyph-name="uniF52E" 
 />
    <glyph glyph-name="uniF52F" 
 />
    <glyph glyph-name="uniF532" 
 />
    <glyph glyph-name="uniF533" 
 />
    <glyph glyph-name="uniF536" 
 />
    <glyph glyph-name="uniF537" 
 />
    <glyph glyph-name="uniF538" 
 />
    <glyph glyph-name="uniF539" 
 />
    <glyph glyph-name="uni0400" 
 />
    <glyph glyph-name="uni0450" 
 />
    <glyph glyph-name="uni040D" 
 />
    <glyph glyph-name="uni045D" 
 />
    <glyph glyph-name="uni0472" 
 />
    <glyph glyph-name="uni0473" 
 />
    <glyph glyph-name="uni04C1" 
 />
    <glyph glyph-name="uni04C2" 
 />
    <glyph glyph-name="uni04FA" 
 />
    <glyph glyph-name="uni04FB" 
 />
    <glyph glyph-name="uni04FE" 
 />
    <glyph glyph-name="uni04FF" 
 />
    <glyph glyph-name="uniF43A" 
 />
    <glyph glyph-name="uniF43B" 
 />
    <glyph glyph-name="uniF460" 
 />
    <glyph glyph-name="uniF46A" 
 />
    <glyph glyph-name="uniF46A.alt" 
 />
    <glyph glyph-name="uniF461" 
 />
    <glyph glyph-name="uniF46B" 
 />
    <glyph glyph-name="uniF462" 
 />
    <glyph glyph-name="uniF46C" 
 />
    <glyph glyph-name="uniF463" 
 />
    <glyph glyph-name="uniF46D" 
 />
    <glyph glyph-name="uniF464" 
 />
    <glyph glyph-name="uniF46E" 
 />
    <glyph glyph-name="uniF465" 
 />
    <glyph glyph-name="uniF46F" 
 />
    <glyph glyph-name="uniF466" 
 />
    <glyph glyph-name="uniF470" 
 />
    <glyph glyph-name="uniF467" 
 />
    <glyph glyph-name="uniF471" 
 />
    <glyph glyph-name="uniF468" 
 />
    <glyph glyph-name="uniF472" 
 />
    <glyph glyph-name="uniF469" 
 />
    <glyph glyph-name="uniF473" 
 />
    <glyph glyph-name="uniF498" 
 />
    <glyph glyph-name="uniF499" 
 />
    <glyph glyph-name="uniF49A" 
 />
    <glyph glyph-name="uniF49B" 
 />
    <glyph glyph-name="uniF49C" 
 />
    <glyph glyph-name="uniF49D" 
 />
    <glyph glyph-name="uniF4D2" 
 />
    <glyph glyph-name="uniF4D3" 
 />
    <glyph glyph-name="uniF4D4" 
 />
    <glyph glyph-name="uniF4D5" 
 />
    <glyph glyph-name="uniF50A" 
 />
    <glyph glyph-name="uniF50B" 
 />
    <glyph glyph-name="uniF530" 
 />
    <glyph glyph-name="uniF531" 
 />
    <glyph glyph-name="uniF53C" 
 />
    <glyph glyph-name="uniF53D" 
 />
    <glyph glyph-name="uniF53E" 
 />
    <glyph glyph-name="uniF53F" 
 />
    <glyph glyph-name="uni018F" 
 />
    <glyph glyph-name="uni0259" 
 />
    <glyph glyph-name="uni0304.cy" 
 />
    <glyph glyph-name="uni0306.cy" 
 />
    <glyph glyph-name="acutecomb.cy" 
 />
    <glyph glyph-name="gravecomb.cy" 
 />
    <glyph glyph-name="uni030B.cy" 
 />
    <glyph glyph-name="uni030C.cy" 
 />
    <glyph glyph-name="ampersand" 
 />
    <glyph glyph-name="ampersand.smcp" 
 />
    <glyph glyph-name="numbersign" 
 />
    <glyph glyph-name="numbersign.onum" 
 />
    <glyph glyph-name="at" 
 />
    <glyph glyph-name="percent" 
 />
    <glyph glyph-name="percent.onum" 
 />
    <glyph glyph-name="perthousand" 
 />
    <glyph glyph-name="perthousand.onum" 
 />
    <glyph glyph-name="parenleft.case" 
 />
    <glyph glyph-name="parenright.case" 
 />
    <glyph glyph-name="bracketleft.case" 
 />
    <glyph glyph-name="bracketright.case" 
 />
    <glyph glyph-name="braceleft" 
 />
    <glyph glyph-name="braceright" 
 />
    <glyph glyph-name="braceleft.case" 
 />
    <glyph glyph-name="braceright.case" 
 />
    <glyph glyph-name="dagger" 
 />
    <glyph glyph-name="daggerdbl" 
 />
    <glyph glyph-name="section" 
 />
    <glyph glyph-name="paragraph" 
 />
    <glyph glyph-name="ellipsis" 
 />
    <glyph glyph-name="colon" 
 />
    <glyph glyph-name="semicolon" 
 />
    <glyph glyph-name="uni037E" 
 />
    <glyph glyph-name="exclam" 
 />
    <glyph glyph-name="exclamdown" 
 />
    <glyph glyph-name="exclamdown.case" 
 />
    <glyph glyph-name="exclam.smcp" 
 />
    <glyph glyph-name="exclamdown.smcp" 
 />
    <glyph glyph-name="question" 
 />
    <glyph glyph-name="questiondown" 
 />
    <glyph glyph-name="questiondown.case" 
 />
    <glyph glyph-name="question.smcp" 
 />
    <glyph glyph-name="questiondown.smcp" 
 />
    <glyph glyph-name="uni203D" 
 />
    <glyph glyph-name="uni2E18" 
 />
    <glyph glyph-name="uni2E18.case" 
 />
    <glyph glyph-name="uni203D.smcp" 
 />
    <glyph glyph-name="uni2E18.smcp" 
 />
    <glyph glyph-name="quotedbl" 
 />
    <glyph glyph-name="quoteleft" 
 />
    <glyph glyph-name="uni02BC" 
 />
    <glyph glyph-name="quotedblbase" 
 />
    <glyph glyph-name="guillemotleft" 
 />
    <glyph glyph-name="guillemotright" 
 />
    <glyph glyph-name="guillemotleft.case" 
 />
    <glyph glyph-name="guillemotright.case" 
 />
    <glyph glyph-name="guilsinglleft" 
 />
    <glyph glyph-name="guilsinglright" 
 />
    <glyph glyph-name="guilsinglleft.case" 
 />
    <glyph glyph-name="guilsinglright.case" 
 />
    <glyph glyph-name="uni00AD" 
 />
    <glyph glyph-name="hyphen.case" 
 />
    <glyph glyph-name="endash" 
 />
    <glyph glyph-name="endash.case" 
 />
    <glyph glyph-name="uni2015" 
 />
    <glyph glyph-name="emdash" 
 />
    <glyph glyph-name="emdash.case" 
 />
    <glyph glyph-name="periodcentered" 
 />
    <glyph glyph-name="uni2219" 
 />
    <glyph glyph-name="periodcentered.case" 
 />
    <glyph glyph-name="bullet" 
 />
    <glyph glyph-name="bullet.case" 
 />
    <glyph glyph-name="dollar" 
 />
    <glyph glyph-name="dollar.onum" 
 />
    <glyph glyph-name="cent" 
 />
    <glyph glyph-name="cent.case" 
 />
    <glyph glyph-name="cent.onum" 
 />
    <glyph glyph-name="sterling" 
 />
    <glyph glyph-name="sterling.onum" 
 />
    <glyph glyph-name="yen" 
 />
    <glyph glyph-name="yen.onum" 
 />
    <glyph glyph-name="Euro" 
 />
    <glyph glyph-name="Euro.onum" 
 />
    <glyph glyph-name="uni0192" 
 />
    <glyph glyph-name="florin.onum" 
 />
    <glyph glyph-name="currency" 
 />
    <glyph glyph-name="colonmonetary" 
 />
    <glyph glyph-name="colonmonetary.onum" 
 />
    <glyph glyph-name="uni20A3" 
 />
    <glyph glyph-name="lira" 
 />
    <glyph glyph-name="uni20A6" 
 />
    <glyph glyph-name="peseta" 
 />
    <glyph glyph-name="uni20A8" 
 />
    <glyph glyph-name="R_p" 
 />
    <glyph glyph-name="uni20A9" 
 />
    <glyph glyph-name="uni20AA" 
 />
    <glyph glyph-name="dong" 
 />
    <glyph glyph-name="uni20B9" 
 />
    <glyph glyph-name="uni20BA" 
 />
    <glyph glyph-name="uni20BD" 
 />
    <glyph glyph-name="uni20B4" 
 />
    <glyph glyph-name="uni20B8" 
 />
    <glyph glyph-name="registered" 
 />
    <glyph glyph-name="copyright" 
 />
    <glyph glyph-name="uni2117" 
 />
    <glyph glyph-name="trademark" 
 />
    <glyph glyph-name="uni2120" 
 />
    <glyph glyph-name="uni2113" 
 />
    <glyph glyph-name="uni2116" 
 />
    <glyph glyph-name="estimated" 
 />
    <glyph glyph-name="slash" 
 />
    <glyph glyph-name="asciitilde" 
 />
    <glyph glyph-name="bar" 
 />
    <glyph glyph-name="brokenbar" 
 />
    <glyph glyph-name="minus" 
 />
    <glyph glyph-name="multiply" 
 />
    <glyph glyph-name="divide" 
 />
    <glyph glyph-name="dotmath" 
 />
    <glyph glyph-name="less" 
 />
    <glyph glyph-name="greater" 
 />
    <glyph glyph-name="equal" 
 />
    <glyph glyph-name="notequal" 
 />
    <glyph glyph-name="plusminus" 
 />
    <glyph glyph-name="lessequal" 
 />
    <glyph glyph-name="greaterequal" 
 />
    <glyph glyph-name="logicalnot" 
 />
    <glyph glyph-name="approxequal" 
 />
    <glyph glyph-name="integral" 
 />
    <glyph glyph-name="radical" 
 />
    <glyph glyph-name="infinity" 
 />
    <glyph glyph-name="partialdiff" 
 />
    <glyph glyph-name="summation" 
 />
    <glyph glyph-name="product" 
 />
    <glyph glyph-name="lozenge" 
 />
    <glyph glyph-name="degree" 
 />
    <glyph glyph-name="uni2032" 
 />
    <glyph glyph-name="uni2033" 
 />
    <glyph glyph-name="ordfeminine" 
 />
    <glyph glyph-name="uniF6E9" 
 />
    <glyph glyph-name="uniF6EA" 
 />
    <glyph glyph-name="uniF6EB" 
 />
    <glyph glyph-name="uniF6EC" 
 />
    <glyph glyph-name="uni02B0" 
 />
    <glyph glyph-name="uniF637" 
 />
    <glyph glyph-name="uniF6ED" 
 />
    <glyph glyph-name="uniF6EE" 
 />
    <glyph glyph-name="uniF6EF" 
 />
    <glyph glyph-name="uni207F" 
 />
    <glyph glyph-name="ordmasculine" 
 />
    <glyph glyph-name="uniF6F0" 
 />
    <glyph glyph-name="uniF6F1" 
 />
    <glyph glyph-name="uniF6F2" 
 />
    <glyph glyph-name="uniF6F3" 
 />
    <glyph glyph-name="uni2070" 
 />
    <glyph glyph-name="uni00B9" 
 />
    <glyph glyph-name="uni00B2" 
 />
    <glyph glyph-name="uni00B3" 
 />
    <glyph glyph-name="uni2074" 
 />
    <glyph glyph-name="uni2075" 
 />
    <glyph glyph-name="uni2076" 
 />
    <glyph glyph-name="uni2077" 
 />
    <glyph glyph-name="uni2078" 
 />
    <glyph glyph-name="uni2079" 
 />
    <glyph glyph-name="uni207D" 
 />
    <glyph glyph-name="uni207E" 
 />
    <glyph glyph-name="uniF6E0" 
 />
    <glyph glyph-name="uniF6E2" 
 />
    <glyph glyph-name="uniF6E4" 
 />
    <glyph glyph-name="uniF6E6" 
 />
    <glyph glyph-name="uniF6E8" 
 />
    <glyph glyph-name="uni2080" 
 />
    <glyph glyph-name="uni2081" 
 />
    <glyph glyph-name="uni2082" 
 />
    <glyph glyph-name="uni2083" 
 />
    <glyph glyph-name="uni2084" 
 />
    <glyph glyph-name="uni2085" 
 />
    <glyph glyph-name="uni2086" 
 />
    <glyph glyph-name="uni2087" 
 />
    <glyph glyph-name="uni2088" 
 />
    <glyph glyph-name="uni2089" 
 />
    <glyph glyph-name="uni208D" 
 />
    <glyph glyph-name="uni208E" 
 />
    <glyph glyph-name="uniF6DF" 
 />
    <glyph glyph-name="uniF6E1" 
 />
    <glyph glyph-name="uniF6E3" 
 />
    <glyph glyph-name="uniF6E5" 
 />
    <glyph glyph-name="uniF6E7" 
 />
    <glyph glyph-name="zero.numr" 
 />
    <glyph glyph-name="one.numr" 
 />
    <glyph glyph-name="two.numr" 
 />
    <glyph glyph-name="three.numr" 
 />
    <glyph glyph-name="four.numr" 
 />
    <glyph glyph-name="five.numr" 
 />
    <glyph glyph-name="six.numr" 
 />
    <glyph glyph-name="seven.numr" 
 />
    <glyph glyph-name="eight.numr" 
 />
    <glyph glyph-name="nine.numr" 
 />
    <glyph glyph-name="fraction" 
 />
    <glyph glyph-name="uni2215" 
 />
    <glyph glyph-name="zero.dnom" 
 />
    <glyph glyph-name="one.dnom" 
 />
    <glyph glyph-name="two.dnom" 
 />
    <glyph glyph-name="three.dnom" 
 />
    <glyph glyph-name="four.dnom" 
 />
    <glyph glyph-name="five.dnom" 
 />
    <glyph glyph-name="six.dnom" 
 />
    <glyph glyph-name="seven.dnom" 
 />
    <glyph glyph-name="eight.dnom" 
 />
    <glyph glyph-name="nine.dnom" 
 />
    <glyph glyph-name="onehalf" 
 />
    <glyph glyph-name="onequarter" 
 />
    <glyph glyph-name="threequarters" 
 />
    <glyph glyph-name="uni2153" 
 />
    <glyph glyph-name="uni2154" 
 />
    <glyph glyph-name="oneeighth" 
 />
    <glyph glyph-name="threeeighths" 
 />
    <glyph glyph-name="fiveeighths" 
 />
    <glyph glyph-name="seveneighths" 
 />
    <glyph glyph-name="arrowleft" 
 />
    <glyph glyph-name="arrowup" 
 />
    <glyph glyph-name="arrowright" 
 />
    <glyph glyph-name="arrowdown" 
 />
    <glyph glyph-name="uni22B2" 
 />
    <glyph glyph-name="uni22B3" 
 />
    <glyph glyph-name="filledbox" 
 />
    <glyph glyph-name="triagup" 
 />
    <glyph glyph-name="triagdn" 
 />
    <glyph glyph-name="uni25CF" 
 />
    <glyph glyph-name="uni2605" 
 />
    <glyph glyph-name="uni2610" 
 />
    <glyph glyph-name="uni2611" 
 />
    <glyph glyph-name="diamond" 
 />
    <glyph glyph-name="uni2713" 
 />
    <glyph glyph-name="uniF8FF" 
 />
    <glyph glyph-name="uni2318" 
 />
    </font>
</defs>
</svg>
