<?xml version="1.0" standalone="no"?>
<!DOCTYPE svg PUBLIC "-//W3C//DTD SVG 1.1//EN" "http://www.w3.org/Graphics/SVG/1.1/DTD/svg11.dtd" >
<svg>
<metadata>
Created by FontForge 20090914 at Thu Mar  7 10:14:47 2019
 By www-data
Copyright (c) Mark Simonson, 2005. All rights reserved.
</metadata>
<defs>
<font id="ProximaNova-Medium" horiz-adv-x="0" >
  <font-face 
    font-family="ProximaNova-Medium"
    font-weight="400"
    font-stretch="normal"
    units-per-em="1000"
    panose-1="2 0 5 6 3 0 0 2 0 4"
    ascent="800"
    descent="-200"
    x-height="483"
    cap-height="667"
    bbox="-44 -199.003 882 752"
    underline-thickness="64"
    underline-position="-88"
    unicode-range="U+0020-U+FB04"
  />
<missing-glyph horiz-adv-x="500" 
d="M74 752h351v-842h-351v842zM105 722v-782h288v782h-288z" />
    <glyph glyph-name="f_f" unicode="ff" horiz-adv-x="592" 
d="M94 404l-79.999 -0.000976562v79h80v32c0 50.667 13.5 90.334 40.5 119.001s62.5 43 106.5 43c32 0 58.333 -6 79 -18l-21 -67c-12.667 7.33301 -27 11 -43 11c-22.667 0 -40.334 -7.5 -53.001 -22.5s-19 -36.833 -19 -65.5v-32h98v-79h-98v-404h-90v404z
M390.001 403.999l-79.999 -0.000976562v79h80v32c0 50.667 13.5 90.334 40.5 119.001s62.5 43 106.5 43c32 0 58.333 -6 79 -18l-21 -67c-12.667 7.33301 -27 11 -43 11c-22.667 0 -40.334 -7.5 -53.001 -22.5s-19 -36.833 -19 -65.5v-32h98v-79h-98v-404h-90v404z" />
    <glyph glyph-name="fi" unicode="fi" horiz-adv-x="529" 
d="M94 404l-80 -0.000976562v79h80v32c0 50.667 13.5 90.334 40.5 119.001s62.5 43 106.5 43c32 0 58.333 -6 79 -18l-21 -67c-11.333 7.33301 -25.666 11 -42.999 11c-22.667 0 -40.334 -7.5 -53.001 -22.5s-19 -36.833 -19 -65.5v-32h98v-79h-98v-404h-90v404z
M371 580.499c-11.333 11 -17 24.5 -17 40.5s5.83301 29.667 17.5 41s25.167 17 40.5 17c16 0 29.667 -5.66699 41 -17s17 -25 17 -41s-5.66699 -29.5 -17 -40.5s-25 -16.5 -41 -16.5s-29.667 5.5 -41 16.5zM368 482.999h90v-483h-90v483z" />
    <glyph glyph-name="fl" unicode="fl" horiz-adv-x="529" 
d="M94 404l-80 -0.000976562v79h80v32c0 50.667 13.5 90.334 40.5 119.001s62.5 43 106.5 43c32 0 58.333 -6 79 -18l-21 -67c-11.333 7.33301 -25.666 11 -42.999 11c-22.667 0 -40.334 -7.5 -53.001 -22.5s-19 -36.833 -19 -65.5v-32h98v-79h-98v-404h-90v404z
M368 666.999h90v-667h-90v667z" />
    <glyph glyph-name="f_f_i" unicode="ffi" horiz-adv-x="825" 
d="M94 404l-79.999 -0.000976562v79h80v32c0 50.667 13.5 90.334 40.5 119.001s62.5 43 106.5 43c32 0 58.333 -6 79 -18l-21 -67c-12.667 7.33301 -27 11 -43 11c-22.667 0 -40.334 -7.5 -53.001 -22.5s-19 -36.833 -19 -65.5v-32h98v-79h-98v-404h-90v404z
M390.001 403.999l-80 -0.000976562v79h80v32c0 50.667 13.5 90.334 40.5 119.001s62.5 43 106.5 43c32 0 58.333 -6 79 -18l-21 -67c-11.333 7.33301 -25.666 11 -42.999 11c-22.667 0 -40.334 -7.5 -53.001 -22.5s-19 -36.833 -19 -65.5v-32h98v-79h-98v-404h-90v404z
M667.001 580.498c-11.333 11 -17 24.5 -17 40.5s5.83301 29.667 17.5 41s25.167 17 40.5 17c16 0 29.667 -5.66699 41 -17s17 -25 17 -41s-5.66699 -29.5 -17 -40.5s-25 -16.5 -41 -16.5s-29.667 5.5 -41 16.5zM664.001 482.998h90v-483h-90v483z" />
    <glyph glyph-name="f_f_l" unicode="ffl" horiz-adv-x="825" 
d="M94 404l-79.999 -0.000976562v79h80v32c0 50.667 13.5 90.334 40.5 119.001s62.5 43 106.5 43c32 0 58.333 -6 79 -18l-21 -67c-12.667 7.33301 -27 11 -43 11c-22.667 0 -40.334 -7.5 -53.001 -22.5s-19 -36.833 -19 -65.5v-32h98v-79h-98v-404h-90v404z
M390.001 403.999l-80 -0.000976562v79h80v32c0 50.667 13.5 90.334 40.5 119.001s62.5 43 106.5 43c32 0 58.333 -6 79 -18l-21 -67c-11.333 7.33301 -25.666 11 -42.999 11c-22.667 0 -40.334 -7.5 -53.001 -22.5s-19 -36.833 -19 -65.5v-32h98v-79h-98v-404h-90v404z
M664.001 666.998h90v-667h-90v667z" />
    <glyph glyph-name="f_b" unicode="fb" 
 />
    <glyph glyph-name="f_h" unicode="fh" 
 />
    <glyph glyph-name="f_j" unicode="fj" 
 />
    <glyph glyph-name="f_k" unicode="fk" 
 />
    <glyph glyph-name="f_f_j" unicode="ffj" 
 />
    <glyph glyph-name=".notdef" horiz-adv-x="500" 
d="M74 752h351v-842h-351v842zM105 722v-782h288v782h-288z" />
    <glyph glyph-name="space" unicode=" " horiz-adv-x="258" 
 />
    <glyph glyph-name="quotesingle" unicode="'" horiz-adv-x="206" 
d="M64 524.5c-8.66699 60.333 -13 93.833 -13 100.5c0 14 5 26.167 15 36.5s22.333 15.5 37 15.5s27.167 -5.16699 37.5 -15.5s15.5 -22.5 15.5 -36.5c0 -6.66699 -4.33301 -40.167 -13 -100.5l-18 -123.5h-43z" />
    <glyph glyph-name="parenleft" unicode="(" horiz-adv-x="262" 
d="M81.5 6.5c-25.667 77.667 -38.5 156.499 -38.5 236.499s12.833 158.667 38.5 236s61.5 146 107.5 206l55 -41c-34.667 -68 -60.5 -132.667 -77.5 -194s-25.5 -130.333 -25.5 -207s8.5 -145.667 25.5 -207s42.833 -125.666 77.5 -192.999l-55 -42
c-46 59.333 -81.833 127.833 -107.5 205.5z" />
    <glyph glyph-name="parenright" unicode=")" horiz-adv-x="262" 
d="M95.5 450.5c-17 61.667 -43.167 126.163 -78.5 193.496l55 41c46.667 -60 82.834 -128.5 108.501 -205.5s38.5 -155.833 38.5 -236.5s-12.833 -159.667 -38.5 -237s-61.834 -145.666 -108.501 -204.999l-55 42c35.333 66.667 61.5 130.834 78.5 192.501
s25.5 130.834 25.5 207.501s-8.5 145.834 -25.5 207.501z" />
    <glyph glyph-name="asterisk" unicode="*" horiz-adv-x="343" 
d="M151 496l-95 -62l-25 44l101 51l-101 52l25 44l95 -61l-5 113h51l-6 -113l95 61l25 -44l-100 -52l100 -51l-25 -44l-95 62l6 -113h-51z" />
    <glyph glyph-name="plus" unicode="+" horiz-adv-x="500" 
d="M283 97h-66v210h-188v60h188v203h66v-203h188v-60h-188v-210z" />
    <glyph glyph-name="comma" unicode="," horiz-adv-x="238" 
d="M57 -95c16.667 10 31.499 24 44.499 42s20.833 35 23.5 51c-1.33301 0 -3.33301 -0.333008 -6 -1s-5.66699 -1 -9 -1c-15.333 0 -28.166 5.33301 -38.499 16s-15.5 24.334 -15.5 41.001c0 17.333 6 31.833 18 43.5s26.333 17.5 43 17.5c19.333 0 35.833 -7.5 49.5 -22.5
s20.5 -35.167 20.5 -60.5c0 -31.333 -8 -61.333 -24 -90s-37.333 -52.334 -64 -71.001z" />
    <glyph glyph-name="hyphen" unicode="-" horiz-adv-x="300" 
d="M30 281h240v-78h-240v78z" />
    <glyph glyph-name="period" unicode="." horiz-adv-x="238" 
d="M74.5 96c12.333 12 26.833 18.002 43.5 18.002c17.333 0 32.166 -6.16699 44.499 -18.5s18.5 -26.833 18.5 -43.5s-6.16699 -31.334 -18.5 -44.001s-27.166 -19 -44.499 -19c-16.667 0 -31.167 6.16699 -43.5 18.5s-18.5 27.166 -18.5 44.499s6.16699 32 18.5 44z" />
    <glyph glyph-name="zero" unicode="0" horiz-adv-x="614" 
d="M74 499.5c18.667 52.333 47.5 95 86.5 128s87.833 49.5 146.5 49.5s107.5 -16.5 146.5 -49.5s67.833 -75.667 86.5 -128s28 -107.833 28 -166.5s-9.33301 -114.167 -28 -166.5s-47.5 -95.166 -86.5 -128.499s-87.833 -50 -146.5 -50s-107.5 16.667 -146.5 50
s-67.833 76.166 -86.5 128.499s-28 107.833 -28 166.5s9.33301 114.167 28 166.5zM427.5 515c-25.667 48.667 -65.834 73 -120.501 73s-94.834 -24.333 -120.501 -73s-38.5 -109.334 -38.5 -182.001s12.833 -133.5 38.5 -182.5s65.834 -73.5 120.501 -73.5
s94.834 24.5 120.501 73.5s38.5 109.833 38.5 182.5s-12.833 133.334 -38.5 182.001z" />
    <glyph glyph-name="one" unicode="1" horiz-adv-x="359" 
d="M185 536l-108 -113l-59 61l179 183h88v-667h-100v536z" />
    <glyph glyph-name="three" unicode="3" horiz-adv-x="565" 
d="M82 162c21.333 -26 48.502 -46.667 81.502 -62s67.833 -23 104.5 -23c46 0 82 10.167 108 30.5s39 48.166 39 83.499c0 70 -52.333 105 -157 105c-41.333 0 -65.333 -0.333008 -72 -1v91c7.33301 -0.666992 31.333 -1 72 -1c43.333 0 78.666 8.33301 105.999 25
s41 41.334 41 74.001s-13.5 58.167 -40.5 76.5s-61.167 27.5 -102.5 27.5c-34 0 -65.167 -6.5 -93.5 -19.5s-55.166 -32.167 -80.499 -57.5l-53 62c26.667 31.333 60 56.5 100 75.5s85.333 28.5 136 28.5c69.333 0 125.666 -16 168.999 -48s65 -75.667 65 -131
c0 -42.667 -14.667 -77.334 -44 -104.001s-63 -43.334 -101 -50.001c23.333 -2 46.833 -9.5 70.5 -22.5s43.667 -31.5 60 -55.5s24.5 -52.333 24.5 -85c0 -37.333 -9.83301 -70.666 -29.5 -99.999s-48 -52.166 -85 -68.499s-80.167 -24.5 -129.5 -24.5
c-55.333 0 -104.333 10.167 -147 30.5s-75.334 46.5 -98.001 78.5z" />
    <glyph glyph-name="four" unicode="4" horiz-adv-x="569" 
d="M347 160h-317v82l280 425h137v-419h92v-88h-92v-160h-100v160zM129 248h218v328z" />
    <glyph glyph-name="five" unicode="5" horiz-adv-x="595" 
d="M120 161c45.333 -56 105.999 -83.998 181.999 -83.998c42.667 0 77.5 12.333 104.5 37s40.5 55.667 40.5 93c0 40 -13 71.833 -39 95.5s-60.667 35.5 -104 35.5c-29.333 0 -56.166 -4.83301 -80.499 -14.5s-47.5 -24.834 -69.5 -45.501l-72 23v366h422v-88h-322v-213
c17.333 17.333 39.5 31.5 66.5 42.5s55.833 16.5 86.5 16.5c38 0 73.167 -8.5 105.5 -25.5s58.333 -41.667 78 -74s29.5 -70.5 29.5 -114.5c0 -44.667 -10.5 -83.834 -31.5 -117.501s-50.167 -59.667 -87.5 -78s-79.333 -27.5 -126 -27.5c-105.333 0 -186 35 -242 105z" />
    <glyph glyph-name="six" unicode="6" horiz-adv-x="596" 
d="M77.5 506.5c21 52.333 52.8311 93.834 95.498 124.501s94.667 46 156 46c77.333 0 140 -25.667 188 -77l-49 -76c-18.667 21.333 -38.667 37.333 -60 48s-47.666 16 -78.999 16c-38.667 0 -71.667 -11.167 -99 -33.5s-48 -51.833 -62 -88.5s-21 -76.334 -21 -119.001
c0 -10 0.333008 -17.333 1 -22c16 25.333 41 48 75 68s70 30 108 30c40.667 0 77.834 -8.16699 111.501 -24.5s60.334 -40.5 80.001 -72.5s29.5 -71 29.5 -117c0 -40 -9.83301 -76.833 -29.5 -110.5s-47.834 -60.5 -84.501 -80.5s-78.667 -30 -126 -30
c-60.667 0 -111 15.5 -151 46.5s-69.167 72.333 -87.5 124s-27.5 109.5 -27.5 173.5s10.5 122.167 31.5 174.5zM409.998 303.501c-27.333 22.333 -62.001 33.501 -104.001 33.501c-30.667 0 -60 -8.16699 -88 -24.5s-51 -37.833 -69 -64.5
c4.66699 -46.667 19.834 -86.834 45.501 -120.501s63.167 -50.5 112.5 -50.5c30 0 56 6.33301 78 19s38.5 29 49.5 49s16.5 40.333 16.5 61c0 42.667 -13.667 75.167 -41 97.5z" />
    <glyph glyph-name="eight" unicode="8" horiz-adv-x="588" 
d="M91 277.5c29.333 30.333 66.001 52.501 110.001 66.501c-42 12.667 -76.333 32.334 -103 59.001s-40 60 -40 100c0 38.667 11.333 71 34 97s52 45.333 88 58s74.333 19 115 19c40 0 78 -6.33301 114 -19s65.333 -32.167 88 -58.5s34 -58.5 34 -96.5
c0 -40 -13.5 -73.333 -40.5 -100s-61.5 -46.334 -103.5 -59.001c44 -14 80.667 -36.167 110 -66.5s44 -66.166 44 -107.499c0 -37.333 -11 -69.833 -33 -97.5s-51.833 -48.667 -89.5 -63s-78.834 -21.5 -123.501 -21.5c-46 0 -87.833 7.16699 -125.5 21.5
s-67.5 35.166 -89.5 62.499s-33 60 -33 98c0 41.333 14.667 77.166 44 107.499zM391.501 561.001c-25.667 18 -57.833 27 -96.5 27c-40 0 -72.667 -9 -98 -27s-38 -42.333 -38 -73s14.667 -54.334 44 -71.001s60 -27.667 92 -33c32 5.33301 62.5 16.333 91.5 33
s43.5 40.334 43.5 71.001s-12.833 55 -38.5 73zM415.002 243.001c-17.333 16.667 -37.332 29.667 -59.999 39s-42.667 15 -60 17c-17.333 -2 -37.5 -7.5 -60.5 -16.5s-43.167 -22 -60.5 -39s-26 -37.5 -26 -61.5c0 -31.333 14.167 -56.666 42.5 -75.999
s63.166 -29 104.499 -29c40 0 74.333 9.66699 103 29s43 44.666 43 75.999c0 24 -8.66699 44.333 -26 61z" />
    <glyph glyph-name="A" unicode="A" horiz-adv-x="666" 
d="M496 138h-327l-54 -138h-110l265 667h125l265 -667h-110zM198 227h269l-135 353z" />
    <glyph glyph-name="C" unicode="C" horiz-adv-x="679" 
d="M215 31.5c-52 29 -93.167 69.8311 -123.5 122.498s-45.5 112.334 -45.5 179.001s15.167 126.334 45.5 179.001s71.5 93.5 123.5 122.5s109.667 43.5 173 43.5c114 0 202.333 -47 265 -141l-85 -45c-18 29.333 -43 52.833 -75 70.5s-67 26.5 -105 26.5
c-44.667 0 -85.167 -11 -121.5 -33s-65 -52.333 -86 -91s-31.5 -82.667 -31.5 -132c0 -48.667 10.5 -92.5 31.5 -131.5s49.667 -69.5 86 -91.5s76.833 -33 121.5 -33c38 0 73 8.83301 105 26.5s57 41.167 75 70.5l85 -45c-64 -94 -152.333 -141 -265 -141
c-63.333 0 -121 14.5 -173 43.5z" />
    <glyph glyph-name="I" unicode="I" horiz-adv-x="249" 
d="M74 667h100v-667h-100v667z" />
    <glyph glyph-name="P" unicode="P" horiz-adv-x="597" 
d="M74 667l281 -0.00390625c44 0 82.167 -9.16699 114.5 -27.5s56.833 -43.166 73.5 -74.499s25 -65.666 25 -102.999s-8.5 -71.666 -25.5 -102.999s-41.5 -56.166 -73.5 -74.499s-70 -27.5 -114 -27.5h-181v-257h-100v667zM430.5 546.496
c-23 21.667 -52.5 32.498 -88.5 32.498h-168v-234h168c36 0 65.5 10.833 88.5 32.5s34.5 49.834 34.5 84.501s-11.5 62.834 -34.5 84.501z" />
    <glyph glyph-name="T" unicode="T" horiz-adv-x="573" 
d="M237 579h-207v88h513v-88h-206v-579h-100v579z" />
    <glyph glyph-name="U" unicode="U" horiz-adv-x="710" 
d="M74 667h101.001v-403c0 -58 15.667 -103.667 47 -137s75.666 -50 132.999 -50s101.5 16.667 132.5 50s46.5 79 46.5 137v403h101v-405c0 -85.333 -23.833 -152.333 -71.5 -201s-117.167 -73 -208.5 -73s-161 24.5 -209 73.5s-72 115.5 -72 199.5v406z" />
    <glyph glyph-name="W" unicode="W" horiz-adv-x="893" 
d="M446 515l-138 -515h-107l-191 667h112l138 -535l146 535h81l145 -535l138 535h112l-190 -667h-107z" />
    <glyph glyph-name="bracketleft" unicode="[" horiz-adv-x="254" 
d="M42 678h195v-64h-127v-740h127v-64h-195v868z" />
    <glyph glyph-name="backslash" unicode="\" horiz-adv-x="306" 
d="M69 687l237 -707h-69l-237 707h69z" />
    <glyph glyph-name="bracketright" unicode="]" horiz-adv-x="254" 
d="M17 -126h127v740h-127v64h195v-868h-195v64z" />
    <glyph glyph-name="asciicircum" unicode="^" horiz-adv-x="434" 
d="M217 603l-127 -270h-71l165 334h67l164 -334h-70z" />
    <glyph glyph-name="underscore" unicode="_" horiz-adv-x="564" 
d="M-3 -40h570v-64h-570v64z" />
    <glyph glyph-name="grave" unicode="`" horiz-adv-x="233" 
d="M0 700h89l144 -144h-66z" />
    <glyph glyph-name="a" unicode="a" horiz-adv-x="532" 
d="M370 53c-19.333 -21.333 -42.333 -37.499 -69 -48.499s-56.334 -16.5 -89.001 -16.5c-28 0 -54.833 6.16699 -80.5 18.5s-46.667 30.666 -63 54.999s-24.5 53.166 -24.5 86.499c0 34.667 8 63.834 24 87.501s36.833 41.334 62.5 53.001s52.834 17.5 81.501 17.5
c33.333 0 63.5 -5.33301 90.5 -16s49.5 -26.667 67.5 -48v80c0 29.333 -10.833 52.666 -32.5 69.999s-50.167 26 -85.5 26c-54 0 -102.333 -21.333 -145 -64l-39 62c53.333 52.667 119.333 79 198 79c57.333 0 104 -13.667 140 -41s54 -70 54 -128v-326h-90v53zM370 188.001
c-13.333 18 -31 31.6689 -53 41.002s-45.667 14 -71 14c-32.667 0 -59.334 -8.83301 -80.001 -26.5s-31 -40.834 -31 -69.501s10.333 -51.834 31 -69.501s47.334 -26.5 80.001 -26.5c25.333 0 49 4.66699 71 14s39.667 23 53 41v82z" />
    <glyph glyph-name="b" unicode="b" horiz-adv-x="578" 
d="M72 667l90.0029 -0.00292969v-254c19.333 26 42.666 46.167 69.999 60.5s56.666 21.5 87.999 21.5c42 0 79.167 -10.5 111.5 -31.5s57.666 -50.667 75.999 -89s27.5 -82.833 27.5 -133.5c0 -51.333 -9.16699 -96.166 -27.5 -134.499s-43.666 -67.666 -75.999 -87.999
s-69.5 -30.5 -111.5 -30.5c-31.333 0 -60.833 7.33301 -88.5 22s-50.834 34.334 -69.501 59.001v-69h-90v667zM218.003 87.9971c25.333 -13.333 51.333 -19.999 78 -19.999c44.667 0 80.167 16 106.5 48s39.5 73.667 39.5 125s-13.167 93.166 -39.5 125.499
s-61.833 48.5 -106.5 48.5c-26.667 0 -52.5 -7 -77.5 -21s-43.833 -31 -56.5 -51v-205c12 -20 30.667 -36.667 56 -50z" />
    <glyph glyph-name="c" unicode="c" horiz-adv-x="496" 
d="M73 371.5c20.667 38.333 49.667 68.501 87 90.501s80 33 128 33c78.667 0 139 -28.333 181 -85l-60 -55c-28 40 -67 60 -117 60c-46.667 0 -84.334 -16.167 -113.001 -48.5s-43 -73.833 -43 -124.5s14.333 -92.334 43 -125.001s66.334 -49 113.001 -49
c49.333 0 88.333 20 117 60l60 -55c-42 -56.667 -102.333 -85 -181 -85c-48 0 -90.667 11 -128 33s-66.333 52.333 -87 91s-31 82 -31 130s10.333 91.167 31 129.5z" />
    <glyph glyph-name="d" unicode="d" horiz-adv-x="578" 
d="M416 69c-18.667 -24.667 -41.834 -44.333 -69.501 -59s-57.167 -22 -88.5 -22c-42 0 -79.333 10.167 -112 30.5s-58.167 49.5 -76.5 87.5s-27.5 83 -27.5 135c0 50.667 9.16699 95.167 27.5 133.5s43.833 68 76.5 89s70 31.5 112 31.5
c30.667 0 59.834 -7.16699 87.501 -21.5s51.167 -34.5 70.5 -60.5v254h90v-667h-90v69zM416 344.001c-12.667 20 -31.5 36.832 -56.5 50.499s-50.833 20.5 -77.5 20.5c-44.667 0 -80.167 -16.167 -106.5 -48.5s-39.5 -74.166 -39.5 -125.499
c0 -50.667 13.167 -92.167 39.5 -124.5s61.833 -48.5 106.5 -48.5c26.667 0 52.5 6.66699 77.5 20s43.833 30 56.5 50v206z" />
    <glyph glyph-name="e" unicode="e" horiz-adv-x="560" 
d="M73 369c20.667 38.667 49.5 69.335 86.5 92.002s78.5 34 124.5 34c47.333 0 88.833 -11.333 124.5 -34s63 -53.834 82 -93.501s28.5 -84.167 28.5 -133.5v-22h-382c3.33301 -42.667 19.833 -78.334 49.5 -107.001s67.834 -43 114.501 -43c26 0 52 5 78 15
s47.667 24 65 42l42 -59c-24 -23.333 -52.5 -41.166 -85.5 -53.499s-69.167 -18.5 -108.5 -18.5c-48 0 -90.833 10.667 -128.5 32s-67.334 51.166 -89.001 89.499s-32.5 82.5 -32.5 132.5c0 46 10.333 88.333 31 127zM205.5 399.501
c-21.667 -14.333 -38.165 -32.5 -49.498 -54.5s-18 -44.667 -20 -68h295c-0.666992 23.333 -6.33398 46 -17.001 68s-27 40.167 -49 54.5s-49 21.5 -81 21.5c-30.667 0 -56.834 -7.16699 -78.501 -21.5z" />
    <glyph glyph-name="f" unicode="f" horiz-adv-x="296" 
d="M94 404l-79.999 -0.000976562v79h80v32c0 50.667 13.5 90.334 40.5 119.001s62.5 43 106.5 43c32 0 58.333 -6 79 -18l-21 -67c-12.667 7.33301 -27 11 -43 11c-22.667 0 -40.334 -7.5 -53.001 -22.5s-19 -36.833 -19 -65.5v-32h98v-79h-98v-404h-90v404z" />
    <glyph glyph-name="g" unicode="g" horiz-adv-x="577" 
d="M111 -58c19.333 -22.667 41.501 -39.001 66.501 -49.001s54.5 -15 88.5 -15c42 0 77.5 11.167 106.5 33.5s43.5 57.166 43.5 104.499v63c-19.333 -25.333 -42.833 -45.5 -70.5 -60.5s-57.167 -22.5 -88.5 -22.5c-42 0 -79.167 10 -111.5 30s-57.666 48.833 -75.999 86.5
s-27.5 82.167 -27.5 133.5c0 50.667 9.16699 94.834 27.5 132.501s43.666 66.5 75.999 86.5s69.5 30 111.5 30c31.333 0 60.833 -7.16699 88.5 -21.5s51.167 -34.5 70.5 -60.5v70h90v-464c0 -76.667 -22.833 -131.667 -68.5 -165s-102.834 -50 -171.501 -50
c-42 0 -78.5 5.33301 -109.5 16s-60.5 29.334 -88.5 56.001zM416.001 343.999c-12.667 20 -31.5 36.833 -56.5 50.5s-50.833 20.5 -77.5 20.5c-44.667 0 -80.167 -15.667 -106.5 -47s-39.5 -72 -39.5 -122c0 -50.667 13.167 -91.667 39.5 -123s61.833 -47 106.5 -47
c26 0 51.667 7 77 21s44.333 31 57 51v196z" />
    <glyph glyph-name="h" unicode="h" horiz-adv-x="560" 
d="M398 311c0 38 -8.83398 64.833 -26.501 80.5s-43.167 23.5 -76.5 23.5c-26.667 0 -52 -6.83301 -76 -20.5s-43 -30.167 -57 -49.5v-345h-90v667h90v-252c18 22 42.333 40.833 73 56.5s63.334 23.5 98.001 23.5c103.333 0 155 -51.333 155 -154v-341h-90v311z" />
    <glyph glyph-name="i" unicode="i" horiz-adv-x="233" 
d="M75 580.5c-11.333 11 -17 24.5 -17 40.5s5.83301 29.667 17.5 41s25.167 17 40.5 17c16 0 29.667 -5.66699 41 -17s17 -25 17 -41s-5.66699 -29.5 -17 -40.5s-25 -16.5 -41 -16.5s-29.667 5.5 -41 16.5zM72 483h90v-483h-90v483z" />
    <glyph glyph-name="j" unicode="j" horiz-adv-x="233" 
d="M75 580.5c-11.333 11 -17 24.5 -17 40.5s5.83301 29.667 17.5 41s25.167 17 40.5 17c16 0 29.667 -5.66699 41 -17s17 -25 17 -41s-5.66699 -29.5 -17 -40.5s-25 -16.5 -41 -16.5s-29.667 5.5 -41 16.5zM162 -38c0 -50 -13 -88.832 -39 -116.499
s-63.333 -41.5 -112 -41.5c-20.667 0 -39 2 -55 6l11 75c8 -2.66699 19 -4 33 -4c22 0 39.5 6.66699 52.5 20s19.5 33.666 19.5 60.999v521h90v-521z" />
    <glyph glyph-name="k" unicode="k" horiz-adv-x="520" 
d="M235 208l-73 -74v-134h-90v667h90v-429l233 245h113l-208 -219l210 -264h-114z" />
    <glyph glyph-name="l" unicode="l" horiz-adv-x="233" 
d="M72 667h90v-667h-90v667z" />
    <glyph glyph-name="m" unicode="m" horiz-adv-x="820" 
d="M659 322c0 29.333 -6.83301 52.166 -20.5 68.499s-34.834 24.5 -63.501 24.5c-23.333 0 -46 -6.83301 -68 -20.5s-39.333 -29.834 -52 -48.501v-346h-90v322c0 62 -28.333 93 -85 93c-22 0 -43.833 -6.83301 -65.5 -20.5s-39.167 -30.167 -52.5 -49.5v-345h-90v483h90
v-68c12 18.667 32.833 36.667 62.5 54s60.834 26 93.501 26c35.333 0 64 -8.16699 86 -24.5s37 -38.166 45 -65.499c15.333 24.667 38 45.834 68 63.501s61.667 26.5 95 26.5c44.667 0 78.667 -12.333 102 -37s35 -61 35 -109v-349h-90v322z" />
    <glyph glyph-name="n" unicode="n" horiz-adv-x="559" 
d="M398 309c0 38 -8.83398 65.166 -26.501 81.499s-43.167 24.5 -76.5 24.5c-26.667 0 -52 -6.83301 -76 -20.5s-43 -30.167 -57 -49.5v-345h-90v483h90v-68c18 22 42.333 40.833 73 56.5s63.334 23.5 98.001 23.5c50.667 0 89.167 -13.167 115.5 -39.5
s39.5 -65.166 39.5 -116.499v-339h-90v309z" />
    <glyph glyph-name="o" unicode="o" horiz-adv-x="572" 
d="M157.5 22c-37 22.667 -65.5 53.334 -85.5 92.001s-30 81.334 -30 128.001s10 89.167 30 127.5s48.5 68.833 85.5 91.5s79.833 34 128.5 34s91.5 -11.333 128.5 -34s65.5 -53.167 85.5 -91.5s30 -80.833 30 -127.5s-10 -89.334 -30 -128.001s-48.5 -69.334 -85.5 -92.001
s-79.833 -34 -128.5 -34s-91.5 11.333 -128.5 34zM367 92c22.667 16 39.834 37.165 51.501 63.498s17.5 55.166 17.5 86.499c0 30.667 -5.83301 59.334 -17.5 86.001s-28.834 47.834 -51.501 63.501s-49.667 23.5 -81 23.5c-30.667 0 -57.334 -8 -80.001 -24
s-40 -37.167 -52 -63.5s-18 -54.833 -18 -85.5c0 -31.333 6 -60.166 18 -86.499s29.333 -47.5 52 -63.5s49.334 -24 80.001 -24c31.333 0 58.333 8 81 24z" />
    <glyph glyph-name="p" unicode="p" horiz-adv-x="577" 
d="M72 -184l-0.00195312 666.998h90v-69c18 24.667 40.833 44.334 68.5 59.001s57.5 22 89.5 22c42 0 79.167 -10.167 111.5 -30.5s57.666 -49.5 75.999 -87.5s27.5 -83 27.5 -135s-9.16699 -97.167 -27.5 -135.5s-43.666 -67.666 -75.999 -87.999s-69.5 -30.5 -111.5 -30.5
c-31.333 0 -60.666 7 -87.999 21s-50.666 34.333 -69.999 61v-254h-90zM401.498 366.498c-26.333 32.333 -61.5 48.501 -105.5 48.501c-26.667 0 -52.667 -6.83301 -78 -20.5s-44 -30.5 -56 -50.5v-205c12.667 -20 31.5 -36.833 56.5 -50.5s50.833 -20.5 77.5 -20.5
c44 0 79.167 16.167 105.5 48.5s39.5 74.166 39.5 125.499c0 50.667 -13.167 92.167 -39.5 124.5z" />
    <glyph glyph-name="q" unicode="q" horiz-adv-x="577" 
d="M416 -184l-0.000976562 254.002c-19.333 -26.667 -42.833 -47 -70.5 -61s-57.167 -21 -88.5 -21c-42 0 -79.167 10.167 -111.5 30.5s-57.666 49.666 -75.999 87.999s-27.5 83.5 -27.5 135.5s9.16699 97 27.5 135s43.666 67.167 75.999 87.5s69.5 30.5 111.5 30.5
c32 0 61.833 -7.33301 89.5 -22s50.834 -34.334 69.501 -59.001v69h90v-667h-90zM415.999 344.002c-12.667 20 -31.5 36.832 -56.5 50.499s-50.833 20.5 -77.5 20.5c-44.667 0 -80.167 -16.167 -106.5 -48.5s-39.5 -73.833 -39.5 -124.5
c0 -51.333 13.167 -93.166 39.5 -125.499s61.833 -48.5 106.5 -48.5c26 0 51.667 6.83301 77 20.5s44.333 30.5 57 50.5v205z" />
    <glyph glyph-name="r" unicode="r" horiz-adv-x="338" 
d="M72 483h90v-74c19.333 25.333 42.833 45.833 70.5 61.5s56.834 23.5 87.501 23.5v-91c-9.33301 2 -19.666 3 -30.999 3c-22.667 0 -46.834 -7.16699 -72.501 -21.5s-43.834 -30.5 -54.501 -48.5v-336h-90v483z" />
    <glyph glyph-name="s" unicode="s" horiz-adv-x="468" 
d="M73 129c17.333 -19.333 41 -35.667 71 -49s60.333 -20 91 -20c33.333 0 59 6.16699 77 18.5s27 29.166 27 50.499s-10 37.5 -30 48.5s-49 20.833 -87 29.5c-37.333 8.66699 -67.833 17.5 -91.5 26.5s-44 23 -61 42s-25.5 44.5 -25.5 76.5c0 26 7.33301 49.833 22 71.5
s35.834 39 63.501 52s60.5 19.5 98.5 19.5c74 0 135.333 -23 184 -69l-40 -63c-14.667 17.333 -34.667 31.5 -60 42.5s-53 16.5 -83 16.5c-30.667 0 -54.834 -5.66699 -72.501 -17s-26.5 -26.666 -26.5 -45.999c0 -18.667 9.33301 -32.834 28 -42.501
s46.667 -18.834 84 -27.501c38.667 -8.66699 70.167 -17.667 94.5 -27s45.333 -24.166 63 -44.499s26.5 -47.5 26.5 -81.5c0 -43.333 -17.167 -78.833 -51.5 -106.5s-82.166 -41.5 -143.499 -41.5c-40.667 0 -78.334 6.33301 -113.001 19s-64 31.334 -88 56.001z" />
    <glyph glyph-name="t" unicode="t" horiz-adv-x="306" 
d="M119 19c-19.333 20.667 -29 50 -29 88v297h-80v79h80v132h90v-132h98v-79h-98v-277c0 -17.333 4 -31.5 12 -42.5s19.667 -16.5 35 -16.5c10 0 19.5 1.83301 28.5 5.5s15.833 8.16699 20.5 13.5l23 -68c-22 -20.667 -53.333 -31 -94 -31c-38 0 -66.667 10.333 -86 31z" />
    <glyph glyph-name="u" unicode="u" horiz-adv-x="559" 
d="M398 66c-20.667 -22.667 -45.8311 -41.333 -75.498 -56s-61.834 -22 -96.501 -22c-102.667 0 -154 51.333 -154 154v341h90v-311c0 -38 8.66699 -64.833 26 -80.5s42.666 -23.5 75.999 -23.5c26.667 0 52 6.5 76 19.5s43.333 29.167 58 48.5v347h90v-483h-90v66z" />
    <glyph glyph-name="v" unicode="v" horiz-adv-x="497" 
d="M1 483h96l151 -379l151 379h97l-199 -483h-97z" />
    <glyph glyph-name="w" unicode="w" horiz-adv-x="744" 
d="M372 371l-119 -371h-93l-152 483h94l110 -368l121 368h78l121 -368l110 368h94l-152 -483h-93z" />
    <glyph glyph-name="x" unicode="x" horiz-adv-x="491" 
d="M246 188l-136 -188h-102l181 248l-170 235h102l125 -174l124 174h102l-171 -235l182 -248h-102z" />
    <glyph glyph-name="y" unicode="y" horiz-adv-x="497" 
d="M102 -116c17.333 0 31.502 3.5 42.502 10.5s20.167 19.167 27.5 36.5l28 64l-199 488h96l151 -379l151 379h97l-238 -575c-14.667 -36.667 -34.834 -63 -60.501 -79s-56.834 -24.333 -93.501 -25c-8.66699 0 -18.5 0.666992 -29.5 2s-19.833 3 -26.5 5l14 81
c12 -5.33301 25.333 -8 40 -8z" />
    <glyph glyph-name="z" unicode="z" horiz-adv-x="474" 
d="M49 69l252 335h-252v79h371v-67l-254 -338h258v-78h-375v69z" />
    <glyph glyph-name="quoteright" unicode="&#x2019;" horiz-adv-x="237" 
d="M57 467c16 10 30.666 24.166 43.999 42.499s21.333 35.5 24 51.5c-4 -2 -9 -3 -15 -3c-15.333 0 -28.166 5.33301 -38.499 16s-15.5 24.334 -15.5 41.001c0 17.333 6 32 18 44s26.333 18 43 18c19.333 0 35.833 -7.5 49.5 -22.5s20.5 -35.167 20.5 -60.5
c0 -32 -8 -62.333 -24 -91s-37.333 -52 -64 -70z" />
    <glyph glyph-name="quotesinglbase" unicode="&#x201a;" horiz-adv-x="238" 
d="M57 -95c16.667 10 31.499 24 44.499 42s20.833 35 23.5 51c-1.33301 0 -3.33301 -0.333008 -6 -1s-5.66699 -1 -9 -1c-15.333 0 -28.166 5.33301 -38.499 16s-15.5 24.334 -15.5 41.001c0 17.333 6 31.833 18 43.5s26.333 17.5 43 17.5c19.333 0 35.833 -7.5 49.5 -22.5
s20.5 -35.167 20.5 -60.5c0 -31.333 -8 -61.333 -24 -90s-37.333 -52.334 -64 -71.001z" />
    <glyph glyph-name="quotereversed" unicode="&#x201b;" horiz-adv-x="237" 
d="M163 659c12 -12 17.998 -26.666 17.998 -43.999c0 -16.667 -5.16699 -30.334 -15.5 -41.001s-23.166 -16 -38.499 -16c-4.66699 0 -10 1 -16 3c2.66699 -16 10.834 -33.167 24.501 -51.5s28.5 -32.5 44.5 -42.5l-42 -34c-26.667 18 -48 41.333 -64 70s-24 59 -24 91
c0 25.333 6.83301 45.5 20.5 60.5s30.167 22.5 49.5 22.5c16.667 0 31 -6 43 -18z" />
    <glyph glyph-name="quotedblleft" unicode="&#x201c;" horiz-adv-x="409" 
d="M180 643c-16.667 -10.667 -31.668 -24.8291 -45.001 -42.4961s-21.333 -34.834 -24 -51.501c2.66699 1.33301 8 2 16 2c15.333 0 28 -5.33301 38 -16s15 -24.334 15 -41.001s-5.83301 -31 -17.5 -43s-26.167 -18 -43.5 -18c-19.333 0 -35.666 7.66699 -48.999 23
s-20 35.666 -20 60.999c0 31.333 8 61.166 24 89.499s37 51.833 63 70.5zM351.999 643.005c-16.667 -10 -31.5 -23.9971 -44.5 -41.9971s-20.833 -35.333 -23.5 -52c2.66699 1.33301 7.66699 2 15 2c15.333 0 28.166 -5.33301 38.499 -16s15.5 -24.334 15.5 -41.001
s-6 -31 -18 -43s-26.333 -18 -43 -18c-19.333 0 -35.666 7.66699 -48.999 23s-20 35.666 -20 60.999c0 31.333 7.83301 61.166 23.5 89.499s36.5 51.833 62.5 70.5z" />
    <glyph glyph-name="quotedblright" unicode="&#x201d;" horiz-adv-x="409" 
d="M57 467c16 10 30.666 24.166 43.999 42.499s21.333 35.5 24 51.5c-4 -2 -9 -3 -15 -3c-15.333 0 -28.166 5.33301 -38.499 16s-15.5 24.334 -15.5 41.001c0 17.333 6 32 18 44s26.333 18 43 18c19.333 0 35.833 -7.5 49.5 -22.5s20.5 -35.167 20.5 -60.5
c0 -32 -8 -62.333 -24 -91s-37.333 -52 -64 -70zM229.999 466.999c16 10 30.667 23.999 44 41.999s21.333 35.333 24 52c-4 -2 -9 -3 -15 -3c-15.333 0 -28.333 5.33301 -39 16s-16 24.334 -16 41.001s6 31.167 18 43.5s26.333 18.5 43 18.5
c19.333 0 35.833 -7.5 49.5 -22.5s20.5 -35.167 20.5 -60.5c0 -32 -8 -62.333 -24 -91s-37 -52 -63 -70z" />
    <glyph glyph-name=".null" 
 />
    <glyph glyph-name="nonmarkingreturn" 
 />
    <glyph glyph-name="NULL" 
 />
    <glyph glyph-name="uni00A0" 
 />
    <glyph glyph-name="uni2009" 
 />
    <glyph glyph-name="uni200A" 
 />
    <glyph glyph-name="uni2001" 
 />
    <glyph glyph-name="uni2003" 
 />
    <glyph glyph-name="uni2000" 
 />
    <glyph glyph-name="uni2002" 
 />
    <glyph glyph-name="uni2005" 
 />
    <glyph glyph-name="uni2006" 
 />
    <glyph glyph-name="uni2004" 
 />
    <glyph glyph-name="uni2007" 
 />
    <glyph glyph-name="uni2008" 
 />
    <glyph glyph-name="zero.pzero" 
 />
    <glyph glyph-name="two" 
 />
    <glyph glyph-name="seven" 
 />
    <glyph glyph-name="nine" 
 />
    <glyph glyph-name="zero.tnum" 
 />
    <glyph glyph-name="zero.tzero" 
 />
    <glyph glyph-name="one.tnum" 
 />
    <glyph glyph-name="one.tnum_alt" 
 />
    <glyph glyph-name="two.tnum" 
 />
    <glyph glyph-name="three.tnum" 
 />
    <glyph glyph-name="four.tnum" 
 />
    <glyph glyph-name="five.tnum" 
 />
    <glyph glyph-name="six.tnum" 
 />
    <glyph glyph-name="seven.tnum" 
 />
    <glyph glyph-name="eight.tnum" 
 />
    <glyph glyph-name="nine.tnum" 
 />
    <glyph glyph-name="zero.tonum" 
 />
    <glyph glyph-name="zero.tonumzero" 
 />
    <glyph glyph-name="one.tonum" 
 />
    <glyph glyph-name="two.tonum" 
 />
    <glyph glyph-name="three.tonum" 
 />
    <glyph glyph-name="four.tonum" 
 />
    <glyph glyph-name="five.tonum" 
 />
    <glyph glyph-name="six.tonum" 
 />
    <glyph glyph-name="seven.tonum" 
 />
    <glyph glyph-name="eight.tonum" 
 />
    <glyph glyph-name="nine.tonum" 
 />
    <glyph glyph-name="zero.onum" 
 />
    <glyph glyph-name="zero.onumzero" 
 />
    <glyph glyph-name="one.onum" 
 />
    <glyph glyph-name="two.onum" 
 />
    <glyph glyph-name="three.onum" 
 />
    <glyph glyph-name="four.onum" 
 />
    <glyph glyph-name="five.onum" 
 />
    <glyph glyph-name="six.onum" 
 />
    <glyph glyph-name="seven.onum" 
 />
    <glyph glyph-name="eight.onum" 
 />
    <glyph glyph-name="nine.onum" 
 />
    <glyph glyph-name="B" 
 />
    <glyph glyph-name="D" 
 />
    <glyph glyph-name="E" 
 />
    <glyph glyph-name="F" 
 />
    <glyph glyph-name="G" 
 />
    <glyph glyph-name="G.alt1" 
 />
    <glyph glyph-name="H" 
 />
    <glyph glyph-name="J" 
 />
    <glyph glyph-name="K" 
 />
    <glyph glyph-name="L" 
 />
    <glyph glyph-name="M" 
 />
    <glyph glyph-name="N" 
 />
    <glyph glyph-name="O" 
 />
    <glyph glyph-name="Q" 
 />
    <glyph glyph-name="R" 
 />
    <glyph glyph-name="S" 
 />
    <glyph glyph-name="V" 
 />
    <glyph glyph-name="X" 
 />
    <glyph glyph-name="Y" 
 />
    <glyph glyph-name="Z" 
 />
    <glyph glyph-name="a.alt1" 
 />
    <glyph glyph-name="f.alt1" horiz-adv-x="296" 
d="M94 404l-80 -0.000976562v79h80v32c0 50.667 13.5 90.334 40.5 119.001s62.5 43 106.5 43c32 0 58.333 -6 79 -18l-21 -67c-11.333 7.33301 -25.666 11 -42.999 11c-22.667 0 -40.334 -7.5 -53.001 -22.5s-19 -36.833 -19 -65.5v-32h98v-79h-98v-404h-90v404z" />
    <glyph glyph-name="l.alt1" 
 />
    <glyph glyph-name="y.alt1" 
 />
    <glyph glyph-name="A.smcp" 
 />
    <glyph glyph-name="B.smcp" 
 />
    <glyph glyph-name="C.smcp" 
 />
    <glyph glyph-name="D.smcp" 
 />
    <glyph glyph-name="E.smcp" 
 />
    <glyph glyph-name="F.smcp" 
 />
    <glyph glyph-name="G.smcp" 
 />
    <glyph glyph-name="G.smcp.alt1" 
 />
    <glyph glyph-name="H.smcp" 
 />
    <glyph glyph-name="I.smcp" 
 />
    <glyph glyph-name="J.smcp" 
 />
    <glyph glyph-name="K.smcp" 
 />
    <glyph glyph-name="L.smcp" 
 />
    <glyph glyph-name="M.smcp" 
 />
    <glyph glyph-name="N.smcp" 
 />
    <glyph glyph-name="O.smcp" 
 />
    <glyph glyph-name="P.smcp" 
 />
    <glyph glyph-name="Q.smcp" 
 />
    <glyph glyph-name="R.smcp" 
 />
    <glyph glyph-name="S.smcp" 
 />
    <glyph glyph-name="T.smcp" 
 />
    <glyph glyph-name="U.smcp" 
 />
    <glyph glyph-name="V.smcp" 
 />
    <glyph glyph-name="W.smcp" 
 />
    <glyph glyph-name="X.smcp" 
 />
    <glyph glyph-name="Y.smcp" 
 />
    <glyph glyph-name="Z.smcp" 
 />
    <glyph glyph-name="Aacute" 
 />
    <glyph glyph-name="Abreve" 
 />
    <glyph glyph-name="Acircumflex" 
 />
    <glyph glyph-name="Adieresis" 
 />
    <glyph glyph-name="Agrave" 
 />
    <glyph glyph-name="Amacron" 
 />
    <glyph glyph-name="Aogonek" 
 />
    <glyph glyph-name="Aring" 
 />
    <glyph glyph-name="Aringacute" 
 />
    <glyph glyph-name="Atilde" 
 />
    <glyph glyph-name="uni1EA0" 
 />
    <glyph glyph-name="uni1EA2" 
 />
    <glyph glyph-name="uni1EA4" 
 />
    <glyph glyph-name="uni1EAC" 
 />
    <glyph glyph-name="uni1EA6" 
 />
    <glyph glyph-name="uni1EA8" 
 />
    <glyph glyph-name="uni1EAE" 
 />
    <glyph glyph-name="uni1EAA" 
 />
    <glyph glyph-name="uni1EB0" 
 />
    <glyph glyph-name="uni1EB2" 
 />
    <glyph glyph-name="uni1EB4" 
 />
    <glyph glyph-name="uni1EB6" 
 />
    <glyph glyph-name="AE" 
 />
    <glyph glyph-name="AEacute" 
 />
    <glyph glyph-name="uni1E02" 
 />
    <glyph glyph-name="Cacute" 
 />
    <glyph glyph-name="Ccedilla" 
 />
    <glyph glyph-name="Ccircumflex" 
 />
    <glyph glyph-name="Cdotaccent" 
 />
    <glyph glyph-name="Ccaron" 
 />
    <glyph glyph-name="Dcaron" 
 />
    <glyph glyph-name="Dcroat" 
 />
    <glyph glyph-name="uni1E0A" 
 />
    <glyph glyph-name="Eacute" 
 />
    <glyph glyph-name="Ebreve" 
 />
    <glyph glyph-name="Ecircumflex" 
 />
    <glyph glyph-name="Edieresis" 
 />
    <glyph glyph-name="Edotaccent" 
 />
    <glyph glyph-name="Egrave" 
 />
    <glyph glyph-name="Emacron" 
 />
    <glyph glyph-name="Eogonek" 
 />
    <glyph glyph-name="Ecaron" 
 />
    <glyph glyph-name="uni1EB8" 
 />
    <glyph glyph-name="uni1EBA" 
 />
    <glyph glyph-name="uni1EBC" 
 />
    <glyph glyph-name="uni1EBE" 
 />
    <glyph glyph-name="uni1EC0" 
 />
    <glyph glyph-name="uni1EC2" 
 />
    <glyph glyph-name="uni1EC4" 
 />
    <glyph glyph-name="uni1EC6" 
 />
    <glyph glyph-name="uni1E1E" 
 />
    <glyph glyph-name="Gcircumflex" 
 />
    <glyph glyph-name="Gbreve" 
 />
    <glyph glyph-name="Gdotaccent" 
 />
    <glyph glyph-name="uni0122" 
 />
    <glyph glyph-name="Gcaron" 
 />
    <glyph glyph-name="Gcircumflex.alt1" 
 />
    <glyph glyph-name="Gbreve.alt1" 
 />
    <glyph glyph-name="Gdotaccent.alt1" 
 />
    <glyph glyph-name="Gcommaaccent.alt1" 
 />
    <glyph glyph-name="Gcaron.alt1" 
 />
    <glyph glyph-name="Hbar" 
 />
    <glyph glyph-name="Hcircumflex" 
 />
    <glyph glyph-name="uni1E22" 
 />
    <glyph glyph-name="Iacute" 
 />
    <glyph glyph-name="Ibreve" 
 />
    <glyph glyph-name="Icircumflex" 
 />
    <glyph glyph-name="Idieresis" 
 />
    <glyph glyph-name="Idotaccent" 
 />
    <glyph glyph-name="Igrave" 
 />
    <glyph glyph-name="Imacron" 
 />
    <glyph glyph-name="Iogonek" 
 />
    <glyph glyph-name="Itilde" 
 />
    <glyph glyph-name="uni1EC8" 
 />
    <glyph glyph-name="uni1ECA" 
 />
    <glyph glyph-name="IJ" 
 />
    <glyph glyph-name="Iacute_J.loclNLD" 
 />
    <glyph glyph-name="Jcircumflex" 
 />
    <glyph glyph-name="uni0136" 
 />
    <glyph glyph-name="Lacute" 
 />
    <glyph glyph-name="Lcaron" 
 />
    <glyph glyph-name="uni013B" 
 />
    <glyph glyph-name="Ldot" 
 />
    <glyph glyph-name="Lslash" 
 />
    <glyph glyph-name="Nacute" 
 />
    <glyph glyph-name="Ncaron" 
 />
    <glyph glyph-name="uni0145" 
 />
    <glyph glyph-name="Ntilde" 
 />
    <glyph glyph-name="uni019D" 
 />
    <glyph glyph-name="Eng" 
 />
    <glyph glyph-name="Oacute" 
 />
    <glyph glyph-name="Obreve" 
 />
    <glyph glyph-name="Ocircumflex" 
 />
    <glyph glyph-name="Odieresis" 
 />
    <glyph glyph-name="Ograve" 
 />
    <glyph glyph-name="Ohungarumlaut" 
 />
    <glyph glyph-name="Omacron" 
 />
    <glyph glyph-name="Oslash" 
 />
    <glyph glyph-name="Oslashacute" 
 />
    <glyph glyph-name="Otilde" 
 />
    <glyph glyph-name="uni01EA" 
 />
    <glyph glyph-name="uni1ECC" 
 />
    <glyph glyph-name="uni1ECE" 
 />
    <glyph glyph-name="uni1ED0" 
 />
    <glyph glyph-name="uni1ED2" 
 />
    <glyph glyph-name="uni1ED4" 
 />
    <glyph glyph-name="uni1ED6" 
 />
    <glyph glyph-name="uni1ED8" 
 />
    <glyph glyph-name="Ohorn" 
 />
    <glyph glyph-name="uni1EDA" 
 />
    <glyph glyph-name="uni1EDC" 
 />
    <glyph glyph-name="uni1EDE" 
 />
    <glyph glyph-name="uni1EE0" 
 />
    <glyph glyph-name="uni1EE2" 
 />
    <glyph glyph-name="OE" 
 />
    <glyph glyph-name="uni1E56" 
 />
    <glyph glyph-name="Racute" 
 />
    <glyph glyph-name="Rcaron" 
 />
    <glyph glyph-name="uni0156" 
 />
    <glyph glyph-name="Sacute" 
 />
    <glyph glyph-name="Scaron" 
 />
    <glyph glyph-name="Scircumflex" 
 />
    <glyph glyph-name="uni015E" 
 />
    <glyph glyph-name="uni0218" 
 />
    <glyph glyph-name="uni1E60" 
 />
    <glyph glyph-name="uni1E9E" 
 />
    <glyph glyph-name="Tbar" 
 />
    <glyph glyph-name="Tcaron" 
 />
    <glyph glyph-name="uni0162" 
 />
    <glyph glyph-name="uni021A" 
 />
    <glyph glyph-name="uni1E6A" 
 />
    <glyph glyph-name="Uacute" 
 />
    <glyph glyph-name="Ubreve" 
 />
    <glyph glyph-name="Ucircumflex" 
 />
    <glyph glyph-name="Udieresis" 
 />
    <glyph glyph-name="Ugrave" 
 />
    <glyph glyph-name="Uhungarumlaut" 
 />
    <glyph glyph-name="Umacron" 
 />
    <glyph glyph-name="Uogonek" 
 />
    <glyph glyph-name="Uring" 
 />
    <glyph glyph-name="Utilde" 
 />
    <glyph glyph-name="uni1EE4" 
 />
    <glyph glyph-name="Uhorn" 
 />
    <glyph glyph-name="uni1EE6" 
 />
    <glyph glyph-name="uni1EE8" 
 />
    <glyph glyph-name="uni1EEA" 
 />
    <glyph glyph-name="uni1EEC" 
 />
    <glyph glyph-name="uni1EEE" 
 />
    <glyph glyph-name="uni1EF0" 
 />
    <glyph glyph-name="Wacute" 
 />
    <glyph glyph-name="Wcircumflex" 
 />
    <glyph glyph-name="Wdieresis" 
 />
    <glyph glyph-name="Wgrave" 
 />
    <glyph glyph-name="Yacute" 
 />
    <glyph glyph-name="Ycircumflex" 
 />
    <glyph glyph-name="Ydieresis" 
 />
    <glyph glyph-name="Ygrave" 
 />
    <glyph glyph-name="uni0232" 
 />
    <glyph glyph-name="uni1EF4" 
 />
    <glyph glyph-name="uni1EF6" 
 />
    <glyph glyph-name="uni1EF8" 
 />
    <glyph glyph-name="Zacute" 
 />
    <glyph glyph-name="Zcaron" 
 />
    <glyph glyph-name="Zdotaccent" 
 />
    <glyph glyph-name="Eth" 
 />
    <glyph glyph-name="Thorn" 
 />
    <glyph glyph-name="aacute" 
 />
    <glyph glyph-name="abreve" 
 />
    <glyph glyph-name="acircumflex" 
 />
    <glyph glyph-name="adieresis" 
 />
    <glyph glyph-name="agrave" 
 />
    <glyph glyph-name="amacron" 
 />
    <glyph glyph-name="aogonek" 
 />
    <glyph glyph-name="aring" 
 />
    <glyph glyph-name="aringacute" 
 />
    <glyph glyph-name="atilde" 
 />
    <glyph glyph-name="uni1EA1" 
 />
    <glyph glyph-name="uni1EA3" 
 />
    <glyph glyph-name="uni1EA5" 
 />
    <glyph glyph-name="uni1EAD" 
 />
    <glyph glyph-name="uni1EA7" 
 />
    <glyph glyph-name="uni1EA9" 
 />
    <glyph glyph-name="uni1EAF" 
 />
    <glyph glyph-name="uni1EAB" 
 />
    <glyph glyph-name="uni1EB1" 
 />
    <glyph glyph-name="uni1EB3" 
 />
    <glyph glyph-name="uni1EB5" 
 />
    <glyph glyph-name="uni1EB7" 
 />
    <glyph glyph-name="ae" 
 />
    <glyph glyph-name="aeacute" 
 />
    <glyph glyph-name="aacute.alt1" 
 />
    <glyph glyph-name="abreve.alt1" 
 />
    <glyph glyph-name="acircumflex.alt1" 
 />
    <glyph glyph-name="adieresis.alt1" 
 />
    <glyph glyph-name="agrave.alt1" 
 />
    <glyph glyph-name="amacron.alt1" 
 />
    <glyph glyph-name="aogonek.alt1" 
 />
    <glyph glyph-name="aring.alt1" 
 />
    <glyph glyph-name="aringacute.alt1" 
 />
    <glyph glyph-name="atilde.alt1" 
 />
    <glyph glyph-name="uni1EA1.alt1" 
 />
    <glyph glyph-name="uni1EA3.alt1" 
 />
    <glyph glyph-name="uni1EA5.alt1" 
 />
    <glyph glyph-name="uni1EAD.alt1" 
 />
    <glyph glyph-name="uni1EA7.alt1" 
 />
    <glyph glyph-name="uni1EA9.alt1" 
 />
    <glyph glyph-name="uni1EAF.alt1" 
 />
    <glyph glyph-name="uni1EAB.alt1" 
 />
    <glyph glyph-name="uni1EB1.alt1" 
 />
    <glyph glyph-name="uni1EB3.alt1" 
 />
    <glyph glyph-name="uni1EB5.alt1" 
 />
    <glyph glyph-name="uni1EB7.alt1" 
 />
    <glyph glyph-name="ae.alt1" 
 />
    <glyph glyph-name="aeacute.alt1" 
 />
    <glyph glyph-name="uni1E03" 
 />
    <glyph glyph-name="cacute" 
 />
    <glyph glyph-name="ccedilla" 
 />
    <glyph glyph-name="ccircumflex" 
 />
    <glyph glyph-name="cdotaccent" 
 />
    <glyph glyph-name="ccaron" 
 />
    <glyph glyph-name="dcaron" 
 />
    <glyph glyph-name="dcroat" 
 />
    <glyph glyph-name="uni1E0B" 
 />
    <glyph glyph-name="eacute" 
 />
    <glyph glyph-name="ebreve" 
 />
    <glyph glyph-name="ecircumflex" 
 />
    <glyph glyph-name="edieresis" 
 />
    <glyph glyph-name="edotaccent" 
 />
    <glyph glyph-name="egrave" 
 />
    <glyph glyph-name="emacron" 
 />
    <glyph glyph-name="eogonek" 
 />
    <glyph glyph-name="ecaron" 
 />
    <glyph glyph-name="uni1EB9" 
 />
    <glyph glyph-name="uni1EBB" 
 />
    <glyph glyph-name="uni1EBD" 
 />
    <glyph glyph-name="uni1EBF" 
 />
    <glyph glyph-name="uni1EC1" 
 />
    <glyph glyph-name="uni1EC3" 
 />
    <glyph glyph-name="uni1EC5" 
 />
    <glyph glyph-name="uni1EC7" 
 />
    <glyph glyph-name="fl.alt1" 
 />
    <glyph glyph-name="f_f_l.alt1" 
 />
    <glyph glyph-name="uni1E1F" 
 />
    <glyph glyph-name="gcircumflex" 
 />
    <glyph glyph-name="gbreve" 
 />
    <glyph glyph-name="gdotaccent" 
 />
    <glyph glyph-name="uni0123" 
 />
    <glyph glyph-name="gcaron" 
 />
    <glyph glyph-name="hbar" 
 />
    <glyph glyph-name="hcircumflex" 
 />
    <glyph glyph-name="uni1E23" 
 />
    <glyph glyph-name="dotlessi" 
 />
    <glyph glyph-name="iacute" 
 />
    <glyph glyph-name="ibreve" 
 />
    <glyph glyph-name="icircumflex" 
 />
    <glyph glyph-name="idieresis" 
 />
    <glyph glyph-name="igrave" 
 />
    <glyph glyph-name="imacron" 
 />
    <glyph glyph-name="iogonek" 
 />
    <glyph glyph-name="itilde" 
 />
    <glyph glyph-name="uni1EC9" 
 />
    <glyph glyph-name="uni1ECB" 
 />
    <glyph glyph-name="i.dotaccent" 
 />
    <glyph glyph-name="ij" 
 />
    <glyph glyph-name="iacute_j.loclNLD" 
 />
    <glyph glyph-name="uni0237" 
 />
    <glyph glyph-name="jcircumflex" 
 />
    <glyph glyph-name="uni0137" 
 />
    <glyph glyph-name="kgreenlandic" 
 />
    <glyph glyph-name="lacute" 
 />
    <glyph glyph-name="uni013C" 
 />
    <glyph glyph-name="lcaron" 
 />
    <glyph glyph-name="ldot" 
 />
    <glyph glyph-name="lslash" 
 />
    <glyph glyph-name="lacute.alt1" 
 />
    <glyph glyph-name="lcommaaccent.alt1" 
 />
    <glyph glyph-name="lcaron.alt1" 
 />
    <glyph glyph-name="ldot.alt1" 
 />
    <glyph glyph-name="lslash.alt1" 
 />
    <glyph glyph-name="nacute" 
 />
    <glyph glyph-name="napostrophe" 
 />
    <glyph glyph-name="ncaron" 
 />
    <glyph glyph-name="uni0146" 
 />
    <glyph glyph-name="ntilde" 
 />
    <glyph glyph-name="uni0272" 
 />
    <glyph glyph-name="eng" 
 />
    <glyph glyph-name="oacute" 
 />
    <glyph glyph-name="obreve" 
 />
    <glyph glyph-name="ocircumflex" 
 />
    <glyph glyph-name="odieresis" 
 />
    <glyph glyph-name="ograve" 
 />
    <glyph glyph-name="ohungarumlaut" 
 />
    <glyph glyph-name="omacron" 
 />
    <glyph glyph-name="oslash" 
 />
    <glyph glyph-name="oslashacute" 
 />
    <glyph glyph-name="otilde" 
 />
    <glyph glyph-name="uni01EB" 
 />
    <glyph glyph-name="uni1ECD" 
 />
    <glyph glyph-name="uni1ECF" 
 />
    <glyph glyph-name="uni1ED1" 
 />
    <glyph glyph-name="uni1ED3" 
 />
    <glyph glyph-name="uni1ED5" 
 />
    <glyph glyph-name="uni1ED7" 
 />
    <glyph glyph-name="uni1ED9" 
 />
    <glyph glyph-name="ohorn" 
 />
    <glyph glyph-name="uni1EDB" 
 />
    <glyph glyph-name="uni1EDD" 
 />
    <glyph glyph-name="uni1EDF" 
 />
    <glyph glyph-name="uni1EE1" 
 />
    <glyph glyph-name="uni1EE3" 
 />
    <glyph glyph-name="oe" 
 />
    <glyph glyph-name="uni1E57" 
 />
    <glyph glyph-name="racute" 
 />
    <glyph glyph-name="rcaron" 
 />
    <glyph glyph-name="uni0157" 
 />
    <glyph glyph-name="sacute" 
 />
    <glyph glyph-name="scaron" 
 />
    <glyph glyph-name="scircumflex" 
 />
    <glyph glyph-name="uni015F" 
 />
    <glyph glyph-name="uni0219" 
 />
    <glyph glyph-name="uni1E61" 
 />
    <glyph glyph-name="germandbls" 
 />
    <glyph glyph-name="longs" 
 />
    <glyph glyph-name="tbar" 
 />
    <glyph glyph-name="tcaron" 
 />
    <glyph glyph-name="uni0163" 
 />
    <glyph glyph-name="uni021B" 
 />
    <glyph glyph-name="uni1E6B" 
 />
    <glyph glyph-name="uacute" 
 />
    <glyph glyph-name="ubreve" 
 />
    <glyph glyph-name="ucircumflex" 
 />
    <glyph glyph-name="udieresis" 
 />
    <glyph glyph-name="ugrave" 
 />
    <glyph glyph-name="uhungarumlaut" 
 />
    <glyph glyph-name="umacron" 
 />
    <glyph glyph-name="uogonek" 
 />
    <glyph glyph-name="uring" 
 />
    <glyph glyph-name="utilde" 
 />
    <glyph glyph-name="uni1EE5" 
 />
    <glyph glyph-name="uhorn" 
 />
    <glyph glyph-name="uni1EE7" 
 />
    <glyph glyph-name="uni1EE9" 
 />
    <glyph glyph-name="uni1EEB" 
 />
    <glyph glyph-name="uni1EED" 
 />
    <glyph glyph-name="uni1EEF" 
 />
    <glyph glyph-name="uni1EF1" 
 />
    <glyph glyph-name="wacute" 
 />
    <glyph glyph-name="wcircumflex" 
 />
    <glyph glyph-name="wdieresis" 
 />
    <glyph glyph-name="wgrave" 
 />
    <glyph glyph-name="yacute" 
 />
    <glyph glyph-name="ycircumflex" 
 />
    <glyph glyph-name="ydieresis" 
 />
    <glyph glyph-name="ygrave" 
 />
    <glyph glyph-name="uni0233" 
 />
    <glyph glyph-name="uni1EF5" 
 />
    <glyph glyph-name="uni1EF7" 
 />
    <glyph glyph-name="uni1EF9" 
 />
    <glyph glyph-name="yacute.alt1" 
 />
    <glyph glyph-name="ycircumflex.alt1" 
 />
    <glyph glyph-name="ydieresis.alt1" 
 />
    <glyph glyph-name="ygrave.alt1" 
 />
    <glyph glyph-name="uni0233.alt1" 
 />
    <glyph glyph-name="uni1EF5.alt1" 
 />
    <glyph glyph-name="uni1EF7.alt1" 
 />
    <glyph glyph-name="uni1EF9.alt1" 
 />
    <glyph glyph-name="zacute" 
 />
    <glyph glyph-name="zcaron" 
 />
    <glyph glyph-name="zdotaccent" 
 />
    <glyph glyph-name="eth" 
 />
    <glyph glyph-name="thorn" 
 />
    <glyph glyph-name="Aacute.smcp" 
 />
    <glyph glyph-name="Abreve.smcp" 
 />
    <glyph glyph-name="Acircumflex.smcp" 
 />
    <glyph glyph-name="Adieresis.smcp" 
 />
    <glyph glyph-name="Agrave.smcp" 
 />
    <glyph glyph-name="Amacron.smcp" 
 />
    <glyph glyph-name="Aogonek.smcp" 
 />
    <glyph glyph-name="Aring.smcp" 
 />
    <glyph glyph-name="Aringacute.smcp" 
 />
    <glyph glyph-name="Atilde.smcp" 
 />
    <glyph glyph-name="uni1EA0.smcp" 
 />
    <glyph glyph-name="uni1EA2.smcp" 
 />
    <glyph glyph-name="uni1EA4.smcp" 
 />
    <glyph glyph-name="uni1EAC.smcp" 
 />
    <glyph glyph-name="uni1EA6.smcp" 
 />
    <glyph glyph-name="uni1EA8.smcp" 
 />
    <glyph glyph-name="uni1EAE.smcp" 
 />
    <glyph glyph-name="uni1EAA.smcp" 
 />
    <glyph glyph-name="uni1EB0.smcp" 
 />
    <glyph glyph-name="uni1EB2.smcp" 
 />
    <glyph glyph-name="uni1EB4.smcp" 
 />
    <glyph glyph-name="uni1EB6.smcp" 
 />
    <glyph glyph-name="AE.smcp" 
 />
    <glyph glyph-name="AEacute.smcp" 
 />
    <glyph glyph-name="uni1E02.smcp" 
 />
    <glyph glyph-name="Cacute.smcp" 
 />
    <glyph glyph-name="Ccaron.smcp" 
 />
    <glyph glyph-name="Ccedilla.smcp" 
 />
    <glyph glyph-name="Ccircumflex.smcp" 
 />
    <glyph glyph-name="Cdotaccent.smcp" 
 />
    <glyph glyph-name="Dcaron.smcp" 
 />
    <glyph glyph-name="Dcroat.smcp" 
 />
    <glyph glyph-name="uni1E0A.smcp" 
 />
    <glyph glyph-name="Eacute.smcp" 
 />
    <glyph glyph-name="Ebreve.smcp" 
 />
    <glyph glyph-name="Ecaron.smcp" 
 />
    <glyph glyph-name="Ecircumflex.smcp" 
 />
    <glyph glyph-name="Edieresis.smcp" 
 />
    <glyph glyph-name="Edotaccent.smcp" 
 />
    <glyph glyph-name="Egrave.smcp" 
 />
    <glyph glyph-name="Emacron.smcp" 
 />
    <glyph glyph-name="Eogonek.smcp" 
 />
    <glyph glyph-name="uni1EB8.smcp" 
 />
    <glyph glyph-name="uni1EBA.smcp" 
 />
    <glyph glyph-name="uni1EBC.smcp" 
 />
    <glyph glyph-name="uni1EBE.smcp" 
 />
    <glyph glyph-name="uni1EC0.smcp" 
 />
    <glyph glyph-name="uni1EC2.smcp" 
 />
    <glyph glyph-name="uni1EC4.smcp" 
 />
    <glyph glyph-name="uni1EC6.smcp" 
 />
    <glyph glyph-name="uni1E1E.smcp" 
 />
    <glyph glyph-name="fi.smcp" 
 />
    <glyph glyph-name="fl.smcp" 
 />
    <glyph glyph-name="Gcircumflex.smcp" 
 />
    <glyph glyph-name="Gbreve.smcp" 
 />
    <glyph glyph-name="Gdotaccent.smcp" 
 />
    <glyph glyph-name="Gcommaaccent.smcp" 
 />
    <glyph glyph-name="Gcaron.smcp" 
 />
    <glyph glyph-name="Gcircumflex.smcp.alt1" 
 />
    <glyph glyph-name="Gbreve.smcp.alt1" 
 />
    <glyph glyph-name="Gdotaccent.smcp.alt1" 
 />
    <glyph glyph-name="Gcommaaccent.smcp.alt1" 
 />
    <glyph glyph-name="Gcaron.smcp.alt1" 
 />
    <glyph glyph-name="Hbar.smcp" 
 />
    <glyph glyph-name="Hcircumflex.smcp" 
 />
    <glyph glyph-name="uni1E22.smcp" 
 />
    <glyph glyph-name="Iacute.smcp" 
 />
    <glyph glyph-name="Ibreve.smcp" 
 />
    <glyph glyph-name="Igrave.smcp" 
 />
    <glyph glyph-name="Icircumflex.smcp" 
 />
    <glyph glyph-name="Idieresis.smcp" 
 />
    <glyph glyph-name="Idotaccent.smcp" 
 />
    <glyph glyph-name="Imacron.smcp" 
 />
    <glyph glyph-name="Iogonek.smcp" 
 />
    <glyph glyph-name="Itilde.smcp" 
 />
    <glyph glyph-name="uni1EC8.smcp" 
 />
    <glyph glyph-name="uni1ECA.smcp" 
 />
    <glyph glyph-name="IJ.smcp" 
 />
    <glyph glyph-name="Iacute_J.smcp.loclNLD" 
 />
    <glyph glyph-name="Jcircumflex.smcp" 
 />
    <glyph glyph-name="Kcommaaccent.smcp" 
 />
    <glyph glyph-name="Lacute.smcp" 
 />
    <glyph glyph-name="Lcaron.smcp" 
 />
    <glyph glyph-name="Lcommaaccent.smcp" 
 />
    <glyph glyph-name="Ldot.smcp" 
 />
    <glyph glyph-name="Lslash.smcp" 
 />
    <glyph glyph-name="Nacute.smcp" 
 />
    <glyph glyph-name="Ncaron.smcp" 
 />
    <glyph glyph-name="Ncommaaccent.smcp" 
 />
    <glyph glyph-name="Ntilde.smcp" 
 />
    <glyph glyph-name="uni019D.smcp" 
 />
    <glyph glyph-name="Eng.smcp" 
 />
    <glyph glyph-name="Oacute.smcp" 
 />
    <glyph glyph-name="Obreve.smcp" 
 />
    <glyph glyph-name="Ocircumflex.smcp" 
 />
    <glyph glyph-name="Odieresis.smcp" 
 />
    <glyph glyph-name="Ograve.smcp" 
 />
    <glyph glyph-name="Ohungarumlaut.smcp" 
 />
    <glyph glyph-name="Oslash.smcp" 
 />
    <glyph glyph-name="Oslashacute.smcp" 
 />
    <glyph glyph-name="Omacron.smcp" 
 />
    <glyph glyph-name="Otilde.smcp" 
 />
    <glyph glyph-name="uni01EA.smcp" 
 />
    <glyph glyph-name="uni1ECC.smcp" 
 />
    <glyph glyph-name="uni1ECE.smcp" 
 />
    <glyph glyph-name="uni1ED0.smcp" 
 />
    <glyph glyph-name="uni1ED2.smcp" 
 />
    <glyph glyph-name="uni1ED4.smcp" 
 />
    <glyph glyph-name="uni1ED6.smcp" 
 />
    <glyph glyph-name="uni1ED8.smcp" 
 />
    <glyph glyph-name="Ohorn.smcp" 
 />
    <glyph glyph-name="uni1EDA.smcp" 
 />
    <glyph glyph-name="uni1EDC.smcp" 
 />
    <glyph glyph-name="uni1EDE.smcp" 
 />
    <glyph glyph-name="uni1EE0.smcp" 
 />
    <glyph glyph-name="uni1EE2.smcp" 
 />
    <glyph glyph-name="OE.smcp" 
 />
    <glyph glyph-name="uni1E56.smcp" 
 />
    <glyph glyph-name="Racute.smcp" 
 />
    <glyph glyph-name="Rcaron.smcp" 
 />
    <glyph glyph-name="Rcommaaccent.smcp" 
 />
    <glyph glyph-name="Sacute.smcp" 
 />
    <glyph glyph-name="Scaron.smcp" 
 />
    <glyph glyph-name="Scircumflex.smcp" 
 />
    <glyph glyph-name="Scedilla.smcp" 
 />
    <glyph glyph-name="Scommaaccent.smcp" 
 />
    <glyph glyph-name="uni1E60.smcp" 
 />
    <glyph glyph-name="uni1E9E.smcp" 
 />
    <glyph glyph-name="germandbls.smcp" 
 />
    <glyph glyph-name="Tbar.smcp" 
 />
    <glyph glyph-name="Tcaron.smcp" 
 />
    <glyph glyph-name="uni0162.smcp" 
 />
    <glyph glyph-name="uni021A.smcp" 
 />
    <glyph glyph-name="uni1E6A.smcp" 
 />
    <glyph glyph-name="Uacute.smcp" 
 />
    <glyph glyph-name="Ubreve.smcp" 
 />
    <glyph glyph-name="Ucircumflex.smcp" 
 />
    <glyph glyph-name="Udieresis.smcp" 
 />
    <glyph glyph-name="Ugrave.smcp" 
 />
    <glyph glyph-name="Uhungarumlaut.smcp" 
 />
    <glyph glyph-name="Umacron.smcp" 
 />
    <glyph glyph-name="Uogonek.smcp" 
 />
    <glyph glyph-name="Uring.smcp" 
 />
    <glyph glyph-name="Utilde.smcp" 
 />
    <glyph glyph-name="uni1EE4.smcp" 
 />
    <glyph glyph-name="Uhorn.smcp" 
 />
    <glyph glyph-name="uni1EE6.smcp" 
 />
    <glyph glyph-name="uni1EE8.smcp" 
 />
    <glyph glyph-name="uni1EEA.smcp" 
 />
    <glyph glyph-name="uni1EEC.smcp" 
 />
    <glyph glyph-name="uni1EEE.smcp" 
 />
    <glyph glyph-name="uni1EF0.smcp" 
 />
    <glyph glyph-name="Wacute.smcp" 
 />
    <glyph glyph-name="Wcircumflex.smcp" 
 />
    <glyph glyph-name="Wdieresis.smcp" 
 />
    <glyph glyph-name="Wgrave.smcp" 
 />
    <glyph glyph-name="Yacute.smcp" 
 />
    <glyph glyph-name="Ycircumflex.smcp" 
 />
    <glyph glyph-name="Ydieresis.smcp" 
 />
    <glyph glyph-name="Ygrave.smcp" 
 />
    <glyph glyph-name="uni0232.smcp" 
 />
    <glyph glyph-name="uni1EF4.smcp" 
 />
    <glyph glyph-name="uni1EF6.smcp" 
 />
    <glyph glyph-name="uni1EF8.smcp" 
 />
    <glyph glyph-name="Zacute.smcp" 
 />
    <glyph glyph-name="Zcaron.smcp" 
 />
    <glyph glyph-name="Zdotaccent.smcp" 
 />
    <glyph glyph-name="Eth.smcp" 
 />
    <glyph glyph-name="Thorn.smcp" 
 />
    <glyph glyph-name="acute" 
 />
    <glyph glyph-name="acutecomb" 
 />
    <glyph glyph-name="acutecomb.short" 
 />
    <glyph glyph-name="gravecomb" 
 />
    <glyph glyph-name="gravecomb.short" 
 />
    <glyph glyph-name="uni02CB" 
 />
    <glyph glyph-name="circumflex" 
 />
    <glyph glyph-name="uni0302" 
 />
    <glyph glyph-name="uni0302.short" 
 />
    <glyph glyph-name="caron" 
 />
    <glyph glyph-name="uni030C" 
 />
    <glyph glyph-name="hungarumlaut" 
 />
    <glyph glyph-name="uni030B" 
 />
    <glyph glyph-name="uni030F" 
 />
    <glyph glyph-name="dieresis" 
 />
    <glyph glyph-name="uni0308" 
 />
    <glyph glyph-name="dotaccent" 
 />
    <glyph glyph-name="uni0307" 
 />
    <glyph glyph-name="dotbelowcomb" 
 />
    <glyph glyph-name="ring" 
 />
    <glyph glyph-name="uni030A" 
 />
    <glyph glyph-name="tilde" 
 />
    <glyph glyph-name="tildecomb" 
 />
    <glyph glyph-name="tildecomb.short" 
 />
    <glyph glyph-name="macron" 
 />
    <glyph glyph-name="uni0304" 
 />
    <glyph glyph-name="uni0331" 
 />
    <glyph glyph-name="uni203E" 
 />
    <glyph glyph-name="uni02C9" 
 />
    <glyph glyph-name="breve" 
 />
    <glyph glyph-name="uni0306" 
 />
    <glyph glyph-name="uni0306.short" 
 />
    <glyph glyph-name="uni032E" 
 />
    <glyph glyph-name="uni0311" 
 />
    <glyph glyph-name="cedilla" 
 />
    <glyph glyph-name="uni0327" 
 />
    <glyph glyph-name="ogonek" 
 />
    <glyph glyph-name="uni0328" 
 />
    <glyph glyph-name="uniF6C3" 
 />
    <glyph glyph-name="uni0326" 
 />
    <glyph glyph-name="uni0309" 
 />
    <glyph glyph-name="hookabovecomb.short" 
 />
    <glyph glyph-name="uni02BB" 
 />
    <glyph glyph-name="Alpha" 
 />
    <glyph glyph-name="Beta" 
 />
    <glyph glyph-name="Gamma" 
 />
    <glyph glyph-name="uni0394" 
 />
    <glyph glyph-name="uni2206" 
 />
    <glyph glyph-name="Epsilon" 
 />
    <glyph glyph-name="Zeta" 
 />
    <glyph glyph-name="Eta" 
 />
    <glyph glyph-name="Theta" 
 />
    <glyph glyph-name="Iota" 
 />
    <glyph glyph-name="Kappa" 
 />
    <glyph glyph-name="Lambda" 
 />
    <glyph glyph-name="Mu" 
 />
    <glyph glyph-name="Nu" 
 />
    <glyph glyph-name="Xi" 
 />
    <glyph glyph-name="Omicron" 
 />
    <glyph glyph-name="Pi" 
 />
    <glyph glyph-name="Rho" 
 />
    <glyph glyph-name="Sigma" 
 />
    <glyph glyph-name="Tau" 
 />
    <glyph glyph-name="Upsilon" 
 />
    <glyph glyph-name="Phi" 
 />
    <glyph glyph-name="Chi" 
 />
    <glyph glyph-name="Psi" 
 />
    <glyph glyph-name="uni03A9" 
 />
    <glyph glyph-name="uni2126" 
 />
    <glyph glyph-name="alpha" 
 />
    <glyph glyph-name="beta" 
 />
    <glyph glyph-name="gamma" 
 />
    <glyph glyph-name="delta" 
 />
    <glyph glyph-name="epsilon" 
 />
    <glyph glyph-name="zeta" 
 />
    <glyph glyph-name="eta" 
 />
    <glyph glyph-name="theta" 
 />
    <glyph glyph-name="iota" 
 />
    <glyph glyph-name="kappa" 
 />
    <glyph glyph-name="lambda" 
 />
    <glyph glyph-name="uni03BC" 
 />
    <glyph glyph-name="uni00B5" 
 />
    <glyph glyph-name="nu" 
 />
    <glyph glyph-name="xi" 
 />
    <glyph glyph-name="omicron" 
 />
    <glyph glyph-name="pi" 
 />
    <glyph glyph-name="rho" 
 />
    <glyph glyph-name="uni03C2" 
 />
    <glyph glyph-name="sigma" 
 />
    <glyph glyph-name="tau" 
 />
    <glyph glyph-name="upsilon" 
 />
    <glyph glyph-name="phi" 
 />
    <glyph glyph-name="chi" 
 />
    <glyph glyph-name="psi" 
 />
    <glyph glyph-name="omega" 
 />
    <glyph glyph-name="Alphatonos" 
 />
    <glyph glyph-name="Epsilontonos" 
 />
    <glyph glyph-name="Etatonos" 
 />
    <glyph glyph-name="Iotatonos" 
 />
    <glyph glyph-name="Omicrontonos" 
 />
    <glyph glyph-name="Upsilontonos" 
 />
    <glyph glyph-name="Omegatonos" 
 />
    <glyph glyph-name="Iotadieresis" 
 />
    <glyph glyph-name="Upsilondieresis" 
 />
    <glyph glyph-name="alphatonos" 
 />
    <glyph glyph-name="epsilontonos" 
 />
    <glyph glyph-name="etatonos" 
 />
    <glyph glyph-name="iotatonos" 
 />
    <glyph glyph-name="iotadieresis" 
 />
    <glyph glyph-name="iotadieresistonos" 
 />
    <glyph glyph-name="upsilontonos" 
 />
    <glyph glyph-name="upsilondieresis" 
 />
    <glyph glyph-name="upsilondieresistonos" 
 />
    <glyph glyph-name="omicrontonos" 
 />
    <glyph glyph-name="omegatonos" 
 />
    <glyph glyph-name="uni03D7" 
 />
    <glyph glyph-name="tonos" 
 />
    <glyph glyph-name="tonos.cap" 
 />
    <glyph glyph-name="dieresistonos" 
 />
    <glyph glyph-name="uni0374" 
 />
    <glyph glyph-name="uni0375" 
 />
    <glyph glyph-name="uni0387" 
 />
    <glyph glyph-name="uni0410" 
 />
    <glyph glyph-name="uni0411" 
 />
    <glyph glyph-name="uni0412" 
 />
    <glyph glyph-name="uni0413" 
 />
    <glyph glyph-name="uni0414" 
 />
    <glyph glyph-name="uni0415" 
 />
    <glyph glyph-name="uni0401" 
 />
    <glyph glyph-name="uni0416" 
 />
    <glyph glyph-name="uni0417" 
 />
    <glyph glyph-name="uni0418" 
 />
    <glyph glyph-name="uni0419" 
 />
    <glyph glyph-name="uni041A" 
 />
    <glyph glyph-name="uni041B" 
 />
    <glyph glyph-name="uni041C" 
 />
    <glyph glyph-name="uni041D" 
 />
    <glyph glyph-name="uni041E" 
 />
    <glyph glyph-name="uni041F" 
 />
    <glyph glyph-name="uni0420" 
 />
    <glyph glyph-name="uni0421" 
 />
    <glyph glyph-name="uni0422" 
 />
    <glyph glyph-name="uni0423" 
 />
    <glyph glyph-name="uni0424" 
 />
    <glyph glyph-name="uni0425" 
 />
    <glyph glyph-name="uni0426" 
 />
    <glyph glyph-name="uni0427" 
 />
    <glyph glyph-name="uni0428" 
 />
    <glyph glyph-name="uni0429" 
 />
    <glyph glyph-name="uni042A" 
 />
    <glyph glyph-name="uni042B" 
 />
    <glyph glyph-name="uni042C" 
 />
    <glyph glyph-name="uni042D" 
 />
    <glyph glyph-name="uni042E" 
 />
    <glyph glyph-name="uni042F" 
 />
    <glyph glyph-name="uni0402" 
 />
    <glyph glyph-name="uni0403" 
 />
    <glyph glyph-name="uni0404" 
 />
    <glyph glyph-name="uni0405" 
 />
    <glyph glyph-name="uni0406" 
 />
    <glyph glyph-name="uni0407" 
 />
    <glyph glyph-name="uni0408" 
 />
    <glyph glyph-name="uni0409" 
 />
    <glyph glyph-name="uni040A" 
 />
    <glyph glyph-name="uni040B" 
 />
    <glyph glyph-name="uni040C" 
 />
    <glyph glyph-name="uni040E" 
 />
    <glyph glyph-name="uni040F" 
 />
    <glyph glyph-name="uni0414.BUL" 
 />
    <glyph glyph-name="uni0416.BUL" 
 />
    <glyph glyph-name="uni0418.BUL" 
 />
    <glyph glyph-name="uni041A.BUL" 
 />
    <glyph glyph-name="uni041B.BUL" 
 />
    <glyph glyph-name="uni0424.BUL" 
 />
    <glyph glyph-name="uni0430" 
 />
    <glyph glyph-name="uni0430.alt1" 
 />
    <glyph glyph-name="uni0431" 
 />
    <glyph glyph-name="uni0432" 
 />
    <glyph glyph-name="uni0433" 
 />
    <glyph glyph-name="uni0434" 
 />
    <glyph glyph-name="uni0435" 
 />
    <glyph glyph-name="uni0451" 
 />
    <glyph glyph-name="uni0436" 
 />
    <glyph glyph-name="uni0437" 
 />
    <glyph glyph-name="uni0438" 
 />
    <glyph glyph-name="uni0439" 
 />
    <glyph glyph-name="uni043A" 
 />
    <glyph glyph-name="uni043B" 
 />
    <glyph glyph-name="uni043C" 
 />
    <glyph glyph-name="uni043D" 
 />
    <glyph glyph-name="uni043E" 
 />
    <glyph glyph-name="uni043F" 
 />
    <glyph glyph-name="uni0440" 
 />
    <glyph glyph-name="uni0441" 
 />
    <glyph glyph-name="uni0442" 
 />
    <glyph glyph-name="uni0443" 
 />
    <glyph glyph-name="uni0444" 
 />
    <glyph glyph-name="uni0445" 
 />
    <glyph glyph-name="uni0446" 
 />
    <glyph glyph-name="uni0447" 
 />
    <glyph glyph-name="uni0448" 
 />
    <glyph glyph-name="uni0449" 
 />
    <glyph glyph-name="uni044A" 
 />
    <glyph glyph-name="uni044B" 
 />
    <glyph glyph-name="uni044C" 
 />
    <glyph glyph-name="uni044D" 
 />
    <glyph glyph-name="uni044E" 
 />
    <glyph glyph-name="uni044F" 
 />
    <glyph glyph-name="uni0452" 
 />
    <glyph glyph-name="uni0453" 
 />
    <glyph glyph-name="uni0454" 
 />
    <glyph glyph-name="uni0455" 
 />
    <glyph glyph-name="uni0456" 
 />
    <glyph glyph-name="uni0457" 
 />
    <glyph glyph-name="uni0458" 
 />
    <glyph glyph-name="uni0459" 
 />
    <glyph glyph-name="uni045A" 
 />
    <glyph glyph-name="uni045B" 
 />
    <glyph glyph-name="uni045C" 
 />
    <glyph glyph-name="uni045E" 
 />
    <glyph glyph-name="uni045F" 
 />
    <glyph glyph-name="uni0432.BUL" 
 />
    <glyph glyph-name="uni0433.BUL" 
 />
    <glyph glyph-name="uni0434.BUL" 
 />
    <glyph glyph-name="uni0436.BUL" 
 />
    <glyph glyph-name="uni0437.BUL" 
 />
    <glyph glyph-name="uni0438.BUL" 
 />
    <glyph glyph-name="uni0439.BUL" 
 />
    <glyph glyph-name="uni043A.BUL" 
 />
    <glyph glyph-name="uni043B.BUL" 
 />
    <glyph glyph-name="uni043D.BUL" 
 />
    <glyph glyph-name="uni043F.BUL" 
 />
    <glyph glyph-name="uni0442.BUL" 
 />
    <glyph glyph-name="uni0447.BUL" 
 />
    <glyph glyph-name="uni0446.BUL" 
 />
    <glyph glyph-name="uni0448.BUL" 
 />
    <glyph glyph-name="uni0449.BUL" 
 />
    <glyph glyph-name="uni044C.BUL" 
 />
    <glyph glyph-name="uni044A.BUL" 
 />
    <glyph glyph-name="uni044E.BUL" 
 />
    <glyph glyph-name="uni0431.SRB" 
 />
    <glyph glyph-name="uni0433.SRB" 
 />
    <glyph glyph-name="uni0434.SRB" 
 />
    <glyph glyph-name="uni043F.SRB" 
 />
    <glyph glyph-name="uni0442.SRB" 
 />
    <glyph glyph-name="uni0474" 
 />
    <glyph glyph-name="uni0475" 
 />
    <glyph glyph-name="uni048A" 
 />
    <glyph glyph-name="uni048B" 
 />
    <glyph glyph-name="uni048C" 
 />
    <glyph glyph-name="uni048D" 
 />
    <glyph glyph-name="uni048E" 
 />
    <glyph glyph-name="uni048F" 
 />
    <glyph glyph-name="uni0490" 
 />
    <glyph glyph-name="uni0491" 
 />
    <glyph glyph-name="uni0492" 
 />
    <glyph glyph-name="uni0493" 
 />
    <glyph glyph-name="uni0494" 
 />
    <glyph glyph-name="uni0495" 
 />
    <glyph glyph-name="uni0496" 
 />
    <glyph glyph-name="uni0497" 
 />
    <glyph glyph-name="uni0498" 
 />
    <glyph glyph-name="uni0499" 
 />
    <glyph glyph-name="uni049A" 
 />
    <glyph glyph-name="uni049B" 
 />
    <glyph glyph-name="uni049C" 
 />
    <glyph glyph-name="uni049D" 
 />
    <glyph glyph-name="uni049E" 
 />
    <glyph glyph-name="uni049F" 
 />
    <glyph glyph-name="uni04A0" 
 />
    <glyph glyph-name="uni04A1" 
 />
    <glyph glyph-name="uni04A2" 
 />
    <glyph glyph-name="uni04A3" 
 />
    <glyph glyph-name="uni04A4" 
 />
    <glyph glyph-name="uni04A5" 
 />
    <glyph glyph-name="uni04A6" 
 />
    <glyph glyph-name="uni04A7" 
 />
    <glyph glyph-name="uni04A8" 
 />
    <glyph glyph-name="uni04A9" 
 />
    <glyph glyph-name="uni04AA" 
 />
    <glyph glyph-name="uni04AB" 
 />
    <glyph glyph-name="uni04AC" 
 />
    <glyph glyph-name="uni04AD" 
 />
    <glyph glyph-name="uni04AE" 
 />
    <glyph glyph-name="uni04AF" 
 />
    <glyph glyph-name="uni04B0" 
 />
    <glyph glyph-name="uni04B1" 
 />
    <glyph glyph-name="uni04B2" 
 />
    <glyph glyph-name="uni04B3" 
 />
    <glyph glyph-name="uni04B4" 
 />
    <glyph glyph-name="uni04B5" 
 />
    <glyph glyph-name="uni04B6" 
 />
    <glyph glyph-name="uni04B7" 
 />
    <glyph glyph-name="uni04B8" 
 />
    <glyph glyph-name="uni04B9" 
 />
    <glyph glyph-name="uni04BA" 
 />
    <glyph glyph-name="uni04BB" 
 />
    <glyph glyph-name="uni04BC" 
 />
    <glyph glyph-name="uni04BD" 
 />
    <glyph glyph-name="uni04BE" 
 />
    <glyph glyph-name="uni04BF" 
 />
    <glyph glyph-name="uni04C0" 
 />
    <glyph glyph-name="uni04C3" 
 />
    <glyph glyph-name="uni04C4" 
 />
    <glyph glyph-name="uni04C5" 
 />
    <glyph glyph-name="uni04C6" 
 />
    <glyph glyph-name="uni04C7" 
 />
    <glyph glyph-name="uni04C8" 
 />
    <glyph glyph-name="uni04C9" 
 />
    <glyph glyph-name="uni04CA" 
 />
    <glyph glyph-name="uni04CB" 
 />
    <glyph glyph-name="uni04CC" 
 />
    <glyph glyph-name="uni04CD" 
 />
    <glyph glyph-name="uni04CE" 
 />
    <glyph glyph-name="uni04CF" 
 />
    <glyph glyph-name="uni04D0" 
 />
    <glyph glyph-name="uni04D1" 
 />
    <glyph glyph-name="uni04D1.alt" 
 />
    <glyph glyph-name="uni04D2" 
 />
    <glyph glyph-name="uni04D3" 
 />
    <glyph glyph-name="uni04D3.alt" 
 />
    <glyph glyph-name="uni04D4" 
 />
    <glyph glyph-name="uni04D5" 
 />
    <glyph glyph-name="uni04D5.alt" 
 />
    <glyph glyph-name="uni04D6" 
 />
    <glyph glyph-name="uni04D7" 
 />
    <glyph glyph-name="uni04D8" 
 />
    <glyph glyph-name="uni04D9" 
 />
    <glyph glyph-name="uni04DA" 
 />
    <glyph glyph-name="uni04DB" 
 />
    <glyph glyph-name="uni04DC" 
 />
    <glyph glyph-name="uni04DD" 
 />
    <glyph glyph-name="uni04DE" 
 />
    <glyph glyph-name="uni04DF" 
 />
    <glyph glyph-name="uni04E0" 
 />
    <glyph glyph-name="uni04E1" 
 />
    <glyph glyph-name="uni04E2" 
 />
    <glyph glyph-name="uni04E3" 
 />
    <glyph glyph-name="uni04E4" 
 />
    <glyph glyph-name="uni04E5" 
 />
    <glyph glyph-name="uni04E6" 
 />
    <glyph glyph-name="uni04E7" 
 />
    <glyph glyph-name="uni04E8" 
 />
    <glyph glyph-name="uni04E9" 
 />
    <glyph glyph-name="uni04EA" 
 />
    <glyph glyph-name="uni04EB" 
 />
    <glyph glyph-name="uni04EC" 
 />
    <glyph glyph-name="uni04ED" 
 />
    <glyph glyph-name="uni04EE" 
 />
    <glyph glyph-name="uni04EF" 
 />
    <glyph glyph-name="uni04F0" 
 />
    <glyph glyph-name="uni04F1" 
 />
    <glyph glyph-name="uni04F2" 
 />
    <glyph glyph-name="uni04F3" 
 />
    <glyph glyph-name="uni04F4" 
 />
    <glyph glyph-name="uni04F5" 
 />
    <glyph glyph-name="uni04F6" 
 />
    <glyph glyph-name="uni04F7" 
 />
    <glyph glyph-name="uni04F8" 
 />
    <glyph glyph-name="uni04F9" 
 />
    <glyph glyph-name="uni04FC" 
 />
    <glyph glyph-name="uni04FD" 
 />
    <glyph glyph-name="uni0510" 
 />
    <glyph glyph-name="uni0511" 
 />
    <glyph glyph-name="uni0512" 
 />
    <glyph glyph-name="uni0513" 
 />
    <glyph glyph-name="uni051C" 
 />
    <glyph glyph-name="uni051D" 
 />
    <glyph glyph-name="uni0524" 
 />
    <glyph glyph-name="uni0525" 
 />
    <glyph glyph-name="uni0526" 
 />
    <glyph glyph-name="uni0527" 
 />
    <glyph glyph-name="uni052E" 
 />
    <glyph glyph-name="uni052F" 
 />
    <glyph glyph-name="uniF49E" 
 />
    <glyph glyph-name="uniF49F" 
 />
    <glyph glyph-name="uniF4C6" 
 />
    <glyph glyph-name="uniF4C7" 
 />
    <glyph glyph-name="uniF4CC" 
 />
    <glyph glyph-name="uniF4CD" 
 />
    <glyph glyph-name="uniF4D6" 
 />
    <glyph glyph-name="uniF4D7" 
 />
    <glyph glyph-name="uniF50E" 
 />
    <glyph glyph-name="uniF50F" 
 />
    <glyph glyph-name="uniF50F.alt" 
 />
    <glyph glyph-name="uniF510" 
 />
    <glyph glyph-name="uniF511" 
 />
    <glyph glyph-name="uniF512" 
 />
    <glyph glyph-name="uniF513" 
 />
    <glyph glyph-name="uniF514" 
 />
    <glyph glyph-name="uniF515" 
 />
    <glyph glyph-name="uniF516" 
 />
    <glyph glyph-name="uniF517" 
 />
    <glyph glyph-name="uniF518" 
 />
    <glyph glyph-name="uniF519" 
 />
    <glyph glyph-name="uniF51A" 
 />
    <glyph glyph-name="uniF51B" 
 />
    <glyph glyph-name="uniF51C" 
 />
    <glyph glyph-name="uniF51D" 
 />
    <glyph glyph-name="uniF51E" 
 />
    <glyph glyph-name="uniF51F" 
 />
    <glyph glyph-name="uniF520" 
 />
    <glyph glyph-name="uniF521" 
 />
    <glyph glyph-name="uniF522" 
 />
    <glyph glyph-name="uniF523" 
 />
    <glyph glyph-name="uniF524" 
 />
    <glyph glyph-name="uniF525" 
 />
    <glyph glyph-name="uniF526" 
 />
    <glyph glyph-name="uniF527" 
 />
    <glyph glyph-name="uniF528" 
 />
    <glyph glyph-name="uniF529" 
 />
    <glyph glyph-name="uniF52A" 
 />
    <glyph glyph-name="uniF52B" 
 />
    <glyph glyph-name="uniF52C" 
 />
    <glyph glyph-name="uniF52D" 
 />
    <glyph glyph-name="uniF52E" 
 />
    <glyph glyph-name="uniF52F" 
 />
    <glyph glyph-name="uniF532" 
 />
    <glyph glyph-name="uniF533" 
 />
    <glyph glyph-name="uniF536" 
 />
    <glyph glyph-name="uniF537" 
 />
    <glyph glyph-name="uniF538" 
 />
    <glyph glyph-name="uniF539" 
 />
    <glyph glyph-name="uni0400" 
 />
    <glyph glyph-name="uni0450" 
 />
    <glyph glyph-name="uni040D" 
 />
    <glyph glyph-name="uni045D" 
 />
    <glyph glyph-name="uni0472" 
 />
    <glyph glyph-name="uni0473" 
 />
    <glyph glyph-name="uni04C1" 
 />
    <glyph glyph-name="uni04C2" 
 />
    <glyph glyph-name="uni04FA" 
 />
    <glyph glyph-name="uni04FB" 
 />
    <glyph glyph-name="uni04FE" 
 />
    <glyph glyph-name="uni04FF" 
 />
    <glyph glyph-name="uniF43A" 
 />
    <glyph glyph-name="uniF43B" 
 />
    <glyph glyph-name="uniF460" 
 />
    <glyph glyph-name="uniF46A" 
 />
    <glyph glyph-name="uniF46A.alt" 
 />
    <glyph glyph-name="uniF461" 
 />
    <glyph glyph-name="uniF46B" 
 />
    <glyph glyph-name="uniF462" 
 />
    <glyph glyph-name="uniF46C" 
 />
    <glyph glyph-name="uniF463" 
 />
    <glyph glyph-name="uniF46D" 
 />
    <glyph glyph-name="uniF464" 
 />
    <glyph glyph-name="uniF46E" 
 />
    <glyph glyph-name="uniF465" 
 />
    <glyph glyph-name="uniF46F" 
 />
    <glyph glyph-name="uniF466" 
 />
    <glyph glyph-name="uniF470" 
 />
    <glyph glyph-name="uniF467" 
 />
    <glyph glyph-name="uniF471" 
 />
    <glyph glyph-name="uniF468" 
 />
    <glyph glyph-name="uniF472" 
 />
    <glyph glyph-name="uniF469" 
 />
    <glyph glyph-name="uniF473" 
 />
    <glyph glyph-name="uniF498" 
 />
    <glyph glyph-name="uniF499" 
 />
    <glyph glyph-name="uniF49A" 
 />
    <glyph glyph-name="uniF49B" 
 />
    <glyph glyph-name="uniF49C" 
 />
    <glyph glyph-name="uniF49D" 
 />
    <glyph glyph-name="uniF4D2" 
 />
    <glyph glyph-name="uniF4D3" 
 />
    <glyph glyph-name="uniF4D4" 
 />
    <glyph glyph-name="uniF4D5" 
 />
    <glyph glyph-name="uniF50A" 
 />
    <glyph glyph-name="uniF50B" 
 />
    <glyph glyph-name="uniF530" 
 />
    <glyph glyph-name="uniF531" 
 />
    <glyph glyph-name="uniF53C" 
 />
    <glyph glyph-name="uniF53D" 
 />
    <glyph glyph-name="uniF53E" 
 />
    <glyph glyph-name="uniF53F" 
 />
    <glyph glyph-name="uni018F" 
 />
    <glyph glyph-name="uni0259" 
 />
    <glyph glyph-name="uni0304.cy" 
 />
    <glyph glyph-name="uni0306.cy" 
 />
    <glyph glyph-name="acutecomb.cy" 
 />
    <glyph glyph-name="gravecomb.cy" 
 />
    <glyph glyph-name="uni030B.cy" 
 />
    <glyph glyph-name="uni030C.cy" 
 />
    <glyph glyph-name="ampersand" 
 />
    <glyph glyph-name="ampersand.smcp" 
 />
    <glyph glyph-name="numbersign" 
 />
    <glyph glyph-name="numbersign.onum" 
 />
    <glyph glyph-name="at" 
 />
    <glyph glyph-name="percent" 
 />
    <glyph glyph-name="percent.onum" 
 />
    <glyph glyph-name="perthousand" 
 />
    <glyph glyph-name="perthousand.onum" 
 />
    <glyph glyph-name="parenleft.case" 
 />
    <glyph glyph-name="parenright.case" 
 />
    <glyph glyph-name="bracketleft.case" 
 />
    <glyph glyph-name="bracketright.case" 
 />
    <glyph glyph-name="braceleft" 
 />
    <glyph glyph-name="braceright" 
 />
    <glyph glyph-name="braceleft.case" 
 />
    <glyph glyph-name="braceright.case" 
 />
    <glyph glyph-name="dagger" 
 />
    <glyph glyph-name="daggerdbl" 
 />
    <glyph glyph-name="section" 
 />
    <glyph glyph-name="paragraph" 
 />
    <glyph glyph-name="ellipsis" 
 />
    <glyph glyph-name="colon" 
 />
    <glyph glyph-name="semicolon" 
 />
    <glyph glyph-name="uni037E" 
 />
    <glyph glyph-name="exclam" 
 />
    <glyph glyph-name="exclamdown" 
 />
    <glyph glyph-name="exclamdown.case" 
 />
    <glyph glyph-name="exclam.smcp" 
 />
    <glyph glyph-name="exclamdown.smcp" 
 />
    <glyph glyph-name="question" 
 />
    <glyph glyph-name="questiondown" 
 />
    <glyph glyph-name="questiondown.case" 
 />
    <glyph glyph-name="question.smcp" 
 />
    <glyph glyph-name="questiondown.smcp" 
 />
    <glyph glyph-name="uni203D" 
 />
    <glyph glyph-name="uni2E18" 
 />
    <glyph glyph-name="uni2E18.case" 
 />
    <glyph glyph-name="uni203D.smcp" 
 />
    <glyph glyph-name="uni2E18.smcp" 
 />
    <glyph glyph-name="quotedbl" 
 />
    <glyph glyph-name="quoteleft" 
 />
    <glyph glyph-name="uni02BC" 
 />
    <glyph glyph-name="quotedblbase" 
 />
    <glyph glyph-name="guillemotleft" 
 />
    <glyph glyph-name="guillemotright" 
 />
    <glyph glyph-name="guillemotleft.case" 
 />
    <glyph glyph-name="guillemotright.case" 
 />
    <glyph glyph-name="guilsinglleft" 
 />
    <glyph glyph-name="guilsinglright" 
 />
    <glyph glyph-name="guilsinglleft.case" 
 />
    <glyph glyph-name="guilsinglright.case" 
 />
    <glyph glyph-name="uni00AD" 
 />
    <glyph glyph-name="hyphen.case" 
 />
    <glyph glyph-name="endash" 
 />
    <glyph glyph-name="endash.case" 
 />
    <glyph glyph-name="uni2015" 
 />
    <glyph glyph-name="emdash" 
 />
    <glyph glyph-name="emdash.case" 
 />
    <glyph glyph-name="periodcentered" 
 />
    <glyph glyph-name="uni2219" 
 />
    <glyph glyph-name="periodcentered.case" 
 />
    <glyph glyph-name="bullet" 
 />
    <glyph glyph-name="bullet.case" 
 />
    <glyph glyph-name="dollar" 
 />
    <glyph glyph-name="dollar.onum" 
 />
    <glyph glyph-name="cent" 
 />
    <glyph glyph-name="cent.case" 
 />
    <glyph glyph-name="cent.onum" 
 />
    <glyph glyph-name="sterling" 
 />
    <glyph glyph-name="sterling.onum" 
 />
    <glyph glyph-name="yen" 
 />
    <glyph glyph-name="yen.onum" 
 />
    <glyph glyph-name="Euro" 
 />
    <glyph glyph-name="Euro.onum" 
 />
    <glyph glyph-name="uni0192" 
 />
    <glyph glyph-name="florin.onum" 
 />
    <glyph glyph-name="currency" 
 />
    <glyph glyph-name="colonmonetary" 
 />
    <glyph glyph-name="colonmonetary.onum" 
 />
    <glyph glyph-name="uni20A3" 
 />
    <glyph glyph-name="lira" 
 />
    <glyph glyph-name="uni20A6" 
 />
    <glyph glyph-name="peseta" 
 />
    <glyph glyph-name="uni20A8" 
 />
    <glyph glyph-name="R_p" 
 />
    <glyph glyph-name="uni20A9" 
 />
    <glyph glyph-name="uni20AA" 
 />
    <glyph glyph-name="dong" 
 />
    <glyph glyph-name="uni20B9" 
 />
    <glyph glyph-name="uni20BA" 
 />
    <glyph glyph-name="uni20BD" 
 />
    <glyph glyph-name="uni20B4" 
 />
    <glyph glyph-name="uni20B8" 
 />
    <glyph glyph-name="registered" 
 />
    <glyph glyph-name="copyright" 
 />
    <glyph glyph-name="uni2117" 
 />
    <glyph glyph-name="trademark" 
 />
    <glyph glyph-name="uni2120" 
 />
    <glyph glyph-name="uni2113" 
 />
    <glyph glyph-name="uni2116" 
 />
    <glyph glyph-name="estimated" 
 />
    <glyph glyph-name="slash" 
 />
    <glyph glyph-name="asciitilde" 
 />
    <glyph glyph-name="bar" 
 />
    <glyph glyph-name="brokenbar" 
 />
    <glyph glyph-name="minus" 
 />
    <glyph glyph-name="multiply" 
 />
    <glyph glyph-name="divide" 
 />
    <glyph glyph-name="dotmath" 
 />
    <glyph glyph-name="less" 
 />
    <glyph glyph-name="greater" 
 />
    <glyph glyph-name="equal" 
 />
    <glyph glyph-name="notequal" 
 />
    <glyph glyph-name="plusminus" 
 />
    <glyph glyph-name="lessequal" 
 />
    <glyph glyph-name="greaterequal" 
 />
    <glyph glyph-name="logicalnot" 
 />
    <glyph glyph-name="approxequal" 
 />
    <glyph glyph-name="integral" 
 />
    <glyph glyph-name="radical" 
 />
    <glyph glyph-name="infinity" 
 />
    <glyph glyph-name="partialdiff" 
 />
    <glyph glyph-name="summation" 
 />
    <glyph glyph-name="product" 
 />
    <glyph glyph-name="lozenge" 
 />
    <glyph glyph-name="degree" 
 />
    <glyph glyph-name="uni2032" 
 />
    <glyph glyph-name="uni2033" 
 />
    <glyph glyph-name="ordfeminine" 
 />
    <glyph glyph-name="uniF6E9" 
 />
    <glyph glyph-name="uniF6EA" 
 />
    <glyph glyph-name="uniF6EB" 
 />
    <glyph glyph-name="uniF6EC" 
 />
    <glyph glyph-name="uni02B0" 
 />
    <glyph glyph-name="uniF637" 
 />
    <glyph glyph-name="uniF6ED" 
 />
    <glyph glyph-name="uniF6EE" 
 />
    <glyph glyph-name="uniF6EF" 
 />
    <glyph glyph-name="uni207F" 
 />
    <glyph glyph-name="ordmasculine" 
 />
    <glyph glyph-name="uniF6F0" 
 />
    <glyph glyph-name="uniF6F1" 
 />
    <glyph glyph-name="uniF6F2" 
 />
    <glyph glyph-name="uniF6F3" 
 />
    <glyph glyph-name="uni2070" 
 />
    <glyph glyph-name="uni00B9" 
 />
    <glyph glyph-name="uni00B2" 
 />
    <glyph glyph-name="uni00B3" 
 />
    <glyph glyph-name="uni2074" 
 />
    <glyph glyph-name="uni2075" 
 />
    <glyph glyph-name="uni2076" 
 />
    <glyph glyph-name="uni2077" 
 />
    <glyph glyph-name="uni2078" 
 />
    <glyph glyph-name="uni2079" 
 />
    <glyph glyph-name="uni207D" 
 />
    <glyph glyph-name="uni207E" 
 />
    <glyph glyph-name="uniF6E0" 
 />
    <glyph glyph-name="uniF6E2" 
 />
    <glyph glyph-name="uniF6E4" 
 />
    <glyph glyph-name="uniF6E6" 
 />
    <glyph glyph-name="uniF6E8" 
 />
    <glyph glyph-name="uni2080" 
 />
    <glyph glyph-name="uni2081" 
 />
    <glyph glyph-name="uni2082" 
 />
    <glyph glyph-name="uni2083" 
 />
    <glyph glyph-name="uni2084" 
 />
    <glyph glyph-name="uni2085" 
 />
    <glyph glyph-name="uni2086" 
 />
    <glyph glyph-name="uni2087" 
 />
    <glyph glyph-name="uni2088" 
 />
    <glyph glyph-name="uni2089" 
 />
    <glyph glyph-name="uni208D" 
 />
    <glyph glyph-name="uni208E" 
 />
    <glyph glyph-name="uniF6DF" 
 />
    <glyph glyph-name="uniF6E1" 
 />
    <glyph glyph-name="uniF6E3" 
 />
    <glyph glyph-name="uniF6E5" 
 />
    <glyph glyph-name="uniF6E7" 
 />
    <glyph glyph-name="zero.numr" 
 />
    <glyph glyph-name="one.numr" 
 />
    <glyph glyph-name="two.numr" 
 />
    <glyph glyph-name="three.numr" 
 />
    <glyph glyph-name="four.numr" 
 />
    <glyph glyph-name="five.numr" 
 />
    <glyph glyph-name="six.numr" 
 />
    <glyph glyph-name="seven.numr" 
 />
    <glyph glyph-name="eight.numr" 
 />
    <glyph glyph-name="nine.numr" 
 />
    <glyph glyph-name="fraction" 
 />
    <glyph glyph-name="uni2215" 
 />
    <glyph glyph-name="zero.dnom" 
 />
    <glyph glyph-name="one.dnom" 
 />
    <glyph glyph-name="two.dnom" 
 />
    <glyph glyph-name="three.dnom" 
 />
    <glyph glyph-name="four.dnom" 
 />
    <glyph glyph-name="five.dnom" 
 />
    <glyph glyph-name="six.dnom" 
 />
    <glyph glyph-name="seven.dnom" 
 />
    <glyph glyph-name="eight.dnom" 
 />
    <glyph glyph-name="nine.dnom" 
 />
    <glyph glyph-name="onehalf" 
 />
    <glyph glyph-name="onequarter" 
 />
    <glyph glyph-name="threequarters" 
 />
    <glyph glyph-name="uni2153" 
 />
    <glyph glyph-name="uni2154" 
 />
    <glyph glyph-name="oneeighth" 
 />
    <glyph glyph-name="threeeighths" 
 />
    <glyph glyph-name="fiveeighths" 
 />
    <glyph glyph-name="seveneighths" 
 />
    <glyph glyph-name="arrowleft" 
 />
    <glyph glyph-name="arrowup" 
 />
    <glyph glyph-name="arrowright" 
 />
    <glyph glyph-name="arrowdown" 
 />
    <glyph glyph-name="uni22B2" 
 />
    <glyph glyph-name="uni22B3" 
 />
    <glyph glyph-name="filledbox" 
 />
    <glyph glyph-name="triagup" 
 />
    <glyph glyph-name="triagdn" 
 />
    <glyph glyph-name="uni25CF" 
 />
    <glyph glyph-name="uni2605" 
 />
    <glyph glyph-name="uni2610" 
 />
    <glyph glyph-name="uni2611" 
 />
    <glyph glyph-name="diamond" 
 />
    <glyph glyph-name="uni2713" 
 />
    <glyph glyph-name="uniF8FF" 
 />
    <glyph glyph-name="uni2318" 
 />
    </font>
</defs>
</svg>
