<svg xmlns="http://www.w3.org/2000/svg" xmlns:xlink="http://www.w3.org/1999/xlink" width="155" height="34" viewBox="0 0 155 34">
    <defs>
        <path id="h0r2z8nmya" d="M0 0.229L21.755 0.229 21.755 33 0 33z"/>
    </defs>
    <g fill="none" fill-rule="evenodd">
        <g>
            <g>
                <mask id="ms3raukxpb" fill="#fff">
                    <use xlink:href="#h0r2z8nmya"/>
                </mask>
                <path fill="#BE2BBB" d="M18.807 21.103c0 .814.66 1.475 1.474 1.475.815 0 1.474-.661 1.474-1.475v-9.887c0-.815-.659-1.475-1.474-1.475-.814 0-1.474.66-1.474 1.475v9.887zm-4.703-1.937c0 .84.681 1.52 1.52 1.52.84 0 1.52-.68 1.52-1.52V4.536c0-.84-.68-1.52-1.52-1.52-.839 0-1.52.68-1.52 1.52v14.63zm-4.702-1.121c0 .839.68 1.52 1.52 1.52s1.52-.681 1.52-1.52V1.748c0-.84-.68-1.52-1.52-1.52s-1.52.68-1.52 1.52v16.297zm-4.703.353c0 .84.681 1.519 1.52 1.519.84 0 1.52-.68 1.52-1.52V6.277c0-.84-.68-1.52-1.52-1.52-.839 0-1.52.68-1.52 1.52v12.122zm4.383 13.767c-.246.508-.77.835-1.334.835-.225 0-.442-.05-.645-.15C2.455 30.599 0 26.629 0 21.37v-5.94c0-.817.664-1.481 1.481-1.481.816 0 1.481.664 1.481 1.48v5.94c0 4.103 1.828 7.07 5.434 8.819.734.356 1.042 1.243.686 1.978z" mask="url(#ms3raukxpb)"/>
            </g>
            <text fill="#595454" font-family="BMSHumanity-Regular, BMS Humanity" font-size="27" letter-spacing="-.7">
                <tspan x="29" y="28">Our Science</tspan>
            </text>
        </g>
    </g>
</svg>
