<svg xmlns="http://www.w3.org/2000/svg" xmlns:xlink="http://www.w3.org/1999/xlink" width="239" height="33" viewBox="0 0 239 33">
    <defs>
        <path id="fplklb3xza" d="M0 0.229L21.755 0.229 21.755 33 0 33z"/>
    </defs>
    <g fill="none" fill-rule="evenodd">
        <g>
            <g>
                <path fill="#595454" d="M207.23 11.859c0 1.076-.49 1.58-1.347 1.58-.856 0-1.346-.504-1.346-1.58s.49-1.611 1.346-1.611c.858 0 1.348.535 1.348 1.61zm23.685 10.987c0 3.312-1.157 4.39-3.051 4.39-1.892 0-3.05-1.078-3.05-4.39v-1.788c0-3.313 1.158-4.39 3.05-4.39 1.894 0 3.05 1.077 3.05 4.39v1.788zm-2.788-8.124c-1.47 0-2.59.716-3.181 1.946h-.106v-6.153h-2.207V28.92h2.207v-1.683h.106c.59 1.23 1.71 1.946 3.18 1.946 3.445 0 5.022-2.366 5.022-6.204v-2.051c0-3.84-1.577-6.205-5.021-6.205zm-9.896 8.124c0 3.312-1.157 4.39-3.05 4.39-1.892 0-3.05-1.078-3.05-4.39v-1.788c0-3.313 1.158-4.39 3.05-4.39 1.893 0 3.05 1.077 3.05 4.39v1.788zm-2.787-8.124c-1.47 0-2.59.716-3.181 1.946h-.105v-6.153h-2.208V28.92h2.208v-1.683h.105c.592 1.23 1.712 1.946 3.18 1.946 3.445 0 5.022-2.366 5.022-6.204v-2.051c0-3.84-1.577-6.205-5.021-6.205zM204.78 28.919h2.208V14.985h-2.208v13.934zm-5.045-13.934h2.209v13.934h-2.21V27.13h-.104c-.526 1.13-1.657 2.05-3.418 2.05-2.602 0-4.207-1.472-4.207-4.758v-9.438h2.236v9.123c0 2.235.92 3.208 2.577 3.208 1.602 0 2.917-1.08 2.917-3.787v-8.544zm-15.375 12.25c-1.892 0-3.05-1.077-3.05-4.39v-1.787c0-3.313 1.158-4.39 3.05-4.39s3.05 1.077 3.05 4.39v1.788c0 3.312-1.158 4.39-3.05 4.39zm3.024-10.567h-.108c-.597-1.23-1.732-1.946-3.18-1.946-3.443 0-5.02 2.366-5.02 6.205v2.05c0 3.839 1.577 6.205 5.02 6.205 1.448 0 2.584-.716 3.18-1.946h.108v6.153h2.208V14.985h-2.208v1.683zm-9.978 7.387c0 3.287-2.261 5.127-5.733 5.127-3.26 0-5.941-1.577-6.282-5.101h2.444c.29 2.077 1.762 3.05 3.812 3.05 2.34 0 3.393-1.394 3.393-2.943 0-5.233-9.36-2.21-9.36-9.071 0-2.945 2.34-4.864 5.6-4.864 3.154 0 5.783 1.55 5.942 5.179h-2.446c-.21-2.234-1.63-3.128-3.522-3.128-2.235 0-3.21 1.315-3.21 2.707 0 4.628 9.362 1.893 9.362 9.044zm-17.553 1.026c0 2.682-1.997 4.1-4.916 4.1-2.945 0-4.89-1.261-5.05-4.1h2.21c.08 1.709 1.342 2.26 2.84 2.26 1.498 0 2.707-.656 2.707-2.103 0-3.391-7.597-1.05-7.597-6.546 0-2.288 1.683-3.97 4.758-3.97 2.813 0 4.68 1.394 4.89 4.1h-2.208c-.131-1.63-1.262-2.26-2.682-2.26-1.603 0-2.602.736-2.602 2.13 0 3.287 7.65 1.262 7.65 6.389zm-11.83-10.096h.683v2.156h-.552c-2.208 0-3.653 1.104-3.653 4.023v7.755h-2.21V14.985h2.21v2.498h.104c.395-1.261 1.42-2.498 3.418-2.498zm-13.21 1.683c1.789 0 2.759 1.053 2.785 4.259h-5.831c.03-3.206 1.18-4.26 3.046-4.26zm0-1.946c-3.443 0-5.283 2.47-5.283 6.205v2.05c0 3.839 1.84 6.205 5.283 6.205 2.76 0 4.39-1.525 4.942-4.127h-2.26c-.394 1.603-1.288 2.18-2.682 2.18-1.892 0-3.05-1.077-3.05-4.39v-.183h8.072v-1.735c0-3.734-1.577-6.205-5.022-6.205zm-8.168.263h2.234l-6.177 18.404h-2.287l1.55-4.365-4.522-14.04h2.34l3.34 10.86h.105l3.417-10.86zm-14.487-4.47h3.748V28.92h-2.34V13.067h-.131l-4.707 12.806h-2.866l-4.652-12.806h-.132v15.852h-2.313V10.516h3.93l4.64 12.783h.132l4.69-12.783zM88.647 28.92h2.209V10.516h-2.21v18.403zm-4.568-6.073c0 3.312-1.157 4.39-3.05 4.39-1.893 0-3.05-1.078-3.05-4.39v-1.788c0-3.313 1.157-4.39 3.05-4.39 1.893 0 3.05 1.077 3.05 4.39v1.788zm-3.05-8.124c-3.445 0-5.284 2.366-5.284 6.205v2.05c0 3.839 1.839 6.205 5.284 6.205 3.444 0 5.284-2.366 5.284-6.204v-2.051c0-3.84-1.84-6.205-5.284-6.205zm-9.521.263h2.997v1.946h-2.997v7.703c0 2.024.526 2.444 1.867 2.444.368 0 .788-.052 1.13-.08v1.896c-.42.078-.973.13-1.367.13-2.734 0-3.838-1.078-3.838-4.05v-8.043h-2.34v-1.946h2.34v-4.47h2.208v4.47zM66.413 25.08c0 2.682-2 4.1-4.917 4.1-2.944 0-4.89-1.261-5.048-4.1h2.209c.078 1.709 1.34 2.26 2.839 2.26 1.499 0 2.708-.656 2.708-2.103 0-3.391-7.598-1.05-7.598-6.546 0-2.288 1.683-3.97 4.758-3.97 2.814 0 4.68 1.394 4.89 4.1h-2.208c-.131-1.63-1.261-2.26-2.682-2.26-1.604 0-2.602.736-2.602 2.13 0 3.287 7.65 1.262 7.65 6.389zM54.405 11.859c0 1.076-.49 1.58-1.347 1.58-.858 0-1.348-.504-1.348-1.58s.49-1.611 1.348-1.611c.858 0 1.347.535 1.347 1.61zm-2.451 17.06h2.209V14.985h-2.21v13.934zm-2.648-13.934h.683v2.156h-.552c-2.21 0-3.655 1.104-3.655 4.023v7.755h-2.208V14.985h2.208v2.498h.105c.394-1.261 1.42-2.498 3.419-2.498zm-10.158 8.754c0 2.278-1.794 3.129-4.412 3.129h-3.008v-6.634h3.05c2.578 0 4.37.856 4.37 3.216v.289zm-7.42-11.146h2.705c2.577 0 3.892.976 3.892 2.724v.185c0 2.11-1.824 2.787-4.221 2.787h-2.376v-5.696zm5.768 6.489l.003-.092c1.913-.657 3.098-1.807 3.098-3.861v-.315c0-2.358-1.917-4.298-5.827-4.298h-5.408v18.403h5.8c3.8 0 6.409-1.91 6.409-4.968v-.184c0-2.386-1.404-4.134-4.075-4.685zm196.184-4.848V10.94h.998v-.425h-2.47v.425h.988v3.293h.484zm4.912 0v-3.718h-.786l-.92 2.879h-.025l-.908-2.88h-.824v3.719h.467V11.03h.027l1.009 3.203h.447l1.014-3.203h.027v3.203h.472z" transform="translate(-30 -32) translate(30 31)"/>
                <g transform="translate(-30 -32) translate(30 31) translate(0 .771)">
                    <mask id="p4deowkk3b" fill="#fff">
                        <use xlink:href="#fplklb3xza"/>
                    </mask>
                    <path fill="#BE2BBB" d="M18.807 21.103c0 .814.66 1.475 1.474 1.475.815 0 1.474-.661 1.474-1.475v-9.887c0-.815-.659-1.475-1.474-1.475-.814 0-1.474.66-1.474 1.475v9.887zm-4.703-1.937c0 .84.681 1.52 1.52 1.52.84 0 1.52-.68 1.52-1.52V4.536c0-.84-.68-1.52-1.52-1.52-.839 0-1.52.68-1.52 1.52v14.63zm-4.702-1.121c0 .839.68 1.52 1.52 1.52s1.52-.681 1.52-1.52V1.748c0-.84-.68-1.52-1.52-1.52s-1.52.68-1.52 1.52v16.297zm-4.703.353c0 .84.681 1.519 1.52 1.519.84 0 1.52-.68 1.52-1.52V6.277c0-.84-.68-1.52-1.52-1.52-.839 0-1.52.68-1.52 1.52v12.122zm4.383 13.767c-.246.508-.77.835-1.334.835-.225 0-.442-.05-.645-.15C2.455 30.599 0 26.629 0 21.37v-5.94c0-.817.664-1.481 1.481-1.481.816 0 1.481.664 1.481 1.48v5.94c0 4.103 1.828 7.07 5.434 8.819.734.356 1.042 1.243.686 1.978z" mask="url(#p4deowkk3b)"/>
                </g>
            </g>
        </g>
    </g>
</svg>
