<svg xmlns="http://www.w3.org/2000/svg" xmlns:xlink="http://www.w3.org/1999/xlink" width="46" height="46" viewBox="0 0 46 46">
    <defs>
        <filter id="5k53bgwo7a">
            <feColorMatrix in="SourceGraphic" values="0 0 0 0 0.109804 0 0 0 0 0.305882 0 0 0 0 0.466667 0 0 0 1.000000 0"/>
        </filter>
        <path id="d5l2ruiobb" d="M0 0L46 0 46 46 0 46z"/>
    </defs>
    <g fill="none" fill-rule="evenodd">
        <g>
            <g filter="url(#5k53bgwo7a)" transform="translate(-28 -28) translate(16 16)">
                <g>
                    <g transform="translate(12 12)">
                        <mask id="cpiwswqwfc" fill="#fff">
                            <use xlink:href="#d5l2ruiobb"/>
                        </mask>
                        <path fill="#FFF" d="M16.096 43.549c-1.345-2.295.305-5.244 1.509-7.4l.174-.311c.257-.462.84-.633 1.303-.37.464.259.631.84.372 1.303l-.176.318c-.922 1.65-2.317 4.148-1.528 5.494.58.98 2.394 1.5 5.248 1.5 11.625 0 21.083-9.46 21.083-21.083 0-11.623-9.458-21.083-21.083-21.083-11.624 0-21.083 9.46-21.083 21.083 0 6.07 2.618 11.853 7.185 15.853.399.352.437.954.089 1.355-.351.397-.957.437-1.354.086C2.855 35.924 0 29.62 0 23 0 10.32 10.317 0 23 0s23 10.32 23 23c-.002 12.683-10.32 23-23.002 23-3.674 0-5.932-.803-6.902-2.451z" mask="url(#cpiwswqwfc)"/>
                    </g>
                    <path fill="#FFF" d="M28.168 8.069c-3.471 0-8.326 4.815-11.291 11.205-3.768 8.117-3.115 14.914-.144 16.166l3.036 1.28c1.14.48 2.54-.045 3.038-1.121l.892-1.927c.512-1.106-.014-2.402-1.179-2.896l-3.034-1.275c-1.207-.507-1.86-1.849-1.835-3.776.02-1.647.52-3.606 1.41-5.524 1.425-3.07 3.98-6.168 6.473-6.168.368 0 .718.07 1.038.206l3.035 1.277c1.142.484 2.54-.045 3.038-1.12l.894-1.932c.25-.536.266-1.132.042-1.678-.217-.548-.65-.977-1.216-1.214l-3.037-1.277c-.35-.153-.742-.226-1.16-.226M20.7 38.844c-.604 0-1.193-.121-1.75-.354l-3.036-1.279c-4.494-1.895-4.886-10.116-.894-18.719 3.377-7.276 8.782-12.359 13.15-12.359.703 0 1.374.126 1.985.385l3.037 1.28c1.058.445 1.873 1.258 2.29 2.285.42 1.03.39 2.15-.075 3.163l-.893 1.93c-.938 2.022-3.58 3.003-5.717 2.109l-3.035-1.278c-.775-.329-3.101 1.25-4.827 4.972-.77 1.659-1.224 3.397-1.237 4.765-.015 1.185.303 1.85.624 1.982L23.357 29c2.187.927 3.18 3.366 2.214 5.446l-.892 1.926c-.706 1.504-2.262 2.471-3.98 2.471" transform="translate(12 12)"/>
                </g>
            </g>
        </g>
    </g>
</svg>
