<svg xmlns="http://www.w3.org/2000/svg" xmlns:xlink="http://www.w3.org/1999/xlink" width="70" height="70" viewBox="0 0 70 70">
    <defs>
        <path id="m6934clrda" d="M0 0L70 0 70 70 0 70z"/>
    </defs>
    <g fill="none" fill-rule="evenodd">
        <g>
            <g>
                <g transform="translate(-16 -16) translate(16 16)">
                    <mask id="c548hugmsb" fill="#fff">
                        <use xlink:href="#m6934clrda"/>
                    </mask>
                    <path fill="#595454" d="M24.494 66.27c-2.047-3.492.464-7.98 2.296-11.262l.265-.472c.39-.703 1.278-.963 1.983-.563.706.394.96 1.277.566 1.983l-.268.484c-1.403 2.512-3.526 6.312-2.325 8.36.881 1.493 3.643 2.283 7.986 2.283 17.69 0 32.083-14.396 32.083-32.083 0-17.687-14.393-32.083-32.083-32.083C17.307 2.917 2.914 17.313 2.914 35c0 9.237 3.984 18.037 10.934 24.124.607.536.665 1.452.135 2.062-.534.604-1.456.665-2.06.131C4.346 54.667 0 45.074 0 35 0 15.703 15.7 0 35 0s35 15.703 35 35c-.003 19.3-15.703 35-35.003 35-5.591 0-9.027-1.222-10.503-3.73z" mask="url(#c548hugmsb)"/>
                </g>
                <path fill="#BE2BBB" d="M42.995 11.9c-5.02 0-12.04 7.212-16.328 16.785-5.449 12.158-4.505 22.34-.209 24.216l4.391 1.916c1.649.719 3.674-.066 4.394-1.679l1.29-2.886c.74-1.657-.02-3.599-1.705-4.338l-4.387-1.91c-1.746-.76-2.69-2.77-2.654-5.657.03-2.467.752-5.4 2.04-8.274 2.06-4.598 5.754-9.239 9.359-9.239.532 0 1.038.104 1.502.307l4.388 1.914c1.652.724 3.674-.067 4.394-1.679l1.292-2.893c.361-.803.386-1.696.062-2.514-.314-.82-.94-1.464-1.76-1.817l-4.39-1.914c-.506-.229-1.074-.339-1.679-.339M32.195 58c-.873 0-1.725-.183-2.531-.53l-4.39-1.917c-6.498-2.838-7.065-15.153-1.293-28.04C28.865 16.613 36.681 9 42.998 9c1.017 0 1.987.188 2.871.577l4.391 1.916c1.531.667 2.709 1.885 3.312 3.424.608 1.542.564 3.22-.109 4.737l-1.29 2.89c-1.357 3.03-5.179 4.5-8.267 3.16l-4.39-1.913c-1.12-.493-4.485 1.873-6.98 7.448-1.114 2.484-1.77 5.088-1.79 7.137-.02 1.774.438 2.772.902 2.969l4.39 1.91c3.163 1.389 4.597 5.042 3.201 8.158l-1.29 2.885C36.93 56.55 34.68 58 32.195 58" transform="translate(-16 -16) translate(16 16)"/>
            </g>
        </g>
    </g>
</svg>
