<svg xmlns="http://www.w3.org/2000/svg" xmlns:xlink="http://www.w3.org/1999/xlink" width="11" height="10" viewBox="0 0 11 10">
    <defs>
        <path id="atngxk989a" d="M0 0L11 0 11 10 0 10z"/>
    </defs>
    <g fill="none" fill-rule="evenodd">
        <g>
            <mask id="sc1aa9if6b" fill="#fff">
                <use xlink:href="#atngxk989a"/>
            </mask>
            <path fill="#FFF" d="M9.706 5.588c0-.325.29-.588.647-.588.357 0 .647.263.647.588v3.824c0 .325-.29.588-.647.588H.647C.29 10 0 9.737 0 9.412V.588C0 .263.29 0 .647 0h4.206C5.21 0 5.5.263 5.5.588c0 .325-.29.589-.647.589H1.294v7.647h8.412V5.588zM7.441 1.177c-.357 0-.647-.264-.647-.589 0-.325.29-.588.647-.588h2.912c.357 0 .647.264.647.588v2.648c0 .324-.29.588-.647.588-.357 0-.647-.264-.647-.588V2.008L5.958 5.416c-.253.23-.663.23-.915 0-.253-.23-.253-.602 0-.832L8.79 1.177h-1.35z" mask="url(#sc1aa9if6b)"/>
        </g>
    </g>
</svg>
